<?xml version="1.0" encoding="utf-8"?>
<svg version="1.1" id="Layer_1" xmlns="http://www.w3.org/2000/svg" xmlns:xlink="http://www.w3.org/1999/xlink" viewBox="0 0 525 360" enable-background="new 0 0 525 360" xml:space="preserve">
<g>
    <path fill-rule="evenodd" clip-rule="evenodd" d="M317.637,130.81c2.602,1.463,5.202,2.926,7.804,4.39
        c-1.089-5.364,0.265-9.966-5.708-10.416c7.692-5.817,12.932-4.442,21.93-5.118c9.25-0.693-0.025,15.696,13.354,14.577
        c0.304,2.162-1.652,2.746-5.868,1.751c0,8.154,0.133,16.312-0.148,24.463c-0.162,4.651-15.546,9.64-19.386,10.812
        c1.124,5.56,10.821-3.624,11.366,1.584c-4.968,0.391-9.937,0.781-14.904,1.172c0.075,1.39,19.764-0.176,23.474,7.821
        c2.385-0.627,10.546-9.547,15.467,0.329c0.236-1.904,0.473-3.807,0.709-5.711c0.944,1.306,1.888,2.611,2.832,3.917
        c6.399-15.771,43.255,21.705,49.248,25.844c-4.67-1.152-6.244-1.21-4.722-0.172c-3.703-4.641-7.859-4.927-12.469-0.858
        c4.741-2.171,6.938-1.675,6.589,1.487c-13.948,0.537-20.496,4.21-14.653-14.253c-3.979,0.796-7.957,1.593-11.935,2.391
        c2.615-3.584,1.602-5.031-3.042-4.341c1.418-2.136,2.835-4.271,4.253-6.406c-0.233-0.033-18.128,6.745-18.108,6.719
        c5.742,4.373,6.886,4.544,14.307,2.942c-2.86,1.225-5.72,2.449-9.819,4.205c23.364,5.358,0.907-1.093,7.179,6.287
        c3.622-2.753,7.243-5.505,10.865-8.258c-1.689,5.256-7.837,13.296-14.882,9.858c7.272,6.323,11.491-4.471,15.579-1.872
        c-3.736,6.329,0.968,6.867,5.978,4.233c-0.678,1.656-1.355,3.312-2.033,4.969c3.758,2.868,7.229,3.201,10.415,0.998
        c-0.463,2.05-0.926,4.1-1.389,6.149c1.122-0.987,2.244-1.974,3.366-2.961c-0.896,13.903,16.701-5.339,14.328-11.274
        c2.747,3.194,21.401,14.63,23.923,8.242c-1.693-0.679-3.388-1.356-5.081-2.035c5.033,0.238,10.065,0.483,15.098,0.734
        c-1.305-4.017,0.293-6.108,4.793-6.276c-0.675,1.583-1.35,3.166-2.024,4.749c18.874-6.81-3.134-13.194-9.643-1.06
        c2.575-0.623,4.781-1.157,6.969-1.685c-5.661,4.753-12.171-0.727-18.228,1.635c1.12,0.703,2.161,1.355,3.201,2.009
        c-12.75,0.892-26.629-14.388-35.305-19.843c-27.471-17.272,28.406-17.234,35.326-18.293c-2.462,3.833-0.971,5.253,3.364,6.189
        c-0.435,1.357-0.869,2.715-1.304,4.072c3.249-2.3,5.812-4.114,8.409-5.952c-3.351-0.398-6.419-0.764-9.488-1.128
        c1.792-10.646,48.12-19.826,57.542-19.608c-14.22,4.167-25.76,8.88-38.738,16.019c5.273-1.66,8.223-2.72,8.212,3.627
        c1.277-1.468,7.757-10.759,9.682-9.555c-0.893,1.52-10.825,15.325-10.888,15.215c2.169-0.78,4.338-1.559,6.507-2.339
        c-3.478,2.225-4.327,4.216-2.549,5.972c3.322-2.799,6.645-5.597,9.968-8.396c-1.609,4.789,1.073,6.787,8.049,5.994
        c-3.882,4.021-2.453,5.97,4.287,5.847c-10.211,1.518-3.175,5.04-11.604,10.285c3.671-11.974-27.841,5.813-8.754,4.92
        c-1.245,1.574-2.49,3.147-3.735,4.722c4.671-1.029,7.855-1.73,11.04-2.432c-6.515,1.998-13.162,3.278-19.943,3.839
        c0.591,4.269,30.418-3.121,37.58,5.19c-8.657-4.06-9.248-0.911-16.408,6.246c-2.183-7.262-11.445-6.098-17.039-0.504
        c7.664,5.178,7.837-6.772,13.149,2.993c-8.982,5.799,0.796,7.962,5.926,11.445c9.071,6.157,6.079,5.298,15.199,2.235
        c-7.413,8.566-4.985,22.666-22.349,19.122c2.942-1.53,25.727-19.82,9.323-14.306c-7.022-16.188-44.316,22.081-35.837,32.628
        c3.86-4.121,7.5-4.532,10.92-1.231c-5.633,5.065-14.887,1.423-17.428,10.589c17.154,1.781,34.786,3.667,51.42-2.262
        c-5.683,8.265-30.991,6.785-39.807,5.879c-16.22-1.669-16.103,1.278-28.232,12.674c4.831,0.119,37.81-7.942,37.631-8.408
        c-11.038,4.53-20.477,8.543-32.24,10.214c-14.362,2.04-31.345,15.352-45.683,12.785c-12.992-2.326-27.738-2.316-39.429-9.282
        c-6.561-3.909-25.532-9.16-28.875-14.639c-5.731-9.389-22.101-4.475-31.437-6.363c-11.975-2.426-20.611-17.112-31.038-23.029
        c-3.166-1.797-20.751-13.438-23.254-9.249c-1.549,2.799-2.999,5.649-4.349,8.55c-5.178,11.069,8.834,4.914,6.024,11.062
        c-7.077-2.508-12.832,18.787-10.558,21.465c5.35-4.576,20.255-22.174,28.036-18.337c-0.624,6.735-9.226,14.386-12.638,20.435
        c15.918,1.71,12.601-1.131,25.231-6.177c-5.846,1.917-7.55,4.38-5.112,7.388c5.041-5.643,8.4-5.355,10.079,0.863
        c1.015-3.25,2.029-6.499,3.045-9.749c5.969,2.135,2.446,5.228,3.18,9.405c1.676-0.145,3.352-0.29,5.027-0.435
        c-1.123,0.736-1.879,1.231-3.318,2.175c2.865,0.232,5.731,0.465,8.597,0.697c-5.214,4.317-3.317,15.363-5.411,16.458
        c-2.095,4.189-29.114,1.482-33.068-1.166c6.328,0.924,12.613,3.161,19.734,1.269c-1.447-1.08-2.895-2.16-4.342-3.24
        c1.075-0.722,16.849-10.686,16.662-11.845c-7.587,1.659-15.173,3.319-22.76,4.979c1.952-6.288,10.607-6.675,16.278-8.62
        c-1.069-2.936-26.815,7.386-30.31,8.599c3.631-2.14,7.26-4.278,11.002-6.484c-7.6-4.36-40.549-5.02-45.907-0.789
        c15.905,8.949,16.464,9.337,35.042,7.158c-1.651,0.942-3.302,1.885-4.953,2.827c3.833,1.218,7.085,3.319,9.759,6.303
        c-9.103-6.433-18.889-8.52-30.095-3.937c4.476,2.558,3.645,3.611-2.493,3.161c0-2.086-0.001-4.171-0.002-6.257
        c1.363-0.909-11.864-8.319-12.011-8.386c-12.188-5.551-4.222,1.004-13.352,1.089c3.916-9.029-6.795-7.722-13.309-9.504
        c-7.042-1.924-11.254-9.443-14.949-15.253c-2.372,3.795-4.744,7.59-7.116,11.385c3.318,2.14,2.177-3.439,4.888-0.8
        c-3.366,3.275-11.953,12.14-0.85,11.538c0.298,3.867-13.402,2.866-0.323,12.141c-9.524,7.443,4.585,10.909,10.825,8.148
        c2.64,5.256,1.353,9.547-3.861,12.873c-8.181-3.97-10.271-13.364-13.737-20.798c-8.035,11.815-0.729,34.705-9.973,44.287
        c0.162-2.889,0.324-5.777,0.486-8.666c-4.879-1.296-13.689,0.356-15.308,2.707c0.106-0.44-10.042-17.825-11.135-18.35
        c-4.184,5.503-7.41,11.507-9.679,18.012c-3.147-1.28,3.603-28.528,1.167-35.018c10.003-2.35,3.583,9.338,11.001,4.146
        c4.626-3.239,9.593-13.233,12.386-17.989c4.032-6.866,6.73-14.808,9.434-22.238c4.694-12.903,7.971-10.783,13.575-20.343
        c-1.281-0.483-2.562-0.968-3.844-1.451c6.937-1.401,49.003-39.354,49.078-39.25c5.072,2.687,5.999,1.348,2.78-4.015
        c8.414,2.455,6.206-17.351,20.362-20.18c12.333-2.471,24.363-8.641,37.326-9.538c-0.972,0.564-1.942,1.129-4.069,2.365
        c2.209-0.207,4.419-0.415,6.628-0.622c0.484,2.537-5.045,0.173-4.863,3.145c5.918,0,11.837,0,17.755,0
        c-2.689,5.171-4.135,10.299-3.975,16.222c0.754-1.33,1.507-2.659,2.261-3.989c13.347,4.424-1.053,20.032,1.521,29.354
        c2.769,10.028,18.127,14.855,23.781,8.064c-3.137-3.128-14.794-17.284-16.164-16.622c1.087,2.684,1.688,11.383,0.904,12.298
        c-9.529-6.019-4.038-9.433-0.483-18.829c1.151,6.185,4.369,9.61,9.654,10.279c-0.047-14.204-26.083-33.914-6.062-40.701
        c0.906,1.278,0.099,2.109-2.424,2.492c6.813,4.697,9.445,3.843,7.897-2.563c3.962,5.371,20.409,0.539,26.27-0.299
        c-13.294-28.308-88.387,9.299-95.375-20.851c-5.961-25.721,20.278-60.253,38.651-73.376c-7.576,17.889-2.439,1.854,1.406,9.148
        c-2.374,1.373-4.747,2.746-7.121,4.118c4.564-1.541,5.593-0.388,3.084,3.46c2.321,0.875,3.771-0.375,4.351-3.752
        c5.4,6.635,6.633,4.286,14.312,6.469c-7.428,1.708,0.118,5.3-6.051,5.916c7.84,1.016,8.073,1.025,0.098,2.091
        c0.291,2.473,3.866-0.986,4.459,1.343c-1.641,0.689-3.282,1.377-4.923,2.066c7.665-0.73,15.331-1.46,22.996-2.189
        c0.957,6.581-10.915-4.812,1.124,5.785c3.707-6.003-26.092,2.635-26.055,2.622c2.288,0.163,4.218,0.3,6.244,0.444
        c-4.562-1.223-6.588-0.392-6.077,2.495c5.182-1.729,7.578-0.262,7.188,4.401c-0.985-3.18-2.978-4.218-5.979-3.114
        c0-7.668,1.716,13.865,2.587,9.346c-2.033-0.11-4.065-0.22-6.099-0.33c3.95-2.458-9.825-14.984-16.417-5.354
        c2.376-0.518,3.253,0.187,2.632,2.112c1.35-0.657,2.699-1.314,4.048-1.972c-1.638,3.804-4.632,2.815-6.005,6.809
        c1.914,5.972,5.604,8.676,11.071,8.113c-7.886,3.93-9.929,7.425-6.131,10.486c3.115-2.937,6.504-9.175,11.68-7.643
        c-2.206,1.279-4.406,2.556-7.787,4.517c3.776,0.802,7.554,1.603,11.33,2.404c-13.217,9.392,8.312-7.492-1.232,8.842
        c9.035-6.554,18.004,5.067,28.941,5.856c9.517,0.687,23.935-1.756,31.624-6.6c24.594-15.492,0.528-8.966-13.864-4.942
        c-20.822,5.823-30.761-11.484-49.163-9.948c14.853-4.776,31.402,8.339,47.759,2.554c7.398-2.617,23.351-6.495,30.421-2.667
        c-2.963-3.636-2.403-6.063,1.68-7.284c-7.897-3.857-9.611-4.094-1.256-5.869c-3.084-6.979-1.934-10.886-10.3-10.06
        c1.817,1.235,2.627,1.786,4.308,2.93c-10.612,1.075-18.646,6.561-29.929,6.561c2.668-7.425,4.21-12.507,11.922-9.125
        c-2.097,0.022-4.194,0.044-6.291,0.066c-0.686,5.517,2.486,6.76,9.516,3.731C319.906,133.451,318.771,132.13,317.637,130.81
        C319.801,132.026,318.461,131.768,317.637,130.81z M440.072,259.508c-3.649,0.146-7.809-2.512-11.466,1.758
        c4.88,3.817,9.013,3.414,12.398-1.211c-0.002,7.485-2.917,7.997-9.823,10.318c-1.386-4.31,6.618-0.14,6.15-4.463
        c-10.233-2.604-6.798,2.714-14.161-1.151c3.693-5.223,7.387-10.445,11.079-15.668c-21.016,0.233-38.577,9.181-56.378,17.655
        c16.529,1.903,29.984,3.973,45.374-2.08c-5.043,2.822-6.309,5.953-3.794,9.395c-4.174-3.095-7.977-2.707-11.409,1.164
        c28.72,8.666,29.047,10.145,41.7-17.317c-1.645,0.54-3.289,1.081-4.934,1.621c2.125-1.594,4.249-3.188,6.713-5.036
        C449.791,254.68,438.266,253.713,440.072,259.508C436.423,259.654,439.289,256.996,440.072,259.508z M191.896,267.441
        c7.477-9.131-15.396-7.865-13.634,4.824c5.81-4.069,6.88-6.543,13.955-4.92c-2.114,7.388-2.86,16.384,7.155,12.439
        c-8.803-4.166-1.373-8.02,4.78-8.485c0.505-3.57-1.85-5.475-7.066-5.713c-0.736,1.897-0.533,3.66,0.609,5.29
        C195.324,269.472,193.609,268.457,191.896,267.441C195.327,263.251,193.609,268.457,191.896,267.441z M232.924,216.959
        c-3.337-4.172-2.311-13.29-8.42-14.513c-13.917,8.573-10.211,14.031,0.175,23.632c-13.307-5.671-15.836-14.982-21.444,3.641
        c-0.708-2.991-2.681-2.43-5.919,1.685c7.918,1.814,15.797,3.83,23.785,5.331c4.658-0.431,9.272-1.146,13.841-2.147
        c2.917,2.181,6.01,4.065,9.28,5.655c19.846-5.307-13.285-16.173-11.458-23.437c1.487,0.99,2.973,1.981,4.46,2.972
        c-0.821-2.682-1.544-11.077-5.016-10.791C232.446,211.644,232.685,214.302,232.924,216.959
        C232.006,215.812,232.685,214.301,232.924,216.959z M362.87,284.424c-2.434-1.425-4.867-2.849-7.301-4.273
        c2.208-7.555,38.812,3.331,46.623-9.149c-21.595-1.123-40.939-2.389-62.464,0.424c2.511,1.397,3.714,2.067,4.917,2.737
        c-6.154-1.685-12.697-2.594-16.75-8.31c10.702,4.711,21.263,0.874,32.631,0.118c-4.899-2.852-9.798-5.702-14.697-8.554
        c1.45-2.95,14.208,3.93,16.36,5.059c10.97,5.757,17.688-1.159,27.447-4.821c6.773-2.541,16.244-0.754,19.694-9.119
        c6.595,3.682,18.966-1.658,23.454-6.671c-13.176,0.742-4.345-0.421-11.371-5.558c-8.261-6.041-7.837,0.98-17.13,0.396
        c6.134-6.364,6.247-5.077,15.357-4.539c-0.028,0.369-50.799-23.34-58.191-11.405c13.586,2.297,3.495-2.558,16.153-1.492
        c-6.496,7.646-19.136,1.472-27.421,0.44c-16.323-2.03-1.964-12.987-6.149-12.694c1.725-1.197,3.45-2.394,5.175-3.591
        c-9.2-7.517-8.046,12.496-16.932,19.322c-6.744,5.182-22.92-5.503-28.751-8.364c-12.475,2.461-2.601,8.102-8.235,11.167
        c3.812,1.415,7.624,2.831,11.436,4.246c-2.416,0.387-4.833,0.774-7.249,1.161c5.743,6.097,15.998,10.666,18.702,15.857
        c-8.401-0.714-16.802-1.428-25.203-2.142c-0.254,4.497,35.608,3.19,35.475,6.728c-3.813-0.27-7.627-0.539-11.44-0.81
        c3.691,5.148,7.383,10.297,11.074,15.446c-4.2-2.647-6.978-2.376-8.331,0.814c-5.561-13.747-40.184-33.72-51.234-25.755
        c-0.361-0.498,4.017-19.493-7.536-4.341c2.186,3.396,5.021,2.456,8.506-2.821c-7.147,5.696-13.859,5.654-1.097,9.902
        c-2.011,6.601-10.84-7.729-10.407,4.785c0.335,9.722,29.217,14.864,36.345,17.248c12.241,4.093,12.835,7.241,19.711,14.575
        c4.149,4.414,12.845-12.829,18.914-6.224c-5.785,3.751-11.569,7.502-17.354,11.252c18.664,8.521,32.849-6.836,46.467,2.646
        c-4.799-2.395-19.223,2.125-19.502,9.052c-0.312,7.707,22.194,11.282,26.42,12.32c23.826,5.852,46.992-5.555,64.48-21.584
        c-7.373-2.985-26.944-15.423-33.457-9.525C389.723,287.687,373.991,277.712,362.87,284.424
        C360.437,282.999,363.757,283.889,362.87,284.424z M305.149,282.789c-5.646-10.687-21.299-10.035-31.954-12.392
        C277.373,280.376,290.359,285.293,305.149,282.789C301.869,276.581,290.359,285.293,305.149,282.789z M426.052,234.881
        c1.766,4.648,20.726-13.862,19.283-16.028c-10.474,6.843-19.344,4.493-23.601,16.435c4.258-4.976,6.959-5.784,8.104-2.427
        C428.576,233.534,427.313,234.207,426.052,234.881C426.291,235.511,427.313,234.207,426.052,234.881z M212.979,285.285
        c-5.676-0.978-0.528-3.951-1.922-6.771c-9.757,1.021-2.638,22.889,7.768,12.676c-0.036-2.398-1.254-3.024-3.656-1.878
        c0.281-1.294,0.562-2.588,0.842-3.882c-1.394,1.166-2.788,2.333-4.181,3.499C210.369,287.846,210.751,286.631,212.979,285.285
        C207.524,284.346,212.27,286.341,212.979,285.285z M458.495,228.245c-9.387,5.252-9.528,9.417-17.644,16.189
        c4.301-0.448,8.601-0.896,12.901-1.345C449.72,237.337,451.301,232.389,458.495,228.245
        C454.378,230.549,456.166,231.322,458.495,228.245z M363.654,200.199c-2.553,1.647-0.948,3.418,4.813,5.312
        c-1.504-6.136-7.544-19.755-16.349-14.414c2.502,0.197,5.003,0.396,7.505,0.593C353.741,195.949,355.085,198.785,363.654,200.199
        C363.438,200.368,361.256,198.9,363.654,200.199z M481.947,215.146c-0.483-3.163-31.962,0.792-36.429,1.122
        C457.949,219.688,469.16,216.275,481.947,215.146C481.868,214.629,477.501,215.539,481.947,215.146z M440.153,198.782
        c-4.965-7.846-9.61-2.172-17.982-0.245C428.087,197.687,433.969,203.378,440.153,198.782
        C438.937,196.859,433.969,203.378,440.153,198.782z M314.777,206.044c-3.789,1.197-7.579,2.396-11.368,3.593
        c7.412,9.517,19.017-7.878,13.889-9.723C316.458,201.957,315.617,204.001,314.777,206.044
        C310.896,207.271,315.673,203.864,314.777,206.044z M246.864,279.235c-5.091-5.074-15.513,12.532-13.989,13.998
        C237.538,288.567,242.201,283.901,246.864,279.235C246.13,278.504,242.201,283.901,246.864,279.235z M221.434,252.875
        c0.001,0.44-19.403-6.268-19.672,0C208.319,252.875,214.876,252.875,221.434,252.875
        C221.433,252.5,214.876,252.875,221.434,252.875z M287.687,160.462c-0.233,3.688,18.698,3.487,19.376,0
        C300.604,160.462,294.146,160.462,287.687,160.462C287.645,161.125,293.988,160.462,287.687,160.462z M128.785,321.328
        c-5.154-2.529-9.663,7.615-5.332,10.866C127.996,328.84,129.497,327.01,128.785,321.328
        C128.287,321.084,129.009,323.119,128.785,321.328z M433.92,221.927c1.401,2.474,3.258,1.937,5.57-1.611
        c-2.774-4.012-10.248-5.27-14.374-2.659C435.669,215.907,438.604,217.33,433.92,221.927
        C434.273,222.342,434.619,220.991,433.92,221.927z M174.543,286.494c0.548-2.358,1.096-4.717,1.644-7.075
        C165.818,283.576,164.491,283.219,174.543,286.494C174.956,284.718,172.358,285.782,174.543,286.494z M201.473,254.522
        c-3.215,4.515,4.076,8.942,7.801,9.96C210.438,261.888,203.153,256.289,201.473,254.522
        C196.614,261.344,204.48,257.685,201.473,254.522z M308.33,206.388c2.18-2.273,4.536-4.732,7.51-7.834
        c-4.061,1.118-8.121,2.237-12.182,3.355C305.216,203.402,306.772,204.895,308.33,206.388
        C310.51,204.114,307.197,205.302,308.33,206.388z M232.931,159.739c-0.531-7.349-7.106-3.306-8.616,0.706
        C227.416,160.191,230.173,159.965,232.931,159.739C232.886,159.124,230.173,159.965,232.931,159.739z M463.402,243.962
        c-3.624,2.225-5.763,1.351-6.414-2.622C453.736,250.12,459.875,248.775,463.402,243.962
        C461.89,244.258,461.872,246.05,463.402,243.962z M437.041,241.913c1.373-2.256,2.469-4.057,4.068-6.686
        c-3.655,1.706-6.669,3.112-10.827,5.053C433.697,241.105,435.608,241.566,437.041,241.913
        C438.414,239.657,435.608,241.566,437.041,241.913z M266.922,230.933c1.163-3.674,2.325-7.347,3.488-11.021
        C266.66,220.72,261.091,226.012,266.922,230.933C268.156,227.032,262.07,226.838,266.922,230.933z M344.553,126.463
        c-1.508-1.332-11.277-4.936-11.249,0C337.054,126.463,340.803,126.463,344.553,126.463
        C339.883,122.338,339.83,126.463,344.553,126.463z M256.275,201.348c2.178,2.694,4.354,5.389,6.582,8.146
        C265.041,206.682,262.989,203.923,256.275,201.348z M330.211,221.979c1.502-4.909-1.925-6.183-10.281-3.819
        C318.531,222.932,321.958,224.205,330.211,221.979C330.323,221.237,326.684,221.379,330.211,221.979z M216.823,268.833
        c-4.744-5.688-4.994-5.686-7.437-0.877C211.921,268.255,214.372,268.544,216.823,268.833z M358.121,211.938
        c-0.341,1.838-0.682,3.676-1.022,5.514c3.366-1.366,6.733-2.732,10.1-4.099C363.339,212.752,360.953,212.38,358.121,211.938
        C357.733,214.025,360.953,212.38,358.121,211.938z M297.616,194.67c4.353,2.789,6.619,2.223,6.8-1.699
        C300.738,190.554,298.472,191.12,297.616,194.67C299.688,195.026,298.24,191.471,297.616,194.67z M294.597,202.165
        c-2.384,3.036-0.184,4.449,6.601,4.238C299.031,190.701,301.019,207.446,294.597,202.165
        C294.323,202.636,295.312,202.753,294.597,202.165z M314.348,214.626c1.901,1.549,4.297-1.337,2.5-2.844
        C316.015,212.73,315.181,213.678,314.348,214.626C314.653,214.875,315.181,213.678,314.348,214.626z"/>
    <path fill-rule="evenodd" clip-rule="evenodd" d="M206.221,30.961c0.983,1.984,1.965,3.967,2.948,5.951
        c1.294-0.927,2.589-1.854,3.884-2.781c-0.275,1.223,1.9,16.709,1.127,16.254c0.638-6.845,2.653-9.359,6.046-7.541
        c-2.181,2.361-2.352,4.23-0.515,5.608c3.222-3.633,6.444-7.266,9.667-10.898c-2.955,0.565-4.082-0.078-3.38-1.929
        c22.595,2.949,4.314,19.271-1.833,30.116c2.812,1.416,10.084-6.119,12.344-7.849c-0.572,2.176-1.144,4.353-1.716,6.529
        c2.99-1.385,5.981-2.77,8.971-4.155c-3.059,1.086-4.749,0.614-5.069-1.416c9.332-2.595,5.009,4.309,13.068-4.554
        c3.835,11.882,25.121-4.753,27.323-12.374c-3.423,1.584-9.038,0.315-13.369-2.163c0.105-0.724,16.963-3.833,21.528-6.499
        c-1.87-0.936-3.739-1.872-5.609-2.808c2.642,0.242,4.017,0.368,6.422,0.588c-1.64-1.542-2.525-2.376-4.1-3.857
        c3.756,2.842,6.407,2.906,7.952,0.189c-1.457-1.297-2.913-2.595-4.37-3.893c1.233,0.095,2.699,0.208,5.479,0.424
        c-5.052-5.364-11.036-9.095-18.702-8.13c15.163-7.001,17.449,4.096,33.861,1.909c-2.092,0.336-4.183,0.672-6.519,1.048
        c4.826,5.759,15.605,7.336,22.608,12.838c-3.894,0.351-7.786,0.702-11.68,1.054c-0.623,2.486,0.782,4.048,4.214,4.688
        c-1.477,1.218-2.954,2.437-4.431,3.655c5.893,2.152,8.881,0.183,8.963-5.908c1.997,0.682-1.141,15.517,11.753,7.736
        c4.57,10.251,1.923,11.71,14.651,9.967c21.513-2.946,4.555,1.74,10.416,6.832c3.302-1.89,10.953-8.648,14.423-6.259
        c-1.419,1.201-2.839,2.402-4.258,3.603c4.804-0.352,9.607-0.703,14.411-1.054c0.7,5.283-5.919,12.835-11.43,12.568
        c2.36-1.756,7.014-1.284,4.281-5.501c-10.259,6.743-18.026,8.091-29.683,11.06c4.852,5.73,10.438,1.82,14.207,2.966
        c-6.164,2.54-28.18,5.312-28.652,6.99c-1.528,5.431,15.996,3.966,15.776,0.978c-2.223,0.245-4.446,0.489-6.669,0.733
        c7.201-3.609,21.928-3.52,27.646-8.541c-0.695-0.19-1.39-0.381-2.511-0.688c2.091-0.463,4.182-0.926,6.272-1.389
        c0,14.161-21.001,0.28-21.304,8.59c5.136,1.32,10.153,0.573,15.052-2.241c-7.254,11.088-29.792,5.972-41.004,11.071
        c1.072,4.518,12.064,2.123,15.919,2.123c0.176,1.362-13.64,9.086-15.03,4.021c6.105,1.785,8.897,0.926,8.376-2.577
        c-7.963,0.368-58.223,0.505-56.931,10.51c4.134-0.748,34.568-7.468,34.981-4.853c-6.791-2.493-9.928-1.646-9.41,2.539
        c1.87,0.098,20.152-0.014,20.11,2.062c-9.704,0-19.408,0-29.112,0c0.021,10.239,23.172-7.117,23.506,2.522
        c-1.707,0.087-3.413,0.175-5.12,0.263c6.866,2.987,22.498-2.021,29.763-3.686c-3.454,1.737-6.909,3.474-10.363,5.211
        c9.523,5.592-14.878,5.874-18.521,5.593c-2.042,6.593-23.125,0.532-29.923,0.532c7.759,0.943,9.875-1.422,6.347-7.098
        c-2.212,6.032-6.665,7.722-13.36,5.069c2.667-1.027,5.727-2.206,9.449-3.64c-5.049-2.845-10.449-3.95-16.202-3.314
        c0.308-6.584,0.429-27.295-12.158-16.729c2.301-12.043,22.545-23.733,31.78-31.15c-11.227-1.442-38.971,18.909-31.675,27.104
        c-9.381-8.287-30.725,20.309-34.436,27.029c-3.366,6.094-11.784,11.355-13.086,18.088c-1.027,5.312-1.84,24.858-5.918,28.021
        c0.617-6.214,1.233-12.428,1.85-18.642c-2.347-1.191-3.576-0.214-3.688,2.932c-7.928-11.06-3.577,6.005-7.931,8.716
        c0.548-2.378,0.303-4.675-0.734-6.89c-0.252,4.101-1.82,5.715-4.704,4.843c3.732-4.191-0.084-4.754-2.923-6.793
        c10.299-0.607,7.081-2.115,6.37-10.998c-11.413,12.759-20.402,33.323-25.227,51.666c2.714,0.287,5.429,0.574,8.143,0.86
        c-2.749,1.759,6.2,6.928,7.045,7.944c-13.453-6.105-14.487-6.342-18.343-3.228c1.723,0.718,3.508,0.981,5.355,0.79
        c-4.391,6.041,10.316,13.181,15.269,10.269c2.896,4.422-18.26,15.419-21.338,18.438c-2.075-12.294-7.905,9.883-9.711-1.761
        c-0.835-5.387-5.521-3.461-9.312-3.461c1.409-2.585-2.068-21.114-6.084-23.754c4.053-8.058-1.191-7.094-0.721-15.07
        c0.781-13.241,2.423-9.139-6.874-13.629c3.496-0.221,6.992-0.441,11.403-0.72c-3.444-0.734-4.683-2.05-3.718-3.949
        c1.976,1.625,3.427,1.607,4.352-0.053c-1.693-1.467-3.386-2.934-5.08-4.4c3.308,2.598,5.214,2.678,5.717,0.242
        c-1.949-0.9-3.897-1.799-5.846-2.699c2.406-0.545,4.812-1.09,7.219-1.635c-0.711-3.564-11.257-4.762-14.326-5.64
        c2.1-0.183,4.2-0.366,6.3-0.549c-0.01-4.37-16.184-3.218-18.997,0.549c3.077-10.49-1.092-9.248-7.985-3.365
        c0.48-7.742-11.133-14.412-14.162-5.739c-1.143-1.523-2.285-3.046-3.428-4.569c2.171,4.18,1.858,6.575-0.937,7.184
        c-1.002-1.752-2.005-3.504-3.007-5.256c-0.592,2.344-0.951,3.765-1.486,5.884c-0.914-2.558-1.828-5.117-2.742-7.675
        c-3.565,2.533-8.257,6.734-4.827,1.384c-3.686-1.773-6.493-0.678-8.421,3.284c-4.894-2.698-5.569-5.359-2.026-7.983
        c-7.023-0.785-19.366,14.188-26.209,4.56c-5.717-8.042,4.538-7.178-2.71-18.936c2.393,3.888-14.616-7.067,0.643,6.104
        c-13.448,6.9,0.784-11.959,2.193-13.725c-0.172,1.566-0.344,3.131-0.517,4.697c6.894-2.41,10.62-0.641,11.178,5.309
        c9.629-3.46,10.727,3.421,17.47-0.318c-2.219-2.003-2.613-3.727-1.182-5.172c6.657,5.642,5.841,21.8,14.326,11.216
        c-3.906,1.513-6.157-0.096-6.752-4.826c12.996,3.514-1.758-10.674-3.176-11.483c5.541-0.142,10.353,3.633,14.337-1.946
        c-4.025-1.103-20.181-5.524-20.398-6.959c15.273-1.544-9.67-9.27-12.303-10.793c6.506-4.739,6.813-3.85,13.756-0.393
        c3.876-6.091-9.438-7.239-12.347-7.768c0.317-4.285,3.629-4.267,9.935,0.053c1.801-6.617-13.263-1.426-3.17-5.976
        c-4.233-1.683-10.484,0.427-12.118-5.581c2.086,1.065,4.172,2.13,6.258,3.195c3.344-7.057,14.408-0.51,25.143,0.192
        c-2.348-2.161-2.806-4.253-1.374-6.275c9.929,5.039,11.879,2.361,22.923,1.425c-5.535,0.725-7.359,2.389-5.473,4.992
        c2.275-3.171,4.116-3.685,5.523-1.541c-5.223,2.979-5.308,5.329-0.253,7.049c1.519-0.946,1.29-2.269-0.689-3.966
        c1.748,0.812,3.496,1.625,5.243,2.438c-1.791,2.427-4.385,13.269-4.777,12.173c4.916-1.59,9.831-3.179,14.747-4.768
        c2.167,9.608-15.208,3.036,2.637,17.631c6.798,5.564,13.215-1.7,20.502,7.233c6.472-9.344,5.789-6.102,14.439-0.993
        c-4.322-16.859,1.306-12.64,12.371-24.146c2.998-3.117,6.479,10.319,6.408,11.145c-1.583,18.523-14.316,33.403-14.305,52.718
        c6.927-8.414,9.108-18.26,14.6-26.695c6.787-10.425,17.939-12.418,20.979-26.288c0.501-0.606-7.866,6.366-6.043,2.181
        c3.652-8.373,31.713-30.692,6.963-33.558c2.377-1.581,4.755-3.162,7.132-4.742c-0.226,1.257-0.453,2.514-0.679,3.771
        c3.998-0.409,5.633-3.137,4.592-7.477c-2.648,5.086-4.89,5.182-6.725,0.287c-0.807,1.502-1.614,3.005-2.42,4.508
        c-3.346-4.964-2.534-7.862,2.436-8.694c-0.599,2.254-0.028,3.523,1.713,3.81c1.475-2.422,8.536-10.394,5.82-12.624
        c-3.54,4.3-12.605,5.33-18.709,3.658c0.318,1.578,0.635,3.155,0.953,4.732c-1.077-1.007-2.154-2.014-3.231-3.021
        c2.577-1.886,5.503-2.741,8.779-2.567c0.565-0.248,10.91-3.831,9.984-3.049C191.89,13.435,209.3,43.848,206.221,30.961z
         M237.501,75.074c-1.625,2.11-9.912,9.913-7.498,12.205c4.431-4.486,8.862-8.973,13.293-13.459
        c-3.669,0.42-22.484,1.386-18.988,8.377C228.706,79.823,233.104,77.449,237.501,75.074
        C234.636,78.795,233.104,77.449,237.501,75.074z M228.783,98.408c-2.395-4.709-7.093,7.051-9.944,2.941
        c10.668-7.708-2.547-3.81-5.764-0.197C220.09,107.155,224.538,105.705,228.783,98.408
        C228.607,98.062,227.626,100.396,228.783,98.408z M310.097,32.585c-3.048-2.683-14.796,12.045-17.152,14.378
        c0.035,0.047,7.215,2.411,8.439,2.792C299.691,41.619,307.406,38.877,310.097,32.585C309.633,32.177,307.561,38.516,310.097,32.585
        z M280.678,98.218c0.726,3.864,27.473,0.284,27.245-2.315C298.841,96.674,289.76,97.446,280.678,98.218
        C280.804,98.889,289.759,97.446,280.678,98.218z M177.267,205.556c-4.968-3.786-9.192-7.005-14.243-10.854
        c-0.117,10.119,10.147,4.984,7.025,12.886C172.455,206.91,174.861,206.232,177.267,205.556
        C172.299,201.77,174.47,206.343,177.267,205.556z M293.411,63.436c-1.57,6.26,16.879-0.8,18.304-2.045
        C305.474,62.088,299.442,62.762,293.411,63.436C293.343,63.708,299.442,62.762,293.411,63.436z M126.086,138.871
        c7.557-1.496,9.923-3.337,16.542,1.062C143.314,131.424,128.371,133.343,126.086,138.871
        C130.309,138.035,128.457,133.134,126.086,138.871z M320.209,45.381c-2.478,5.621-4.428,10.044-6.377,14.467
        C317.583,56.155,322.406,52.964,320.209,45.381z M123.452,135.604c4.177-1.591,8.354-3.183,13.504-5.144
        C130.226,127.689,127.025,132.192,123.452,135.604z M80.831,91.061c3.381,2.171,2.545,4.393-2.509,6.665
        c2.955-0.649,5.384-2.196,7.29-4.641C84.018,92.41,82.425,91.735,80.831,91.061C81.462,91.706,82.287,91.678,80.831,91.061z
         M244.781,83.523c5.76,2.934,7-2.336,10.946-5.254c-2.034,0-4.068,0-6.102,0C251.383,82.358,249.768,84.109,244.781,83.523
        C250.541,86.457,246.461,83.096,244.781,83.523z M243.417,76.51c3.034,2.825,7.822-2.824,6.396-6.265
        c-4.741,0.597-9.537,0.431-4.123,3.129C244.933,74.419,244.175,75.464,243.417,76.51C243.673,76.748,244.168,75.474,243.417,76.51z
         M150.817,119.486c-4.963,0.565-10.843,8.143-3.683,9.982C148.362,126.141,149.59,122.814,150.817,119.486
        C148.142,119.791,149.382,123.377,150.817,119.486z M302.833,51.583c3.095-2.531,6.19-5.062,9.285-7.594
        c-3.457-3.716-1.865,5.224-6.12-0.895C304.943,45.924,303.888,48.753,302.833,51.583C306.343,48.713,303.972,48.53,302.833,51.583z
         M287.356,49.72c-2.934-3.626-5.964-1.74-9.092,5.659C280.96,59.15,283.99,57.264,287.356,49.72
        C286.92,49.304,284.699,52.015,287.356,49.72z M328.809,48.675c-4.744-2.845-9.177,5.765-4.499,8.475
        C325.81,54.325,327.309,51.5,328.809,48.675C328.216,48.319,327.309,51.5,328.809,48.675z M287.741,37.92
        c-0.1,1.467-0.2,2.935-0.3,4.402c3.553,0.352,4.449-2.419,2.689-8.314c-2.406,2.113-7.291,2.439-5.18,8.005
        C285.98,40.504,286.656,39.512,287.741,37.92C287.598,40.028,286.656,39.512,287.741,37.92z"/>
    <path fill-rule="evenodd" clip-rule="evenodd" d="M102.935,315.428l0.103,0.015c-3.104-1.516-6.201-2.923-9.072,0.743
        c2.014,0.713,4.027,1.426,6.041,2.139c0.145-1.155-3.398,5.771-1.37,4.538c-3.674-6.749-7.761-7.648-12.261-2.699
        c1.421,3.786,4.054,4.998,7.9,3.636c-8.606,5.784-11.07-4.039-8.845-10.796c-12.078-3.456-21.004,3.564-27.259,14.638
        c0-8.067-14.547,7.889-25.326,2.811c-0.013,2.709,1.525,4.342,4.613,4.898c-5.072,0.998-8.815-0.878-11.229-5.628
        c-0.875,5.308-1.75,10.615-2.625,15.923c-2.321-8.915,8.519-30.732,1.692-35.684c10.906,1.853,3.269-11.429-5.475-13.062
        c-0.728-2.941,7.436-0.442,1.02-4.245c3.87,1.246,7.054,0.488,9.553-2.274c-7.809-4.209-6.033-0.34-10.415-11.555
        c6.407,1.629,7.45,4.111,3.128,7.446c14.556,1.459-0.326-0.391,9.482-3.972c-2.33-0.548-4.66-1.095-6.99-1.643
        c0.028-1.439,0.208-3.658,3.37-3.896c-0.843-1.281-1.685-2.563-2.528-3.845c1.437,0.627,2.873,1.255,4.31,1.882
        c-5.8-4.462-5.184-11.62-5.886-18.02c6.697,2.365,3.279,11.086,9.776,13.637c1.169-4.752,2.338-9.503,3.506-14.255
        c4.078,2.61,8.156,5.221,12.233,7.831c2.729-2.586,1.443-4.708-3.857-6.366c6.479-1.741,14.586-7.098,20.406-5.504
        c0.742-4.568,1.484-9.138,2.227-13.706c5.539,7.889,16.773,2.651,25.388,9.983c-5.103-3.166-7.862-3.056-8.276,0.332
        c2.781,0.646,5.562,1.29,8.343,1.936c-3.708,0-6.382,0-8.823,0c10.721,6.793,10.783-4.311,19.958,0.79
        c-4.215-1.218-6.902-0.49-8.061,2.183c11.911,4.555,4.411,4.79,17.578,2.232c0.476,3.67-16.039,3.495-19.384,2.921
        c-13.461-2.658-13.244,5.076-25.264,4.573c3.93,13.028,24.962,31.193,33.899,42.235c-1.72-0.516-3.44-1.031-5.16-1.547
        C101.534,307.585,102.727,311.376,102.935,315.428z M55.084,257.855c1.496,4.17,9.935,7.713,14.469,6.024
        C66.995,257.908,61.142,255.783,55.084,257.855C55.229,258.26,56.254,257.455,55.084,257.855z M76.046,253.788
        c-2.099,7.388-11.36-1.46-16.645-0.241c-0.463,3.618,2.083,4.624,7.64,3.02c-2.419-0.376-3.341,0.351-2.765,2.18
        C75.604,258.242,73.698,260.571,76.046,253.788C75.244,256.611,75.526,255.289,76.046,253.788z M42.102,262.057
        c1.863,5.527,3.255,6.004,8.486,3.399C47.168,264.087,44.635,263.072,42.102,262.057z"/>
    <path fill-rule="evenodd" clip-rule="evenodd" d="M447.905,99.389c-5.022,3.391-12.041,4.858-17.71,7.282
        c1.463-2.503,2.934-5.017,4.45-7.61c-5.696,0.383-8.243,3.944-9.953,10.081c1.868-0.874,3.736-1.748,5.604-2.621
        c-3.695,8.626-0.882,11.396,8.44,8.307c-0.522,1.294-3.292,10.567-6.757,7.401c0.079,0.072-4.7-9.528-4.465-12.212
        c-4.073,1.248-6.173,4.015-6.299,8.303c-4.623-6.531-3.63-10.911,2.98-13.14c-6.067-8.328-5.76-8.389-15.721-5.621
        c7.431,2.629,7.089,5.526-1.025,8.691c0.451-2.184,0.903-4.369,1.354-6.553c-1.66,0.748-3.32,1.496-4.98,2.244
        c2.122-1.874,4.243-3.747,6.365-5.62c-1.667-3.502-4.304-2.897-7.911,1.813c-2.915-4.266,0.25-6.502,9.497-6.709
        c-0.483,0.731-0.977,1.477-1.81,2.736c6.682-0.188,8.156-6.003,12.854-9.17c0.682,6.062,3.076,6.85,7.182,2.364
        c-5.301,0.514-5.982-1.284-2.044-5.394c-7.158,1.91-10.622,5.078-16.316,9.634c2.452-3.115,4.904-6.231,7.824-9.943
        c-7.703,2.885-9.896,11.867-16.978,7.076c2.774-0.611,3.36-1.584,1.759-2.92c-2.472,1.677-4.942,3.354-7.414,5.03
        c0.915-2.222,1.371-3.33,2.228-5.409c-2.018,1.102-4.034,2.205-6.052,3.307c0.85-2.881,1.698-5.762,2.548-8.644
        c-3.145,2.459-6.484,5.07-10.527,8.233c1.008-2.834,2.016-5.669,3.023-8.504c-3.743,2.462-5.729,7.119-11.021,3.982
        c-0.053,1.98,1.053,2.914,3.317,2.801c-3.493,3.54-6.396,4.178-8.712,1.914c13.266-6.369-7.061,0.286-8.024-4.82
        c3.531-0.631,11.394-4.279,12.627,0.11c4.031-1.412,4.018-4.024-0.041-7.837c8.938-1.292,13.044-1.646,21.726-6.716
        c-1.448-3.263-4.791,1.02-6.182-2.059c5.66-3.186,9.417-9.54,10.94-0.674c1.484-1.698,2.97-3.396,4.454-5.094
        c-0.382,2.431-0.764,4.863-1.146,7.294c1.516,0,19.464-0.886,19.464,0.887c-11.038,0-21.991-1.152-30.829,5.808
        c3.652,4.886,10.857-10.594,14.84-0.688c-5.009-0.372-7.296,1.966-6.863,7.014c13.048-8.135,16.37-8.05,30.535-4.453
        c1.229-2.093,0.116-3.345-3.339-3.757c2.105,0,4.212,0,6.317,0c-0.058,7.75-2.867,9.833-4.688,18.221
        c3.047,0.493,5.06-1.39,6.038-5.649c-1.235,2.727-2.471,5.455-3.706,8.182c1.499-0.483,10.204-6.093,8.888-8.149
        c4.398,6.879-6.684,8.956,6.559,6.805c-0.143-2.863-3.232,0.103-2.37-3.358C453.001,93.178,458.287,92.511,447.905,99.389z
         M404.353,86.361c6.024,1.349,13.454-3.981,13.289-8.433C413.533,80.536,409.299,83.223,404.353,86.361z"/>
    <path fill-rule="evenodd" clip-rule="evenodd" d="M440.991,167.029c4.147-1.224,6.446-0.464,6.897,2.277
        c-13.531,2.302-26.302,1.503-39.971,1.895c-8.364,0.24-44.331,6.613-43.098-2.488c-1.807,2.607-3.466,3.167-4.978,1.682
        c2.099-2.958,4.841-3.914,8.229-2.866c-1.926-3.223-4.527-5.339-7.805-6.348c1.611-2.646,6.174-14.476,9.686-12.328
        c-8.81,11.797-5.114,5.447,1.264,12.942c3.334-1.917,2.357-4.663-2.93-8.239c4.737,5.118,8.314,4.477,10.731-1.926
        c-12.993,1.335,0.49-0.133-3.153-6.378c-1.216,0.945-2.431,1.891-3.646,2.836c2.934-4.999,1.877-6.585-3.169-4.76
        c0.386-4.535,10.609-2.105,8.888,6.132c1.093-1.241,2.187-2.482,3.279-3.724c2.979,3.559,2.562,6.275-1.253,8.15
        c4.352,1.285,5.954,4.179,4.808,8.683c-0.144-0.109-8.682-7.559-6.949-6.726c-1.918,3.729-8.95,10.404-2.634,11.528
        c-1.407,0.63-2.813,1.26-4.221,1.891c2.887,8.963,7.96-6.882,8.555-7.354c3.272,14.238,0.673,5.086,7.449,8.173
        c6.281-0.926,12.562-1.852,18.843-2.777c-0.604-3.828-6.775,2.607,2.243-4.525c-1.194,1.228-0.442,2.662,2.256,4.304
        c2.163-3.848,4.326-7.696,6.489-11.544c-1.741,19.042,4.322,2.693,7.982,13.538c3.88-2.155,6.309-5.546,7.287-10.172
        c-1.102,0.649-2.204,1.297-3.306,1.946c-1.943-3.599,4.197-5.816,6.741-3.344c-2.05,3.8-4.101,7.6-6.151,11.399
        c9.713,4.155,3.603-1.732,11.781-1.75C441.135,167.153,440.991,167.029,440.991,167.029z"/>
    <path fill-rule="evenodd" clip-rule="evenodd" d="M68.412,213.618c3.232-4.841,10.528-14.229,3.71-17.711
        c5.254,6.156,10.007,12.297,15.605,1.853c4.208,11.582,32.576,13.157,38.971,4.152c-0.423,6.352,3.229,4.437,6.167,14.1
        c-13.919,0-25.946,0.681-38.437-6.623c-2.596,3.195-1.888,6.824,2.124,10.889c-10.032-2.566-2.484-18.663-18.908-12.416
        c9.326,1.456,11.555,10.384,16.359,16.918c-2.441-0.766-14.185-2.226-12.629-5.4c4.754,2.264,7.111,1.766,7.07-1.494
        C81.767,216.463,75.089,215.041,68.412,213.618C70.881,209.921,74.687,214.955,68.412,213.618z M80.278,210.245
        c-3.476-1.028-6.375-1.975-8.229,1.946c2.642,0.939,5.283,1.88,7.925,2.819C80.075,213.422,80.176,211.834,80.278,210.245
        C76.802,209.217,80.17,211.934,80.278,210.245z"/>
    <path fill-rule="evenodd" clip-rule="evenodd" d="M382.244,77.1c-4.017-7.847-30.852,1.118-31.342-2.485
        c7.898-0.942,17.913-0.178,25.241-3.365c9.283-4.037,8.562-15.402,18.513-8.021c-2.488,6.892-6.348,8.281-11.578,4.169
        C380.707,48.054,383.15,83.051,382.244,77.1z"/>
    <path fill-rule="evenodd" clip-rule="evenodd" d="M477.939,132.941c-8.396,2.435-15.253,13.135-20.479,19.913
        c-0.215-4.709-2.343-5.856-6.386-3.44c2.712-1.783,5.322-2.473,7.231-4.041c-3.347-3.255,0.285-7.599,1.772-11.555
        c-2.782,1.672-4.519,2.714-6.078,3.651c0.523-3.834,2.785-4.793,6.784-2.876c-0.047,1.314-0.376,2.554-0.987,3.718
        c7.088,3.314,6.356-1.937,11.571-3.831c-13.002-2.981-0.299-5.46-0.132-5.303C463.236,132.5,474.935,132.948,477.939,132.941z"/>
    <path fill-rule="evenodd" clip-rule="evenodd" d="M453.336,82.539c4.729,0.375,6.292,1.705,4.691,3.99
        c-4.529-4.219-9.381-4.366-14.555-0.439c-1.621-4.049-3.53-10.783,2.397-12.549c-2.039,8.015,10.741,3.407,13.11,0.492
        C457.099,76.869,455.218,79.704,453.336,82.539C455.729,83.89,455.324,79.542,453.336,82.539z"/>
    <path fill-rule="evenodd" clip-rule="evenodd" d="M455.778,321.121c-6.387,7.345-41.384-0.568-47.332-7.979
        c8.587,2.347,20.344,8.001,29.425,7.348c5.633-0.405,12.45-6.412,18.199-7.877c-3.126,1.726-14.346,5.482-13.563,9.564
        C446.931,321.825,451.354,321.473,455.778,321.121C455.681,321.233,451.769,321.44,455.778,321.121z"/>
    <path fill-rule="evenodd" clip-rule="evenodd" d="M408.057,162.779c-6.345-1.801-9.438,7.403-12.402,4.487
        c4.058-8.375,9.456-13.077,17.416-18.934c7.575,9.69-2.804,10.593-8.059,9.929C405.766,162.803,406.781,164.309,408.057,162.779z"
        />
    <path fill-rule="evenodd" clip-rule="evenodd" d="M95.882,258.792c6.338,1.087-1.919,3.891,7.748,4.821
        c-2.436,7.119-5.027,8.989-7.775,5.609c6.517-7.195-1.749-4.343-7.634-4.914c1.004,0.742,2.007,1.483,3.011,2.226
        c-2.59,0.507-5.179,1.015-7.769,1.521c2.26-2.501-4.011-10.129,5.554-7.618c-7.209,2.739-0.77,2.493,5.696,3.348
        C90.845,260.703,91.234,259.039,95.882,258.792C96.633,258.921,94.683,259.199,95.882,258.792z"/>
    <path fill-rule="evenodd" clip-rule="evenodd" d="M431.379,130.781c-8.317,0.748,3.686,5.714-0.467,10.541
        c-2.205-5.268-4.532-5.354-6.979-0.26c1.145-9.017-12.104-5.922-17.44-4.715C411.467,134.344,428.459,128.766,431.379,130.781
        C427.88,131.096,427.083,127.816,431.379,130.781z"/>
    <path fill-rule="evenodd" clip-rule="evenodd" d="M276.682,311.137c-1.695-2.684-0.269-5.04,4.278-7.068
        c0.431,6.36,4.467,4.453,8.584,4.95C286.437,318.399,286.382,317.081,276.682,311.137
        C276.518,310.803,279.633,312.945,276.682,311.137z"/>
    <path fill-rule="evenodd" clip-rule="evenodd" d="M281.835,130.817c4.196,1.957,5.571,5.162,4.125,9.615
        c-4.567-0.383-9.134-0.766-13.701-1.15c0.952-3.113,1.903-6.225,2.855-9.338c-0.191,1.872-0.384,3.744-0.575,5.616
        c5.079-5.75,4.556,1.714,9.176,1.283C283.088,134.835,282.462,132.826,281.835,130.817
        C283.269,132.121,282.431,132.727,281.835,130.817z"/>
    <path fill-rule="evenodd" clip-rule="evenodd" d="M387.127,169.936c-8.555-0.975,3.851-2.342-1.935-5.27
        c2.604-5.595,7.895-2.832,12.889-2.61c-3.264,1.922-9.967,4.169-11.11,8.026L387.127,169.936z"/>
    <path fill-rule="evenodd" clip-rule="evenodd" d="M474.249,105.045c3.932-3.748,4.889-11.223,3.923-16.253
        C487.346,100.008,474.053,104.778,474.249,105.045C477.582,101.867,474.498,105.385,474.249,105.045z"/>
    <path fill-rule="evenodd" clip-rule="evenodd" d="M194.074,152.906c-0.687,1.116-1.373,2.231-2.859,4.646
        c4.8-1.462,8.06-4.51,9.778-9.146c0,16.526,1.068,6.951-3.43,5.899c-2.971,9.9-5.761,8.357-8.34-0.029
        C190.84,153.82,192.457,153.363,194.074,152.906C193.387,154.022,192.048,153.479,194.074,152.906z"/>
    <path fill-rule="evenodd" clip-rule="evenodd" d="M445.543,151.939c0.478,2.201,0.954,4.402,1.432,6.604
        c5.194-3.593,7.814-2.688,7.859,2.714c-4.523-3.754-15.713,1.869-13.697,5.9C440.421,161.933,441.888,154.276,445.543,151.939
        C445.995,154.025,444.263,152.758,445.543,151.939z"/>
    <path fill-rule="evenodd" clip-rule="evenodd" d="M154.269,312.369c-0.343-2.408-0.686-4.815-1.028-7.224
        c4.243,2.812,8.486,5.626,12.729,8.438c-1.492,5.593-3.447,7.347-5.867,5.261c1.926-3.504-0.949-10.695-5.962-6.623
        C154.149,312.231,154.269,312.369,154.269,312.369z"/>
    <path fill-rule="evenodd" clip-rule="evenodd" d="M473.91,114.055c10.287,0.179,12.055-2.22,5.304-7.196
        c2.798-3.095,4.976-1.114,6.534,5.944c-8.259-0.354-9.693,7.684-17.531,7.568C474.076,113.88,475.974,111.775,473.91,114.055z"/>
    <path fill-rule="evenodd" clip-rule="evenodd" d="M315.169,145.135c3.567-4.484,20.188-9.254,22.466-5.781
        C329.81,141.367,321.91,143.399,315.169,145.135z"/>
    <path fill-rule="evenodd" clip-rule="evenodd" d="M477.821,133.059c3.467,2.802,6.336,2.955,8.607,0.46
        c-1.028,9.655-11.681,8.754-10.186,3.072c3.08-0.773,5.151,6.302,7.449,0.566C481.508,132.646,479.551,131.28,477.821,133.059z"/>
    <path fill-rule="evenodd" clip-rule="evenodd" d="M290.992,147.757c1.872,1.843,8.41,7.396,5.613,0.417
        c1.928,0.331,3.855,0.662,5.783,0.993C297.677,159.485,288.678,150.671,290.992,147.757
        C292.088,148.836,290.706,148.117,290.992,147.757z"/>
    <path fill-rule="evenodd" clip-rule="evenodd" d="M448.762,113.449c7.982-11.011,6.506-3.46,12.326-8.882
        C463.225,107.711,451.04,112.21,448.762,113.449C451.088,110.24,451.066,112.196,448.762,113.449z"/>
    <path fill-rule="evenodd" clip-rule="evenodd" d="M474.031,113.921c-4.974,0.585-9.946,1.17-14.92,1.755
        c2.453-3.496,4.907-6.992,7.36-10.487C469.588,107.063,457.036,117.688,474.031,113.921z"/>
    <path fill-rule="evenodd" clip-rule="evenodd" d="M447.884,99.388c1.249,0.878,2.498,1.756,3.747,2.635
        c-7.036-0.059-8.043,9.367-15.98,3.404C441.999,104.19,445.497,105.088,447.884,99.388z"/>
    <path fill-rule="evenodd" clip-rule="evenodd" d="M485.942,112.627c2.343,1.252,7.321,0.462,5.493,4.057
        c-1.468-0.928-2.937-1.856-4.404-2.784c3.864,4.351-1.63,9.209-5.771,5.843c0.696,0.379,1.392,0.758,2.789,1.518
        c-3.037,0.206-5.297,0.358-8.518,0.576C478.98,118.742,482.451,115.673,485.942,112.627z"/>
    <path fill-rule="evenodd" clip-rule="evenodd" d="M246.872,142.975c6.678-3.111,14.302,1.067,21.084,2.856
        c-0.679,2.796-18.812-2.485-21.208-2.979C246.743,142.85,246.872,142.975,246.872,142.975z"/>
    <path fill-rule="evenodd" clip-rule="evenodd" d="M276.637,317.997c3.411-2.356,4.673-1.455,5.244,1.771
        c-7.404,1.483-6.567,3.977-14.525,0.921C270.35,319.82,273.493,318.909,276.637,317.997z"/>
    <path fill-rule="evenodd" clip-rule="evenodd" d="M492.562,263.775c5.854-2.98,10.899-5.549,15.922-8.106
        C507.758,259.045,499.488,263.573,492.562,263.775z"/>
    <path fill-rule="evenodd" clip-rule="evenodd" d="M105.288,272.852c0.287-3.25,0.574-6.501,0.86-9.751
        c5.564,0.999,7.605,3.253,6.125,6.764C105.767,264.6,110.217,274.673,105.288,272.852
        C105.519,270.229,109.607,274.447,105.288,272.852z"/>
    <path fill-rule="evenodd" clip-rule="evenodd" d="M194.309,18.413c-1.943,1.186-5.43,5.109-7.669,7.448
        C186.256,21.849,189.169,18.947,194.309,18.413C193.405,18.965,189.169,18.947,194.309,18.413z"/>
    <path fill-rule="evenodd" clip-rule="evenodd" d="M435.443,146.9c-5.521,1.754-6.771,4.676-3.754,8.766
        C417.047,151.843,435.513,146.978,435.443,146.9C433.781,148.274,435.162,146.588,435.443,146.9z"/>
    <path fill-rule="evenodd" clip-rule="evenodd" d="M311.878,119.454c4.464,3.206-4.451,7.647-7.224,10.182
        C306.679,124.015,306.16,121.823,311.878,119.454z"/>
    <path fill-rule="evenodd" clip-rule="evenodd" d="M237.914,255.918c-5.252,5.166-5.142,8.414,0.33,9.744
        C239.333,263.352,215.987,268.705,237.914,255.918z"/>
    <path fill-rule="evenodd" clip-rule="evenodd" d="M478.712,265.135c2.51,2.048,4.176,3.407,6.337,5.171
        c-4.621-0.267-8.192-0.473-12.403-0.716C474.654,268.114,476.754,266.572,478.712,265.135
        C481.222,267.183,476.754,266.572,478.712,265.135z"/>
    <path fill-rule="evenodd" clip-rule="evenodd" d="M380.204,137.196c0.25,1.633,0.501,3.266,0.751,4.898
        c-4.015-1.28-8.03-2.56-12.045-3.84C372.141,137.952,375.969,137.593,380.204,137.196
        C380.343,138.102,375.969,137.593,380.204,137.196z"/>
    <path fill-rule="evenodd" clip-rule="evenodd" d="M508.552,263.245c-5.642,3.864-11.39,7.566-18.155,6.555
        C496.189,267.708,502.371,265.477,508.552,263.245z"/>
    <path fill-rule="evenodd" clip-rule="evenodd" d="M510.726,276.09c-10.867-0.999-5.74-9.758-2.597-8.581
        C501.66,278.163,512.008,267.94,510.726,276.09C508.803,275.913,510.806,275.581,510.726,276.09z"/>
    <path fill-rule="evenodd" clip-rule="evenodd" d="M473.979,225.463c0.537-0.051,4.671-1.169,3.89-2.489
        c2.055,0.29,4.109,0.58,6.657,0.939C481.199,228.739,477.684,229.256,473.979,225.463z"/>
    <path fill-rule="evenodd" clip-rule="evenodd" d="M378.172,103.255c-7.098,0-14.196,0-21.813,0
        C359.505,102.967,378.211,98.825,378.172,103.255C371.074,103.255,378.178,102.59,378.172,103.255z"/>
    <path fill-rule="evenodd" clip-rule="evenodd" d="M483.315,151.701c-3.917,2.456-7.834,4.912-12.94,8.112
        C471.32,157.141,480.55,148.169,483.315,151.701C479.398,154.157,483.199,151.553,483.315,151.701z"/>
    <path fill-rule="evenodd" clip-rule="evenodd" d="M211.159,310.255c-4.989,3.497-3.027-1.078-5.772,5.21
        c-5.884-6.748,4.476-4.521-3.109-6.812C204.253,305.793,207.214,306.327,211.159,310.255z"/>
    <path fill-rule="evenodd" clip-rule="evenodd" d="M193.118,185.581c2.549-3.484,2.592-5.785,0.128-6.901
        c-0.927,1.19-1.854,2.381-2.782,3.571c-0.165-2.227-0.31-4.2-0.456-6.17C195.395,178.449,196.566,181.131,193.118,185.581
        C193.442,183.448,196.566,181.131,193.118,185.581z"/>
    <path fill-rule="evenodd" clip-rule="evenodd" d="M16.191,277.541c1.14,3.911,2.279,7.823,3.419,11.734
        C12.837,285.863,12.842,284.251,16.191,277.541C17.188,280.961,14.833,280.264,16.191,277.541z"/>
    <path fill-rule="evenodd" clip-rule="evenodd" d="M468.01,243.854c2.18,1.144,4.359,2.287,6.539,3.431
        c-9.48,5.687-11.615,4.496-6.406-3.57C468.146,243.707,468.01,243.854,468.01,243.854z"/>
    <path fill-rule="evenodd" clip-rule="evenodd" d="M196.736,31.08c-2.299-3.412-3.849-2.957-4.65,1.367
        c-1.42-1.285-2.841-2.57-4.262-3.855C192.484,26.926,195.724,27.589,196.736,31.08C195.934,30.411,195.724,27.589,196.736,31.08z"
        />
    <path fill-rule="evenodd" clip-rule="evenodd" d="M338.515,103.132c-3.807-2.287-7.921,3.361-12.773-1.813
        C328.495,101.318,338.546,99.285,338.515,103.132C334.708,100.845,338.52,102.527,338.515,103.132z"/>
    <path fill-rule="evenodd" clip-rule="evenodd" d="M373.02,115.142c-3.296,0-6.592,0-10.697,0
        C369.628,112.12,369.628,112.12,373.02,115.142z"/>
    <path fill-rule="evenodd" clip-rule="evenodd" d="M282.513,36.023c-5.087,1.6-4.721-0.575-7.465-3.773
        C278.461,32.209,282.157,30.721,282.513,36.023z"/>
    <path fill-rule="evenodd" clip-rule="evenodd" d="M462.54,123.671c-1.349-0.626-2.698-1.252-4.047-1.878
        c0.474-2.77,2.916-2.763,7.328,0.019c-0.518,1.625-7.021,10.883-7,2.841C460.95,125.582,462.189,125.254,462.54,123.671
        C461.191,123.045,462.429,123.946,462.54,123.671z"/>
    <path fill-rule="evenodd" clip-rule="evenodd" d="M161.87,284.734c-2.406,4.674-1.226,8.605-6.617,10.097
        C157.182,289.397,156.683,285.221,161.87,284.734z"/>
    <path fill-rule="evenodd" clip-rule="evenodd" d="M482.079,243.96c-1.782,5.778-5.967,9.256-12.129,12.279
        C472.962,251.251,477.486,246.621,482.079,243.96z"/>
    <path fill-rule="evenodd" clip-rule="evenodd" d="M89.212,225.873c-5.858-0.345-11.459-0.675-17.061-1.004
        C77.694,225.921,83.73,221.371,89.212,225.873z"/>
    <path fill-rule="evenodd" clip-rule="evenodd" d="M26.245,276.863c-4.539-1.861-9.299-3.48-10.4-10.399
        C16.648,267.286,25.393,276.057,26.245,276.863z"/>
    <path fill-rule="evenodd" clip-rule="evenodd" d="M74.765,218.879c-3.22,1.949-6.44,3.898-9.661,5.848
        C62.553,220.054,71.562,214.204,74.765,218.879C71.545,220.828,74.357,218.283,74.765,218.879z"/>
    <path fill-rule="evenodd" clip-rule="evenodd" d="M89.078,231.125c-5.253,1.587-10.718-3.479-14.831,2.629
        C74.752,229.952,84.331,228.367,89.078,231.125z"/>
    <path fill-rule="evenodd" clip-rule="evenodd" d="M518.285,279.259c-2.87-0.149-5.713-0.296-9.659-0.5
        C516.447,275.301,515.957,273.148,518.285,279.259C515.415,279.109,518.293,279.279,518.285,279.259z"/>
    <path fill-rule="evenodd" clip-rule="evenodd" d="M206.221,30.961c0,0,0.156,0.141,0.159,0.142
        c-3.952-3.59-3.269-6.323,2.049-8.198C208.006,28.064,209.427,31.242,206.221,30.961z"/>
    <path fill-rule="evenodd" clip-rule="evenodd" d="M288.962,317.782c1.283-7.463,3.647-8.035,7.095-1.717
        C293.691,316.638,291.327,317.21,288.962,317.782C289.936,315.776,291.23,317.233,288.962,317.782z"/>
    <path fill-rule="evenodd" clip-rule="evenodd" d="M460.773,90.819c1.312-3.524,3.956-2.995,7.929,1.588
        C467.858,93.247,467.251,93.089,460.773,90.819C461.187,90.092,467.251,93.089,460.773,90.819z"/>
    <path fill-rule="evenodd" clip-rule="evenodd" d="M244.09,295.818c1.301-1.46,7.506-10.272,9.445-9.034
        C251.516,289.481,247.641,298.762,244.09,295.818C246.941,292.618,244.641,296.275,244.09,295.818z"/>
    <path fill-rule="evenodd" clip-rule="evenodd" d="M61.45,249.977c-5.171-0.254-10.342-0.508-15.513-0.763
        C45.836,249.698,61.811,245.392,61.45,249.977C56.279,249.723,61.489,249.48,61.45,249.977z"/>
    <path fill-rule="evenodd" clip-rule="evenodd" d="M492.121,252.98c1.981-1.55,3.964-3.1,5.945-4.649
        c2.235,2.472-7.738,7.076,3.101,2.019C502.674,254.858,494.032,257.214,492.121,252.98
        C494.104,251.431,492.371,253.534,492.121,252.98z"/>
    <path fill-rule="evenodd" clip-rule="evenodd" d="M491.667,97.902c1.405,4.507,3.3,5.91-3.987,8.096
        C488.784,103.757,489.888,101.515,491.667,97.902C492.282,99.875,489.888,101.515,491.667,97.902z"/>
    <path fill-rule="evenodd" clip-rule="evenodd" d="M178.361,109.479c0.981-2.746,1.891-5.293,2.967-8.304
        C183.715,104.818,182.836,106.728,178.361,109.479z"/>
    <path fill-rule="evenodd" clip-rule="evenodd" d="M170.55,30.476c-7.5,3.53-11.031,3.081-10.595-1.349
        C167.444,25.598,170.976,26.047,170.55,30.476C167.02,30.476,170.548,30.025,170.55,30.476z"/>
    <path fill-rule="evenodd" clip-rule="evenodd" d="M412.907,205.927c0.737,1.686,1.902,3.054,3.493,4.106
        c-7.82-2.581-7.349,2.37-9.709,8.421c-2.646-0.604-2.955-2.446-0.924-5.527c-2.021,0.618-9.82,0.499-11.695-1.931
        c1.806-1.843,3.925-3.193,6.355-4.053C397.679,217.541,410.021,208.629,412.907,205.927z"/>
    <path fill-rule="evenodd" clip-rule="evenodd" fill="#FFFFFF" d="M221.434,252.875C214.876,252.875,221.433,252.5,221.434,252.875
        c-6.558,0-13.115,0-19.672,0"/>
    <path fill-rule="evenodd" clip-rule="evenodd" fill="#FFFFFF" d="M176.187,279.419c-0.548,2.358-1.096,4.717-1.644,7.075
        c-2.185-0.712,0.413-1.776,0,0"/>
    <path fill-rule="evenodd" clip-rule="evenodd" fill="#FFFFFF" d="M262.857,209.493c-2.228-2.757-4.404-5.451-6.582-8.146"/>
    <path fill-rule="evenodd" clip-rule="evenodd" fill="#FFFFFF" d="M314.348,214.626
        C315.181,213.678,314.653,214.875,314.348,214.626c0.833-0.948,1.667-1.896,2.5-2.844"/>
    <path fill-rule="evenodd" clip-rule="evenodd" d="M253.041,307.913c0.919,3.782,2.934,3.912,6.043,0.392
        c2.23,8.507-1.422,10.245-10.957,5.215c1.726-0.283,3.453-0.567,5.178-0.851c-0.659-5.683-7.867,3.542-9.861-0.784
        C246.644,310.561,249.842,309.237,253.041,307.913C253.582,308.882,249.843,309.236,253.041,307.913z"/>
    <path fill-rule="evenodd" clip-rule="evenodd" d="M362.938,284.438c13.348,7.324,26.353,7.312,41.09,6.266
        C393.366,299.951,369.497,292.17,362.938,284.438C372.284,289.565,363.85,285.512,362.938,284.438z"/>
</g>
</svg>
