<svg version="1.1"
	 xmlns="http://www.w3.org/2000/svg" xmlns:xlink="http://www.w3.org/1999/xlink" xmlns:a="http://ns.adobe.com/AdobeSVGViewerExtensions/3.0/"
	 viewBox="0 0 300 350" overflow="visible" enable-background="new 0 0 300 350"
	 xml:space="preserve">
<path fill-rule="evenodd" clip-rule="evenodd" d="M103,94c1.313,0.353,1.573,1.761,3,2c-0.044,6.725-2.101,12.972-9,10
	c-0.145-2.812,2.449-2.884,5-3c-0.013-1.987-2.729-1.271-2-4C103.933,100.266,102.975,96.641,103,94z"/>
<path fill-rule="evenodd" clip-rule="evenodd" d="M119,124c3.156-1.286,3.156,8.286,0,7C119,128.667,119,126.333,119,124z"/>
<path fill-rule="evenodd" clip-rule="evenodd" d="M74,136c0.15-2.487,3.386-0.292,4,0C77.85,138.487,74.614,136.292,74,136z"/>
<path fill-rule="evenodd" clip-rule="evenodd" d="M135,140c-2.055,0.945-0.848,5.152-4,5C130.582,141.582,131.302,139.302,135,140z"
	/>
<path fill-rule="evenodd" clip-rule="evenodd" d="M230,310c0.933,1.067,3.688,0.312,3,3C230.401,313.599,229.401,312.599,230,310z"
	/>
<path fill-rule="evenodd" clip-rule="evenodd" d="M82,141c3.141-0.505,4.086,2.357,5-1c-3.742-1.642-4.526-6.073-7-9
	c-2.167-2.564-6.622-3.875-7-8c-2.502-1.832-8.229-0.438-8-5c9.096,3.904,20.518,5.482,22,17c2.833-1.353-3.201-8.522,3-8
	c-1.355-9.978-12.3-10.366-19-15c-5.521,0.812-6.263,6.403-10,9c0.766,4.901,10.681,0.652,12,5c-4.257,0.591-6.614-0.719-10-1
	c-8.377,14.284-1.152,34.312,1,51c0.709,5.502-1.672,11.882,2,16c17.562,0.229,15.69-18.977,31-21c3.217-1.783,3.42-6.58,8-7
	c-6.784,13.217-20.723,19.276-31,29c1.011,4.322,4.094,6.572,7,9c11.888-5.445,15.48-19.187,26-26c0.613-4.863,0.613-5.137,0-10
	c4.529,2.273,3.212,9.471,1,12c1.935,3.542-0.025,5.775,0,10c-3.397,3.27-6.085,7.248-7,13c-12.303,7.363-10.584,28.749-16,43
	c8.672-0.559,22.029,2.194,35,1c15.248-1.403,32.234-8.009,32-23c-0.077-4.902-3.069-11.321-5-15c-2.627-5.004-7.974-8.406-10-14
	c5.848,1.968,7.785,8.735,11,13c3.39,4.496,7.647,8.001,10,13c4.51,0.177,1.634-7.032,7-6c-1.192,5.808-3.098,10.902-10,11
	c-1.673,14.993-14.39,18.943-26,24c2.373,11.611,2.798,25.085,11,33c4.107,3.964,7.859,8.457,14,11c-1.874,1.904-0.109,2.513,0,5
	c-13.836,4.41-21.954-5.312-34-6c-3.954-5.094,0.885-12.838-3-18c2.288,1.045,6.032,0.635,8,2c0.932,4.182,0.669,3.959-2,6
	c1.896,4.438,7.836,4.831,12,7c2.57-0.097,1.43-3.903,4-4c-6.943-5.723-10.502-14.831-11-27c-5.472,0.57-8.247,0.607-12,1
	c-0.603,5.603,0.528,9.472,2,13c-8.166-2.501-4.933-16.4-9-23c-7.667,0-15.333,0-23,0c-5.274,10.726-6.497,25.503-10,38
	c0.696,4.971,7.566,3.768,7,10c-1.454,1.546-5.119,0.881-8,1c-2.07,5.603-5.34,11.512-4,17c1.412,5.78,9.208,5.996,9,12
	c-1.172,0.161-0.843,1.823-1,3c-16.028,0.159-33.041,1.908-49-1c-0.146-11.878,13.956-9.805,19-17c3.45-4.922,2.185-10.08,5-17
	c0.136-3.47-5.066-1.601-5-5c2.397-16.681-3.29-31.257-2-47c-7.634-5.97-14.505-11.011-18-24c-3.213-11.941,6.024-32.507,11-42
	c-1.14-2.193-2.581-4.086-2-8c1.572-5.346,7.771-6.23,11-11c6.094-8.999,7.88-23.139,8-35c0.591-2.076,1.924-3.409,4-4
	c0.191-4.191-4.909-3.091-4-8c1.907-1.877,1.81,0.593,5,0c-1.896-4.438-5.475-7.192-6-13c1.892-1.108,4.724-1.276,7-2
	c-1.706-23.683,4.774-48.081,33-42c3.664,4.002,8.796,6.538,11,12c5.885-11.115,6.816-27.184,11-40c-4.369-6.964-15.522-7.144-18-16
	c19.047-0.479,57.715-3.255,81,1c-4.592,7.075-13.353,9.98-20,15c22.079,83.253,46.614,164.054,69,247
	c5.635,2.453,10.111-4.493,17-1c2.417-2.711-1.098-5.553,0-10c2.109-2.558,5.815-3.518,6-8c-2.968-7.303-13.526-11.435-9-23
	c12.314,1.353,11.6,15.733,20,21c6.848-2.802-4.371-24.43,10-22c4.043,5.912-1.42,12.229-2,18c-0.808,8.029,2.688,13.469,2,20
	c1.447,2.884,5.952-2.184,8,1c0.309,3.976-1.921,5.412-6,5c0.197,2.863,0.124,5.458-3,5c8.997,7.159,10.482,21.934,5,34
	c-3.282-1.566-4.409-1.486-7-2c0.641-5.635-0.346-6.876,0-12c-7.733,5.885-12.574,19.196-4,27c0.539,3.872-2.549,4.118-3,7
	c5.792,4.541,17.318,3.349,18,13c-9.687,5.069-21.129-3.757-31-5c-2.661-3.066-0.012-5.262-3-8c-6.838-6.348-17.962-1.629-27-4
	c-2.82,2.563,3.89,4.053,3,8c-9.489,8.463-14.154-5.773-21-9c-0.56-4.893,3.883-4.783,6-7c-1.365-4.379-0.124-5.142,1-9
	c2.333,0,4.667,0,7,0c-0.566-7.1-6.052-9.281-7-16c2.211-2.456,5.736-3.598,9-5c-6.776-9.224-17.981-14.019-23-25
	c6.917,1.75,9.527,7.806,15,11c-13.188-51.479-26.729-102.605-40-154c-13.762-2.649-23.376,1.161-35-1
	c-9.911,11.636,14.493,26.767,16,41c-8.087,2.88-17.911,2.073-25-1c7.256,17.079,35.606,21.726,36,49c-3.538-4.388-3.469-9.739-6-14
	c-6.358-10.704-18.421-16.751-27-25c-1.414-3.586-4.326-5.674-6-9c-4.588,1.745-3.63,9.036-9,10c0.347-5.986,3.378-9.288,6-13
	c-2.255-12.079-6.605-22.062-7-36c-4.425,3.767-3.564,11.465-5,18c-1.637,7.452-4.586,14.047-4,21c-5.259-6.371-12.602-12.684-19-15
	C89.074,141.678,81.703,147.379,82,141z M106,87c4.276-1.457-1.214-5.513-4-6c-1.508,3.492-3.666,6.334-7,8
	c2.053,6.239-5.286,10.838-8,6c1.985-0.681,2.288-3.045,4-4c-3.104-0.104-2.854,3.146-7,2c0.308,3.042,3.725,5.981,1,9
	c6.717,2.283,7.284,10.716,19,8c1.037-6.046,8.396-13.878,3-20c-1.223,1.444-3.816,1.517-5,3c-1.003-4.036-1.812-9.361,4-9
	C106.017,85.464,101.783,87.169,106,87z M99,113c-1.497,11.837-5.175,21.492-8,32c3.177,4.156,6.152,8.515,12,10
	c2.562-12.771,3.104-27.563,10-36c22.389,1.053,41.874-1.786,60,0c11.182,43.15,24.931,95.938,37,139
	c3.756,13.401,2.649,24.136,14,27c4.074-10.282,3.604-16.376,0-28c-23.738-76.578-46.051-159.362-66-234
	c4.702-3.964,11.5-5.833,15-11c-21.391-1.384-45.422-0.357-67,1c5.452,2.881,12.321,4.346,15,10c-3.197,15.803-7.109,30.891-11,46
	c5.875,2.459,1.668,14.998,7,18c2.442-8.892,4.568-18.099,7-27c-1.288-2.379-6.494-0.84-7-4c2.404-2.305,1.526-3.225,1-7
	c5.861,0.194,4.375-6.958,10-7c-4.79-4.518,2.541-10.484,5-14c6.131-0.729,12.395-1.896,17,1c5.974,25.063,14.851,52.433,18,77
	c-6.991-0.658-11.772,0.894-18,1c-4.255,3.018-4.242,5.204-9,6c-10.065,1.685-12.299-5.531-18-7c-3.243-0.835-6.199,1.426-9-1
	c-0.321-4.655,1.994-6.673,2-11C108.802,98.803,109.21,111.21,99,113z M132,32c-1.744,7.673,2.104,14.126,3,22
	c-1.212,4.121-4.54,6.127-5,11c20.288-3.961,30.991,21.692,21,39c5.872-0.128,12.696,0.696,15-3c-7.541-21.792-11.868-46.799-18-70
	C141.179,30.996,137.212,29.356,132,32z M125,47c0.667,0,1.333,0,2,0c0-0.667,0-1.333,0-2c-0.667,0-1.333,0-2,0
	C125,45.667,125,46.333,125,47z M121,55c3.572-1.428,6.25-3.75,10-5c-0.228-1.772,1.008-5.008-2-4
	C128.848,51.515,121.323,49.656,121,55z M133,55c0.301-2.635-1.385-3.282-4-3C128.696,54.638,131.088,54.579,133,55z M126,58
	c0,1,0,2,0,3c3.757,0.757,3.383-2.617,5-4C128.681,56.681,127.161,57.161,126,58z M124,70c1.161,0.839,2.681,1.319,5,1
	c-0.177-3.156-0.703-5.964-4-6C125.826,67.826,123.591,67.591,124,70z M145,79c-0.46,10.541-13.684,6.738-24,5
	c-1.588,3.412-2.064,7.936-3,12c6.033,3.633,12.895,6.438,22,7c7.407-2.259,6.54-12.794,8-21c5.138,14.633-4.266,28.185-20,22
	c1.244,6.315,10.308,7.085,16,6c3.103-5.12,8.644-11.865,9-19c0.403-8.067-4.675-12.431-7-19c-4.088-0.912-7.706-2.294-11-4
	C138.612,73.144,145.284,72.496,145,79z M124,73c-0.992,2.675-2.061,5.273-2,9c8.188-0.695,11.232,3.888,18,2
	c2.562-4.831-2.478-9.86-7-13C131.2,74.324,127.729,73.754,124,73z M86,90c2.561-0.105,4.767-0.566,6-2
	c-4.426,1.426-2.616-3.384-6-3C86,86.667,86,88.333,86,90z M127,103c-1.613-0.168-5.155-3.356-6-1
	C122.553,102.229,125.667,105.844,127,103z M95,120c0.839-1.161,1.319-2.681,1-5C90.592,114.302,89.865,119.951,95,120z M94,126
	c0.319-2.319-0.161-3.839-1-5c-1.177,0.157-2.838-0.172-3,1C92.039,122.627,90.281,127.053,94,126z M130,152
	c5.219,6.713,10.807,11.4,19,8c-3.723-12.358-14.361-18.525-18-31c-0.694-2.379,0.922-5.876-2-8c-1,0-2,0-3,0
	C125.792,131.407,124.534,144.968,130,152z M116,123c0.114,5.552,1.778,9.555,3,14c0.17-1.496-0.357-3.69,1-4
	c0.508,4.966,0.174,14.586,6,17c-4.604-6.556-2.452-17.494-2-27C121.315,122.085,118.685,122.085,116,123z M40,169
	c6.037,10.63,13.582,19.752,22,28c3.999,0.332,5.551-1.782,10-1c0.659-4.326-7.006-0.327-8-3c-4.517-13.816-5.121-31.545-6-49
	c-0.221-0.779-0.837-1.163-2-1C55.746,156.746,47.794,162.794,40,169z M106,182c-0.221-0.779-0.837-1.163-2-1
	c-2.896,4.771-7.929,7.405-9,14C101.326,193.326,104.639,188.639,106,182z M33,218c-0.428-14.718,11.991-20.943,11-33
	c-1.479-0.521-2.521-1.479-4-2C35.677,191.638,28.379,206.974,33,218z M35,224c1.84,9.925,12.404,12.653,21,17
	c1.458-4.875-3.24-15.907,3-16c-0.911,5.813-0.82,17.742,5,20c4.149-4.125,2.577-10.277,4-16c2.701-10.857,10.009-22.296,6-32
	c-3.891,2.151-5.778,3.076-10,3c-0.543,4.124-0.563,8.77-4,10c-1.171-2.148,0.805-8.064,3-10c-5.479-3.521-9.57-8.43-17-10
	C42.548,199.898,32.805,212.161,35,224z M76,211c-7.941,33.392-15.224,67.442-23,101c-4.021,6.979-15.771,6.229-19,14
	c13.986-1.257,32.857,2.565,43-2c-12.581-3.477-10.113-11.971-7-25c7.11-29.761,16.297-76.175,23-99c-0.057-0.61-0.149-1.184-1-1
	C86.676,203.009,83.813,209.48,76,211z M259,256c-5.271,0.729-8.415,3.585-9,9c1.945,3.055,4.973,5.027,10,5
	c-1.242-4.091-5.051-5.616-6-10c3.948-1.281,2.42,2.914,5,3c-1.708-6.374,5.334-3.999,8-6C268.086,252.622,258.565,250.837,259,256z
	 M262,263c-2.117,3.913,2.353,8.646,6,10c1.867-5.144,5.395-11.707,0-15C265.465,259.832,266.938,266.267,262,263z M58,265
	c-1.554,1.207-3.897,3.195-6,1c-1.22,6.857,3.172,7.71,1,13c1.667,0,3.333,0,5,0c0.69-6.643,2.547-12.119,4-18
	c-3.311-0.862-7.991,0.215-12-2C48.653,265.014,56.395,261.938,58,265z M259,278c1.082-6.415-5.444-5.223-8-8
	C251.504,274.83,253.35,278.316,259,278z M262,276c-1.008,3.008,2.228,1.772,4,2c0-1,0-2,0-3
	C264.258,274.925,262.89,275.224,262,276z M257,291c0.272-1.361-0.619-3.903-1-2C255.728,290.361,256.619,292.903,257,291z M229,294
	c-0.188-2.812-1.739-4.261-5-4C223.338,293.786,226.326,296.556,229,294z M259,295c2.917,1.47,2.917-4.47,0-3
	C259,293,259,294,259,295z M245,304c1.987,0.013,1.271,2.729,4,2c2.489-3.511,6.052-5.948,7-11
	C252.668,294.362,247.144,300.123,245,304z M252,311c2,0,4,0,6,0c-0.036-4.403,6.024-7.931,3-12
	C255.557,300.557,252.908,304.908,252,311z M274,302c-0.17,2.503,1.536,3.131,3,4c0.84-1.161,1.319-2.681,1-5
	C276.258,300.925,274.89,301.223,274,302z M245,308c0.225-1.891-1.127-2.206-1-4c-1.496,0.171-3.69-0.357-4,1
	C242.081,305.586,243.232,307.102,245,308z M235,305c-2.962,2.371-6.987,3.68-12,4c-0.505,6.495-8.745,5.255-11,10
	c4.746,3.254,11.229,4.771,17,7c2.428-2.572,5.275-4.725,8-7c2.785,6.822,15.316,3.7,18-1c-4.685,1.018-4.501-2.832-6-5
	c-0.914,1.753-1.859,3.475-5,3C242.668,310.666,239.968,306.699,235,305z M219,307C217.946,312.804,223.334,307.417,219,307L219,307
	z M243,325c3.029,5.971,12.693,5.307,13,14c5.735-0.456,7.591,1.426,12,0c-1.281,3.948,2.914,2.42,3,5c4.386,0.434,3.284-3.064,7-1
	c-1.469-7.864-14.399-4.268-18-10c3.92-3.526,2.475-10.396-1-14C254.842,322.175,251.086,325.753,243,325z M210,331
	c6.941-1.803,0.004,5.093,7,4c0.224-0.776,0.027-1.973,1-2c-1.103-4.021-4.065-3.96-2-9c-3.078,0.745-1.922-2.745-5-2
	C211.688,326.021,210.042,327.708,210,331z M206,326c1.721,0.054,2.563-0.77,3-2C207.429,324.096,205.533,323.866,206,326z M234,325
	c-1.026,3.36,3.11,1.557,5,2C239.213,324.026,235.434,323.474,234,325z"/>
<rect fill-rule="evenodd" clip-rule="evenodd" fill="none" width="300" height="350"/>
</svg>
