<?xml version="1.0" encoding="utf-8"?>
<svg version="1.1" id="Layer_1" xmlns="http://www.w3.org/2000/svg" preserveAspectRatio='xMidYMid meet' viewBox="0 0 160 300" enable-background="new 0 0 160 300" xml:space="preserve">
<path fill="none" d="M65.018,16.984c-1.588,0.312-2.842,1.113-3.225,2.74c-1.02,4.335-3.208,8.408-3.034,13.006
    c0.121,3.189-0.74,5.773-3.43,7.818c-2.156,1.639-2.943,3.528-0.993,6.368c2.25,3.277,3.186,7.275,3.38,11.316
    c0.09,1.886,0.144,3.981,1.882,4.897c4.277,2.252,2.777,4.83,1.156,7.963c-1.739,3.36-4.87,4.306-7.854,4.413
    c-7.031,0.254-11.638,3.064-13.138,10.15c4.245,1.398,6.445,4.67,7.997,9.173c-1.856-0.593-2.152-1.842-2.676-2.81
    c-1.31-2.418-3.981-3.435-5.829-2.687c-2.228,0.902-0.294,3.42-0.159,5.283c0.347,4.785,4.312,8.47,3.885,13.432l0.045-0.073
    c-5.428,7.314-4.32,15.988-5.106,24.473c2.628-2.158,5.555-3.733,7.244-6.682c0.453-0.791,0.699-2.641,1.699-1.926
    c4.026,2.881,9.318,3.49,14.087,7.531c-10.399-2.079-12.436-1.009-16,7.45c-0.322,0.764-0.704,1.502-1.057,2.25
    c-1.865,2.255-3.73,4.51-5.596,6.765c-3.51,1.698-5.333,4.772-6.954,8.141c-2.293,4.767-3.377,10.215-7.258,14.104
    c-5.266,5.278-8.518,11.869-12.36,18.094c-1.201,1.945-1.404,3.447,0.008,5.415c2.496,3.479,1.822,9.461-1.752,11.829
    c-3.916,2.594-4.015,6.519-3.842,10.06c0.176,3.578,4.136,2.362,6.499,3.116c0.635,0.203,1.27,0.403,1.903,0.61
    c7.693,2.516,15.341,5.187,23.095,7.5c6.13,1.829,12.53,1.441,18.852,1.537c2.123,0.032,4.471-0.357,5.232,2.576
    c2.589,9.978,5.298,19.924,7.777,29.928c0.896,3.617,0.21,6.458-3.841,8.437c-3.981,1.944-7.483,4.863-11.522,6.907
    c-2.259,1.144-6.035,2.593-4.597,6.055c1.299,3.129,4.902,3.665,8.198,3.43c1.139-0.081,2.238-0.628,3.375-0.871
    c1.556-0.334,3.166-1.009,4.631,0.257c-0.119,2.513-4.092,4.106-1.99,6.701c2.19,2.702,5.44,2.149,8.745,1.781
    c7.314-0.813,12.938-4.975,19.019-8.38c3.83-2.146,4.476-4.71,2.83-8.659c-2.244-5.389-3.217-10.718-0.828-16.729
    c2.809-7.072,5.066-14.543,6.191-22.047c0.903-6.026,1.936-10.331,7.267-14.821c4.73-3.985,9.148-5.658,14.653-6.734
    c7.53-1.472,14.158-5.335,19.608-10.415c2.614-2.437,4.314-5.583,7.942-7.313c3.344-1.596,3.811-6.837,1.592-10.18
    c-6.659-10.035-14.433-19.121-23.471-27.099c-4.744-4.188-9.946-7.948-14.189-12.589c-5.201-5.689-9.714-11.96-17.341-14.75
    c-2.617-0.958-3.181-3.052-1.739-5.224c2.934-4.419,3.916-9.467,5.18-14.443c0.92-3.629,3.303-4.536,6.428-3.013
    c2.635,1.285,5.482,1.317,8.207,2.007c2.932,0.742,4.785-0.697,5.366-3.703c1.159-5.998,0.813-12.458,5.736-17.272
    c1.169-1.143,1.104-3.034,1.306-4.718c0.98-8.195-0.541-16.197-1.746-24.215c-0.411-2.74,0.254-5.8-1.842-8.136
    c-3.717-4.143-4.145-9.195-4.436-14.428c-0.386-6.937-2.07-14.02-6.625-19.029c-9.557-10.513-22.013-13.713-35.945-10.942
    c-1.284,0.255-2.917,0.057-3.735,2.025c5.453-0.184,10.436,0.977,15.576-0.739c3.093-1.033,4.866,2.667,7.188,4.311
    c-4.742,1.898,0.516,2.59,0.891,3.866c-2.096,1.099-3.84,2.014-5.584,2.928l0.036-0.021c-3.26,0.051-5.262,0.284-2.661,4.443
    c1.604,2.563,2.035,6.127,0.514,9.333c-0.754-1.614-1.074-3.472-2.61-4.646c-0.668-1.998-1.989-3.438-3.56-4.89
    c-1.221,7.531-2.992,14.402-6.278,20.873c0.403-2.472,0.807-4.943,1.348-8.257c-5.251,6.501-6.324,13.344-6.489,20.516
    c-1.738-5.025-1.145-9.772,0.293-14.603c2.117-7.112,4.019-14.338-2.97-20.186c-1.013-0.847-0.791-2.263,0.199-2.38
    c4.694-0.561,2.89-5.949,6.104-7.676c-3.067,0.705-7.161-5.899-8.932,1.501L65.018,16.984z"/>
<path fill-rule="evenodd" clip-rule="evenodd" d="M43.89,141.074c0.354-0.75,0.737-1.488,1.059-2.252
    c3.565-8.459,5.601-9.529,16-7.45c-4.769-4.041-10.061-4.65-14.087-7.531c-1-0.715-1.246,1.135-1.699,1.926
    c-1.689,2.948-4.616,4.523-7.244,6.682c0.786-8.484-0.322-17.158,5.106-24.473c0.256,2.371-0.27,4.61-1.09,6.814
    c-0.374,1.005-1.486,2.159,0.025,3.054c3.553,2.104,6.972,5.382,11.046,5.311c3.823-0.067,6.127,1.081,8.524,3.668
    c1.882,2.031,9.686-1.362,10.342-4.086c0.423-1.755-0.317-2.472-1.609-3.098c-1.808-0.877-3.681-1.407-5.728-1.479
    c-4.172-0.146-8.306,0.115-12.341,1.158c-3.712,0.96-5.785,0.594-4.611-4.08c0.551-2.192,1.113-4.623,0.039-6.842
    c-0.603-1.244-0.574-3.361-2.418-3.356c-1.506,0.005-1.216,2.164-2.224,3.01c0.427-4.962-3.539-8.646-3.885-13.432
    c-0.135-1.863-2.069-4.381,0.159-5.283c1.848-0.748,4.519,0.269,5.829,2.687c0.524,0.968,0.82,2.217,2.676,2.81
    c-1.552-4.503-3.752-7.774-7.997-9.173c1.5-7.086,6.107-9.896,13.138-10.15c2.984-0.107,6.115-1.053,7.854-4.413
    c1.621-3.133,3.121-5.711-1.156-7.963c-1.738-0.916-1.792-3.012-1.882-4.897c-0.194-4.041-1.13-8.039-3.38-11.316
    c-1.95-2.84-1.163-4.729,0.993-6.368c2.69-2.045,3.551-4.629,3.43-7.818c-0.174-4.598,2.014-8.671,3.034-13.006
    c0.383-1.627,1.637-2.429,3.225-2.74c-3.756,6.531-4.51,13.447-2.663,20.702c0.338,1.328,0.644,3.174-1.054,3.314
    c-5.47,0.452-3.715,4.375-3.418,7.15c0.404,3.776,1.526,7.475,2.339,11.207c0.39,1.79,1.607,2.891,3.163,3.633
    c2.334,1.112,4.129,0.962,3.498-2.261c-1.334-6.806-0.639-13.58-0.067-20.376c0.111-1.315-0.069-2.659-0.161-3.986
    c-0.416-6.006-2.658-11.968-0.422-18.06c0.091-0.247-0.809-0.857-1.248-1.299c1.771-7.4,5.864-0.796,8.932-1.501
    c-3.214,1.727-1.41,7.115-6.104,7.676c-0.99,0.117-1.211,1.533-0.199,2.38c6.989,5.848,5.087,13.073,2.97,20.186
    c-1.438,4.83-2.031,9.577-0.293,14.603c0.166-7.172,1.238-14.015,6.489-20.516c-0.541,3.313-0.944,5.785-1.348,8.257
    c3.286-6.471,5.058-13.342,6.278-20.873c1.57,1.451,2.892,2.892,3.559,4.89c-1.173,4.808,3.339,8.938,1.151,13.871
    c2.082-2.983,1.106-6.174,1.46-9.225c1.521-3.206,1.09-6.77-0.514-9.333c-2.601-4.159-0.599-4.393,2.661-4.443
    c-1.743,2.508-1.162,4.263,1.668,5.387c4.909,1.951,5.241,6.831,6.843,10.88c0.23,0.58,0.25,1.73-0.572,1.524
    c-4.015-1.006-1.891,2.36-1.521,2.63c3.266,2.38,2.502,5.407,1.805,8.535c-0.348,1.559-0.49,3.164,0.912,4.701
    c2.386-10.271,2.355-20.227,0.833-30.22c-0.321-2.113-0.392-2.332-1.51-1.899c-3.192,1.235-5.888,0.235-8.493-1.517
    c1.744-0.914,3.488-1.829,5.584-2.928c-0.375-1.276-5.633-1.968-0.891-3.866c-2.322-1.644-4.096-5.344-7.188-4.311
    c-5.14,1.716-10.123,0.556-15.576,0.739c0.818-1.969,2.452-1.771,3.735-2.025c13.932-2.771,26.388,0.43,35.945,10.942
    c4.555,5.01,6.239,12.093,6.625,19.029c0.291,5.232,0.719,10.285,4.436,14.428c2.096,2.336,1.431,5.396,1.842,8.136
    c1.205,8.018,2.727,16.02,1.746,24.215c-0.202,1.684-0.137,3.575-1.306,4.718c-4.923,4.814-4.577,11.274-5.736,17.272
    c-0.581,3.006-2.435,4.445-5.366,3.703c-2.725-0.689-5.572-0.722-8.207-2.007c-3.125-1.523-5.508-0.616-6.428,3.013
    c-1.264,4.977-2.246,10.024-5.18,14.443c-1.441,2.172-0.878,4.266,1.739,5.224c7.627,2.79,12.14,9.061,17.341,14.75
    c4.243,4.641,9.445,8.401,14.189,12.589c9.038,7.978,16.812,17.063,23.471,27.099c2.219,3.343,1.752,8.584-1.592,10.18
    c-3.628,1.73-5.328,4.877-7.942,7.313c-5.45,5.08-12.078,8.943-19.608,10.415c-5.505,1.076-9.923,2.749-14.653,6.734
    c-5.331,4.49-6.363,8.795-7.267,14.821c-1.125,7.504-3.383,14.975-6.191,22.047c-2.389,6.011-1.416,11.34,0.828,16.729
    c1.646,3.949,1,6.514-2.83,8.659c-6.081,3.405-11.705,7.566-19.019,8.38c-3.304,0.368-6.554,0.921-8.745-1.781
    c-2.103-2.595,1.871-4.188,1.99-6.701c-1.465-1.266-3.075-0.591-4.631-0.257c-1.137,0.243-2.235,0.79-3.375,0.871
    c-3.296,0.235-6.899-0.301-8.198-3.43c-1.438-3.462,2.337-4.911,4.597-6.055c4.04-2.044,7.542-4.963,11.522-6.907
    c4.051-1.979,4.737-4.819,3.841-8.437c-2.479-10.004-5.188-19.95-7.777-29.928c-0.761-2.934-3.11-2.544-5.232-2.576
    c-6.322-0.096-12.721,0.292-18.852-1.537c-7.754-2.313-15.401-4.984-23.095-7.5c-0.633-0.207-1.269-0.407-1.903-0.61
    c-2.362-0.754-6.323,0.462-6.499-3.116c-0.173-3.541-0.074-7.466,3.842-10.06c3.575-2.368,4.249-8.35,1.752-11.829
    c-1.412-1.968-1.208-3.47-0.008-5.415c3.842-6.225,7.094-12.815,12.36-18.094c3.881-3.89,4.965-9.338,7.258-14.104
    c1.621-3.368,3.443-6.442,6.953-8.14c-4.053,7.035-6.852,14.74-11.571,21.424c-3.452,4.889-6.833,9.832-10.074,14.861
    c-0.74,1.148-2.825,2.772-0.385,4.15c2.382,1.346,3.777-0.327,4.574-2.343c1.784-4.507,3.743-8.96,6.565-12.876
    c4.296-5.961,5.405-13.652,10.614-19.069c0.048,1.91-0.953,3.483-1.591,5.189c-3.445,9.213-9.267,17.222-13.174,26.214
    c-1.536,3.534-1.019,4.233,2.815,4.772c8.414,1.182,17.263-1.169,25.232,2.009c9.217,3.675,17.953,0.883,26.905-0.05
    c2.51-0.262,3.074-1.431,2.996-3.988c-0.295-9.678-3.326-18.974-3.738-28.62c-0.035-0.823-0.175-2.071-1.953-2.116
    c-0.898,3.163-0.521,6.802-2.606,9.682c-0.279,0.279-0.558,0.559-0.836,0.838c-0.861-0.366-1.538-1.082-1.077-1.921
    c1.818-3.308,0.922-7.089,2.502-10.708c-0.808,0.29-1.134,0.346-1.393,0.509c-5.708,3.598-9.3,3.776-13.237,0.644
    c-4.078-3.245-3.873-4.151-2.599-9.89c0.938-4.223,3.454-3.885,6.284-3.542c2.902,0.352,5.796,1.423,9.127-0.974
    c-4.245-0.812-8.042-2.386-11.623-1.993c-3.842,0.422-6.248,4.275-8.95,6.888c-1.599-0.569-0.484-2.673-2.576-3.323
    c-7.194,14.045-10.947,29.61-18.29,44.558c-0.942-2.236-0.155-3.178,0.229-4.218c3.34-9.049,6.651-18.108,9.967-27.167
    c0.889-2.43,0.95-4.136-2.451-2.752C39.263,149.395,43.586,146.151,43.89,141.074z M99.519,216.059
    c-2.388,2.723-4.495,2.01-6.358,2.065c-3.993,0.119-7.992,0.011-11.986,0.102c-1.422,0.032-2.664,0.653-2.691,2.339
    c-0.02,1.159,0.865,2.146,1.863,1.88c6.67-1.78,13.237,0.894,19.851,0.273c0.94-0.088,2.053,0.104,2.15-1.855
    c0.196-3.941-2.319-7.218-2.144-11.106c0.067-1.499-1.354-0.929-2.299-0.88c-9.512,0.483-18.931,1.693-28.359,3.041
    c-9.504,1.358-18.993,5.659-28.75,0.542c-3.186-1.672-3.367,1.729-3.989,3.533c-0.883,2.556,1.18,2.6,2.863,2.771
    c3.638,0.37,7.272,0.793,10.918,1.063c9.442,0.7,18.326-2.971,27.615-3.601C85.046,215.763,91.838,215.859,99.519,216.059z
     M78.931,100.437c-7.77,10.097-7.973,10.244-13.337,9.048c5.146-5.21,5.495-8.041,1.671-14.7c-0.939,2.797-0.736,5.85-2.5,8.145
    c-0.932,1.212-3.965,2.514-3.741,1.2c0.794-4.664-2.276-8.75-1.302-13.126c0.802-3.603,0.725-7.002-0.042-10.589
    c-0.781-3.651-2.05-4.896-6.016-3.619c-6.556,2.11-6.643,1.823-4.055,8.36c0.241,0.61,0.452,1.275-0.369,1.906
    c-3.343-0.838-3.001-5.047-6.07-7.24c0.493,4.258,2.922,6.651,4.75,9.268c1.224,1.75,2.125,0.417,2.898-0.839
    c1.307-2.121,2.689-4.201,4.133-6.232c0.551-0.776,1.396-1.812,2.417-0.882c0.987,0.901,0.029,1.809-0.599,2.537
    c-0.868,1.007-1.815,1.945-2.715,2.925c-2.421,2.636-3.747,5.344-1.65,8.962c1.154,1.99,1.399,4.364,1.081,6.782
    c-0.511,3.892,0.975,7.525,1.846,11.224c0.224,0.951,1.345,2.331,1.969,1.206c2.079-3.752,3.724-1.155,5.907-0.248
    c3.433,1.428,7.121,2.242,11.808,3.648C71.35,110.656,76.857,105.975,78.931,100.437z M81.426,262.263
    c-0.201,2.97-0.395,4.957-0.459,6.948c-0.111,3.479,3.056,3.504,5.109,4.501c1.197,0.581,1.648-0.719,1.667-1.775
    c0.163-8.885,3.511-17.202,4.579-25.934c1.016-8.293,1.06-8.376-6.996-8.393c-5.854-0.012-6.567,0.849-5.875,6.785
    C80.182,250.662,80.84,256.938,81.426,262.263z M95.523,167.264c2.719,6.314,5.417,12.639,8.172,18.938
    c0.667,1.525,1.385,2.842,3.578,2.841c5.646-0.004,8.195,4.657,11.803,7.844c-2.803,0.179-5.118,1.009-7.453,1.823
    c-1.861,0.65-2.637,1.891-2.439,3.81c0.229,2.204,2.012,2.817,3.608,2.678c6.868-0.599,13.823-1.046,20.219-5.098
    c-2.204-0.813-3.642,1.79-5.546,0.349c1.033-2.302,4.637-1.721,5.305-4.537c-2.818-1.061-5.915,2.867-7.898-0.189
    c-2.072-3.194,2.061-4.429,3.797-6.729c-10.953,2.146-16.334-0.696-22.617-10.495C103.336,174.264,100.156,170.18,95.523,167.264z
     M89.476,146.155c-2.362-0.202-2.063,0.987-1.495,2.455c1.565,4.037,3.804,7.725,5.77,11.559
    c4.131,8.055,14.306,10.059,17.975,18.925c1.336,3.225,6.496,4.854,9.889,7.243c1.231,0.867,2.359,1.128,3.543-0.078
    c0.913-0.931,1.537-2.046,0.425-3.014c-3.896-3.387-4.718-9.611-10.651-11.168c-2.943-0.772-5.297-2.411-5.462-6.085
    c-0.052-1.149-1.597-3.304-1.876-3.213c-4.948,1.613-5.567-3.061-7.634-5.282c-2.587-2.781-4.662-6.035-6.979-9.068
    C92.066,147.235,91.148,146.004,89.476,146.155z M52.274,212.127c11.203-1.607,22.229-3.233,33.269-4.752
    c3.947-0.542,7.936-0.779,11.894-1.257c0.927-0.111,2.206-0.241,2.339-1.478c0.164-1.521-1.22-1.861-2.295-2.165
    c-3.301-0.933-6.609-0.226-9.918,0.099c-13.387,1.312-26.751,3.688-40.229,0.781c-1.276-0.276-2.658-0.144-3.986-0.085
    c-2.399,0.104-3.628,1.552-3.835,3.812c-0.195,2.133,1.447,2.954,3.083,3.317C45.829,211.119,49.12,211.579,52.274,212.127z
     M78.93,261.571c-0.893-6.134-1.901-12.348-2.67-18.591c-0.489-3.973-3.092-4.176-6.111-3.896c-3.806,0.352-2.708,2.951-2.318,5.188
    c1.053,6.034,3.339,11.799,3.8,17.973c0.222,2.976,1.257,6.105,4.868,5.626C80.107,267.391,78.127,263.843,78.93,261.571z
     M15.203,191.234c3.956,3.17,8.578,3.536,13.206,3.604c10.951,0.157,21.991-0.69,32.476,3.696c1.157,0.483,2.674,0.515,3.933,0.275
    c6.863-1.305,13.76-2.327,20.723-2.886c1.95-0.156,2.695-0.711,1.744-2.811c-2.287-5.058-2.782-10.541-3.635-15.96
    c-0.758-4.822-0.275-9.939-3.201-14.351c0.788,8.847,1.951,17.639,3.305,26.401c0.377,2.445,0.451,4.618-2.57,4.757
    c-10.124,0.464-20.188,5.008-30.429,0.305c-2.033-0.934-4.541-1.053-6.846-1.14C34.335,192.764,24.647,194.229,15.203,191.234z
     M83.324,133.753c2.543-0.228,4.382-1.29,5.164-3.926c1.656-5.576,3.254-11.179,5.177-16.665c1.39-3.967-1.638-5.231-3.928-6.135
    c-2.714-1.07-5.292,0.115-6.002,3.424c-0.382,1.778-0.858,3.647-0.683,5.415c0.531,5.34,0.879,10.571-1.652,15.597
    C80.517,133.22,81.615,133.883,83.324,133.753z M58.195,226.514c3.855-0.249,6.83-0.502,9.81-0.617
    c2.626-0.102,5.605-0.325,5.382-3.645c-0.21-3.127-3.44-2.14-5.202-1.89c-9.726,1.381-19.405,2.562-29.139,0.124
    c-0.968-0.242-2.082-0.123-2.501,1.048c-0.486,1.357,0.305,2.31,1.419,2.8c1.348,0.595,2.793,1.215,4.231,1.315
    C47.817,226.043,53.496,225.408,58.195,226.514z M110.385,96.294c-0.555-3.434-2.178-5.272-4.848-5.678
    c-4.251-0.646-8.551-1.093-12.844-1.288c-3.13-0.142-5.541,1.962-8.059,3.518c-0.684,0.421-1.396,1.187-0.828,2.055
    c0.272,0.418,1.136,0.703,1.688,0.644c4.195-0.455,8.77,2.106,12.564-2.111c1.177-1.307,3.824-0.594,5.732,0.141
    C105.793,94.343,107.759,95.205,110.385,96.294z M88.097,83.511c5.203-3.872,11.159-0.425,16.623-2.12
    c-5.161-7.865-10.794-9.46-15.95-4.424c3.207,0.565,6.438-0.906,10.215,0.638C89.829,79.338,89.608,79.445,88.097,83.511z
     M80.397,285.305c2.582-1.441,5.856-2.738,5.833-5.604c-0.025-3.007-3.458-4.748-6.083-4.628c-3.413,0.155-5.689,3.759-5.894,6.41
    C74.036,284.313,78.398,283.628,80.397,285.305z M67.269,278.804c2.955,0.114,5.046-1.447,6.816-3.561
    c0.939-1.122,2.327-2.385,0.795-3.848c-1.287-1.229-2.876-2.556-4.873-1.405c-1.578,0.91-3.067,2.004-4.483,3.153
    c-1.17,0.948-3.525,1.366-2.52,3.604C63.745,278.396,65.541,278.743,67.269,278.804z M136.02,202.321
    c-6.715,2.425-13.846,3.429-20.549,5.891C122.722,207.616,130.029,207.217,136.02,202.321z M94.857,195.738
    c-0.9-2.279,2.082-5.71-2.082-7.022c3.443-2.337-2.174-3.166-0.84-4.994c0.576-0.792,1.91-1.231,0.014-1.864
    c-1.051-0.351-1.444,0.358-1.746,1.236C89.289,185.751,92.273,193.924,94.857,195.738z M75.011,92.579
    c6.808-4.179,13.858-4.576,19.52-8.521C88.885,88.043,80.01,83.778,75.011,92.579z M24.693,209.64
    c-0.036-2.235-1.678-2.638-3.354-2.678c-2.259-0.055-3.146,1.83-3.426,3.509c-0.347,2.074,1.598,2.151,3.031,2.154
    C22.887,212.629,24.485,211.956,24.693,209.64z M108.607,192.075c-0.936,0.44-2.93-0.4-2.826,1.667
    c0.094,1.874,0.994,3.742,3.393,3.263c1.612-0.321,4.461,0.139,4.346-2.086C113.415,192.921,110.775,192.453,108.607,192.075z
     M31.847,212.182c0.033-1.472-0.454-2.619-2.094-2.729c-2.731-0.183-3.085,1.899-3.379,3.855c-0.203,1.347,0.49,2.31,1.92,2.145
    C30.182,215.234,31.754,214.457,31.847,212.182z M65.284,154.6c-0.216-1.203-0.478-2.386-0.632-3.581
    c-0.25-1.932-1.889-2.031-3.225-2.445c-0.803-0.249-1.708-0.086-1.881,0.962c-0.253,1.526,0.943,2.32,1.861,3.202
    C62.445,153.733,63.42,154.912,65.284,154.6z M19.153,214.111c-1.24,0.611-3.848-0.72-3.958,1.464
    c-0.102,2.029,2.543,1.448,3.988,1.741c1.513,0.308,3.387-0.349,3.337-2.023C22.463,213.408,20.454,214.52,19.153,214.111z
     M90.393,178.176c1.204-1.019,2.738-1.844,2.859-3.633c0.072-1.077-0.595-1.735-1.844-1.722c-1.824,0.021-2.758,0.884-2.574,2.668
    C88.94,176.515,88.802,177.853,90.393,178.176z M92.823,39.47c0.561,4.337,0.025,8.759,0.726,13.094
    C93.627,48.175,94.652,43.759,92.823,39.47z"/>
<path fill-rule="evenodd" clip-rule="evenodd" fill="none" d="M38.017,153.985c-5.208,5.417-6.317,13.108-10.613,19.069
    c-2.822,3.916-4.781,8.369-6.565,12.876c-0.797,2.016-2.192,3.688-4.574,2.343c-2.44-1.378-0.355-3.002,0.385-4.15
    c3.241-5.029,6.622-9.973,10.074-14.861c4.719-6.684,7.518-14.389,11.571-21.424c1.867-2.256,3.732-4.511,5.596-6.765
    c-0.304,5.078-4.628,8.321-5.908,12.952C37.983,154.025,38.017,153.985,38.017,153.985z"/>
<path fill-rule="evenodd" clip-rule="evenodd" fill="none" d="M87.881,36.757c-0.354,3.051,0.622,6.241-1.46,9.225
    c2.188-4.934-2.324-9.063-1.151-13.871C86.807,33.285,87.127,35.143,87.881,36.757z"/>
<path fill-rule="evenodd" clip-rule="evenodd" fill="none" d="M72.904,167.077c2.085-2.88,1.708-6.519,2.606-9.682
    c1.778,0.045,1.917,1.293,1.953,2.116c0.412,9.646,3.443,18.942,3.738,28.62c0.078,2.558-0.486,3.727-2.996,3.988
    c-8.952,0.933-17.688,3.725-26.905,0.05c-7.97-3.178-16.819-0.827-25.232-2.009c-3.834-0.539-4.351-1.238-2.815-4.772
    c3.907-8.992,9.729-17.001,13.174-26.214c0.638-1.706,1.639-3.279,1.591-5.189c0,0-0.034,0.04-0.035,0.04
    c3.401-1.384,3.34,0.322,2.451,2.752c-3.316,9.059-6.627,18.118-9.967,27.167c-0.383,1.04-1.171,1.981-0.229,4.218
    c7.343-14.947,11.096-30.513,18.29-44.558c2.092,0.65,0.978,2.754,2.576,3.323c2.702-2.612,5.108-6.466,8.95-6.888
    c3.581-0.393,7.378,1.181,11.623,1.993c-3.331,2.396-6.225,1.325-9.127,0.974c-2.831-0.343-5.347-0.681-6.284,3.542
    c-1.274,5.738-1.479,6.645,2.599,9.89c3.937,3.133,7.528,2.954,13.237-0.644c0.259-0.163,0.585-0.219,1.393-0.509
    c-1.58,3.619-0.684,7.4-2.502,10.708c-0.461,0.839,0.215,1.555,1.076,1.922c-0.535,1.178-1.503,2.358-1.494,3.53
    c0.012,1.449,1.338,2.208,2.853,1.832c0.833-0.208,1.583-1.57,1.099-1.765c-3.119-1.252-0.584-2.387-0.191-3.705
    C74.803,166.235,73.609,166.915,72.904,167.077z M55.334,174.533c-2.095,2.124,0.008,4.595-3.302,5.714
    c1.392-5.898,0.755-11.207-0.189-16.646c-3.083,2.846-1.173,6.188-1.803,8.976c-1.644,7.265,3.14,12.194,5.333,18.058
    c0.269,0.718,1.705,1.6,1.788,1.082c0.951-5.967,3.244,1.088,5.065-1.408C55.633,187.518,58.212,180.126,55.334,174.533z"/>
<path fill-rule="evenodd" clip-rule="evenodd" fill="none" d="M99.519,216.059c-7.681-0.199-14.473-0.296-21.317,0.168
    c-9.289,0.63-18.172,4.301-27.615,3.601c-3.646-0.271-7.281-0.693-10.918-1.063c-1.683-0.172-3.746-0.216-2.863-2.771
    c0.623-1.804,0.803-5.205,3.989-3.533c9.757,5.117,19.247,0.816,28.75-0.542c9.429-1.348,18.848-2.558,28.359-3.041
    c0.945-0.049,2.366-0.619,2.299,0.88c-0.176,3.889,2.34,7.165,2.144,11.106c-0.098,1.959-1.21,1.768-2.15,1.855
    c-6.613,0.62-13.181-2.054-19.851-0.273c-0.998,0.266-1.883-0.721-1.863-1.88c0.027-1.686,1.27-2.307,2.691-2.339
    c3.994-0.091,7.993,0.018,11.986-0.102C95.023,218.068,97.131,218.781,99.519,216.059z"/>
<path fill-rule="evenodd" clip-rule="evenodd" fill="none" d="M78.931,100.437c-2.073,5.538-7.581,10.22-3.917,17.735
    c-4.687-1.406-8.375-2.221-11.808-3.648c-2.183-0.907-3.828-3.504-5.907,0.248c-0.624,1.125-1.745-0.255-1.969-1.206
    c-0.871-3.698-2.357-7.332-1.846-11.224c0.318-2.418,0.073-4.792-1.081-6.782c-2.097-3.618-0.771-6.326,1.65-8.962
    c0.9-0.979,1.848-1.918,2.715-2.925c0.628-0.729,1.586-1.636,0.599-2.537c-1.021-0.931-1.866,0.105-2.417,0.882
    c-1.443,2.031-2.826,4.111-4.133,6.232c-0.773,1.256-1.674,2.589-2.898,0.839c-1.829-2.616-4.257-5.01-4.75-9.268
    c3.069,2.193,2.727,6.402,6.07,7.24c0.821-0.631,0.61-1.296,0.369-1.906c-2.588-6.537-2.501-6.25,4.055-8.36
    c3.966-1.277,5.234-0.032,6.016,3.619c0.767,3.587,0.844,6.986,0.042,10.589c-0.974,4.376,2.096,8.462,1.302,13.126
    c-0.224,1.313,2.81,0.012,3.741-1.2c1.763-2.295,1.561-5.348,2.5-8.145c3.824,6.659,3.476,9.49-1.671,14.7
    C70.958,110.681,71.161,110.533,78.931,100.437z"/>
<path fill-rule="evenodd" clip-rule="evenodd" fill="none" d="M81.426,262.263c-0.586-5.325-1.244-11.601-1.975-17.867
    c-0.692-5.937,0.021-6.797,5.875-6.785c8.056,0.017,8.012,0.1,6.996,8.393c-1.068,8.731-4.416,17.049-4.579,25.934
    c-0.019,1.057-0.47,2.356-1.667,1.775c-2.054-0.997-5.221-1.021-5.109-4.501C81.031,267.22,81.225,265.232,81.426,262.263z"/>
<path fill-rule="evenodd" clip-rule="evenodd" fill="none" d="M95.523,167.264c4.633,2.916,7.812,7,10.527,11.234
    c6.283,9.799,11.664,12.641,22.617,10.495c-1.736,2.3-5.869,3.534-3.797,6.729c1.983,3.057,5.08-0.871,7.898,0.189
    c-0.668,2.816-4.271,2.235-5.305,4.537c1.904,1.441,3.342-1.162,5.546-0.349c-6.396,4.052-13.351,4.499-20.219,5.098
    c-1.597,0.14-3.38-0.474-3.608-2.678c-0.197-1.919,0.578-3.159,2.439-3.81c2.335-0.814,4.65-1.645,7.453-1.823
    c-3.607-3.187-6.157-7.848-11.803-7.844c-2.193,0.001-2.911-1.315-3.578-2.841C100.94,179.902,98.242,173.578,95.523,167.264z"/>
<path fill-rule="evenodd" clip-rule="evenodd" fill="none" d="M89.476,146.155c1.673-0.151,2.591,1.08,3.503,2.273
    c2.317,3.033,4.393,6.287,6.979,9.068c2.066,2.222,2.686,6.896,7.634,5.282c0.279-0.091,1.824,2.063,1.876,3.213
    c0.165,3.674,2.519,5.312,5.462,6.085c5.934,1.557,6.756,7.781,10.651,11.168c1.112,0.968,0.488,2.083-0.425,3.014
    c-1.184,1.206-2.312,0.945-3.543,0.078c-3.393-2.389-8.553-4.019-9.889-7.243c-3.669-8.866-13.844-10.87-17.975-18.925
    c-1.966-3.834-4.204-7.521-5.77-11.559C87.412,147.143,87.113,145.953,89.476,146.155z"/>
<path fill-rule="evenodd" clip-rule="evenodd" fill="none" d="M52.274,212.127c-3.155-0.548-6.445-1.008-9.679-1.727
    c-1.637-0.363-3.279-1.185-3.083-3.317c0.207-2.261,1.436-3.709,3.835-3.812c1.328-0.059,2.709-0.191,3.986,0.085
    c13.479,2.907,26.843,0.53,40.229-0.781c3.309-0.324,6.617-1.031,9.918-0.099c1.075,0.304,2.459,0.644,2.295,2.165
    c-0.133,1.236-1.412,1.366-2.339,1.478c-3.958,0.478-7.946,0.715-11.894,1.257C74.503,208.894,63.477,210.52,52.274,212.127z
     M43.455,205.36c3.575,2.182,6.39,2.137,9.061,2.556c0.763,0.119,1.743-0.309,1.899-1.22c0.183-1.062-0.841-1.295-1.583-1.448
    C50.112,204.688,47.38,204.591,43.455,205.36z"/>
<path fill-rule="evenodd" clip-rule="evenodd" fill="none" d="M64.985,17.01c0.438,0.441,1.338,1.052,1.248,1.299
    c-2.236,6.092,0.007,12.054,0.422,18.06c0.092,1.327,0.271,2.671,0.161,3.986c-0.571,6.796-1.267,13.57,0.067,20.376
    c0.632,3.223-1.164,3.373-3.498,2.261c-1.556-0.742-2.773-1.843-3.163-3.633c-0.813-3.732-1.936-7.431-2.339-11.207
    c-0.297-2.775-2.052-6.698,3.418-7.15c1.698-0.141,1.392-1.986,1.054-3.314c-1.847-7.255-1.093-14.171,2.663-20.702L64.985,17.01z"
    />
<path fill-rule="evenodd" clip-rule="evenodd" fill="none" d="M78.93,261.571c-0.803,2.271,1.178,5.819-2.432,6.299
    c-3.61,0.479-4.646-2.65-4.868-5.626c-0.461-6.174-2.747-11.938-3.8-17.973c-0.39-2.236-1.488-4.836,2.318-5.188
    c3.02-0.279,5.622-0.076,6.111,3.896C77.028,249.224,78.037,255.438,78.93,261.571z"/>
<path fill-rule="evenodd" clip-rule="evenodd" fill="none" d="M15.203,191.234c9.444,2.994,19.132,1.529,28.704,1.892
    c2.305,0.087,4.812,0.206,6.846,1.14c10.241,4.703,20.306,0.159,30.429-0.305c3.021-0.139,2.947-2.312,2.57-4.757
    c-1.354-8.763-2.517-17.555-3.305-26.401c2.926,4.411,2.443,9.528,3.201,14.351c0.853,5.419,1.348,10.902,3.635,15.96
    c0.951,2.1,0.206,2.654-1.744,2.811c-6.963,0.559-13.86,1.581-20.723,2.886c-1.259,0.239-2.776,0.208-3.933-0.275
    c-10.484-4.387-21.525-3.539-32.476-3.696C23.781,194.771,19.159,194.404,15.203,191.234z"/>
<path fill-rule="evenodd" clip-rule="evenodd" fill="none" d="M42.98,108.049c1.008-0.846,0.718-3.005,2.224-3.01
    c1.845-0.005,1.816,2.112,2.418,3.356c1.075,2.219,0.512,4.649-0.039,6.842c-1.174,4.674,0.899,5.04,4.611,4.08
    c4.035-1.043,8.168-1.305,12.341-1.158c2.047,0.072,3.92,0.603,5.728,1.479c1.292,0.626,2.032,1.343,1.609,3.098
    c-0.657,2.724-8.46,6.117-10.342,4.086c-2.397-2.587-4.701-3.735-8.524-3.668c-4.074,0.071-7.493-3.207-11.046-5.311
    c-1.511-0.895-0.399-2.049-0.025-3.054c0.82-2.204,1.346-4.443,1.09-6.814L42.98,108.049z"/>
<path fill-rule="evenodd" clip-rule="evenodd" fill="none" d="M83.322,133.756c-1.707,0.127-2.806-0.536-1.922-2.293
    c2.531-5.025,2.184-10.257,1.652-15.597c-0.176-1.768,0.301-3.637,0.683-5.415c0.71-3.309,3.288-4.494,6.002-3.424
    c2.29,0.903,5.317,2.168,3.928,6.135c-1.923,5.486-3.521,11.089-5.177,16.665C87.706,132.463,85.867,133.525,83.322,133.756z"/>
<path fill-rule="evenodd" clip-rule="evenodd" fill="none" d="M58.195,226.514c-4.699-1.105-10.378-0.471-16-0.864
    c-1.438-0.101-2.883-0.721-4.231-1.315c-1.114-0.49-1.906-1.442-1.419-2.8c0.42-1.171,1.534-1.29,2.501-1.048
    c9.734,2.438,19.413,1.257,29.139-0.124c1.762-0.25,4.992-1.237,5.202,1.89c0.224,3.319-2.755,3.543-5.382,3.645
    C65.025,226.012,62.05,226.265,58.195,226.514z"/>
<path fill-rule="evenodd" clip-rule="evenodd" fill="none" d="M89.992,23.002c2.605,1.752,5.301,2.752,8.493,1.517
    c1.118-0.433,1.188-0.214,1.51,1.899c1.522,9.993,1.553,19.949-0.833,30.22c-1.402-1.537-1.26-3.143-0.912-4.701
    c0.697-3.128,1.461-6.155-1.805-8.535c-0.369-0.27-2.493-3.636,1.521-2.63c0.822,0.206,0.803-0.944,0.572-1.524
    c-1.602-4.049-1.934-8.929-6.843-10.88c-2.83-1.124-3.411-2.879-1.668-5.387L89.992,23.002z"/>
<path fill-rule="evenodd" clip-rule="evenodd" fill="none" d="M110.385,96.294c-2.626-1.089-4.592-1.951-6.594-2.721
    c-1.908-0.734-4.556-1.447-5.732-0.141c-3.795,4.218-8.369,1.656-12.564,2.111c-0.552,0.06-1.415-0.226-1.688-0.644
    c-0.567-0.868,0.145-1.634,0.828-2.055c2.518-1.556,4.929-3.659,8.059-3.518c4.293,0.195,8.593,0.643,12.844,1.288
    C108.207,91.021,109.83,92.86,110.385,96.294z"/>
<path fill-rule="evenodd" clip-rule="evenodd" fill="none" d="M88.097,83.511c1.512-4.065,1.732-4.173,10.888-5.906
    c-3.777-1.544-7.008-0.072-10.215-0.638c5.156-5.036,10.789-3.441,15.95,4.424C99.256,83.086,93.3,79.639,88.097,83.511z"/>
<path fill-rule="evenodd" clip-rule="evenodd" fill="none" d="M80.397,285.305c-1.999-1.677-6.362-0.991-6.144-3.821
    c0.204-2.651,2.48-6.255,5.894-6.41c2.625-0.12,6.058,1.621,6.083,4.628C86.254,282.566,82.979,283.863,80.397,285.305z"/>
<path fill-rule="evenodd" clip-rule="evenodd" fill="none" d="M67.269,278.804c-1.728-0.061-3.523-0.408-4.264-2.057
    c-1.005-2.237,1.35-2.655,2.52-3.604c1.417-1.149,2.906-2.243,4.483-3.153c1.996-1.15,3.586,0.177,4.873,1.405
    c1.531,1.463,0.144,2.726-0.795,3.848C72.315,277.356,70.223,278.918,67.269,278.804z"/>
<path fill-rule="evenodd" clip-rule="evenodd" fill="none" d="M136.02,202.321c-5.99,4.896-13.298,5.295-20.549,5.891
    C122.174,205.75,129.305,204.746,136.02,202.321z"/>
<path fill-rule="evenodd" clip-rule="evenodd" fill="none" d="M94.857,195.738c-2.584-1.814-5.568-9.987-4.654-12.645
    c0.302-0.878,0.695-1.587,1.746-1.236c1.896,0.633,0.562,1.072-0.014,1.864c-1.334,1.828,4.283,2.657,0.84,4.994
    C96.939,190.028,93.957,193.459,94.857,195.738z"/>
<path fill-rule="evenodd" clip-rule="evenodd" fill="none" d="M75.011,92.579c4.999-8.801,13.874-4.536,19.52-8.521
    C88.869,88.003,81.819,88.4,75.011,92.579z"/>
<path fill-rule="evenodd" clip-rule="evenodd" fill="none" d="M24.693,209.64c-0.208,2.316-1.806,2.989-3.75,2.985
    c-1.433-0.003-3.377-0.08-3.031-2.154c0.28-1.679,1.167-3.563,3.426-3.509C23.015,207.002,24.657,207.404,24.693,209.64z"/>
<path fill-rule="evenodd" clip-rule="evenodd" fill="none" d="M108.607,192.075c2.168,0.378,4.808,0.846,4.912,2.844
    c0.115,2.225-2.733,1.765-4.346,2.086c-2.398,0.479-3.299-1.389-3.393-3.263C105.678,191.675,107.672,192.516,108.607,192.075z"/>
<path fill-rule="evenodd" clip-rule="evenodd" fill="none" d="M31.846,212.183c-0.092,2.274-1.664,3.052-3.553,3.27
    c-1.431,0.165-2.124-0.798-1.92-2.145c0.294-1.956,0.648-4.038,3.379-3.855C31.393,209.562,31.88,210.71,31.846,212.183z"/>
<path fill-rule="evenodd" clip-rule="evenodd" fill="none" d="M65.284,154.6c-1.864,0.312-2.839-0.866-3.876-1.862
    c-0.918-0.882-2.114-1.676-1.861-3.202c0.173-1.048,1.078-1.211,1.881-0.962c1.336,0.414,2.975,0.514,3.225,2.445
    C64.807,152.214,65.068,153.396,65.284,154.6z"/>
<path fill-rule="evenodd" clip-rule="evenodd" fill="none" d="M19.153,214.111c1.3,0.408,3.31-0.703,3.367,1.182
    c0.05,1.675-1.824,2.331-3.337,2.023c-1.445-0.293-4.089,0.288-3.988-1.741C15.305,213.392,17.914,214.723,19.153,214.111z"/>
<path fill-rule="evenodd" clip-rule="evenodd" fill="none" d="M90.393,178.176c-1.591-0.323-1.452-1.661-1.559-2.687
    c-0.184-1.784,0.75-2.647,2.574-2.668c1.249-0.014,1.916,0.645,1.844,1.722C93.131,176.332,91.597,177.157,90.393,178.176z"/>
<path fill-rule="evenodd" clip-rule="evenodd" d="M72.904,167.077c0.705-0.162,1.898-0.842,1.43,0.731
    c-0.393,1.318-2.927,2.453,0.191,3.705c0.484,0.194-0.266,1.557-1.099,1.765c-1.515,0.376-2.841-0.383-2.853-1.832
    c-0.01-1.172,0.958-2.353,1.494-3.53C72.347,167.636,72.625,167.356,72.904,167.077z"/>
<path fill-rule="evenodd" clip-rule="evenodd" fill="none" d="M92.823,39.47c1.829,4.289,0.804,8.705,0.726,13.094
    C92.849,48.229,93.384,43.807,92.823,39.47z"/>
<path fill-rule="evenodd" clip-rule="evenodd" d="M55.334,174.533c2.878,5.593,0.298,12.984,6.893,15.775
    c-1.822,2.496-4.114-4.559-5.065,1.408c-0.083,0.518-1.519-0.364-1.788-1.082c-2.193-5.863-6.977-10.793-5.333-18.058
    c0.63-2.788-1.28-6.13,1.803-8.976c0.944,5.438,1.581,10.747,0.189,16.646C55.343,179.128,53.239,176.657,55.334,174.533z"/>
<path fill-rule="evenodd" clip-rule="evenodd" d="M43.455,205.36c3.926-0.77,6.658-0.673,9.377-0.112
    c0.742,0.153,1.766,0.386,1.583,1.448c-0.156,0.911-1.136,1.339-1.899,1.22C49.845,207.497,47.029,207.542,43.455,205.36z"/>
</svg>
