<?xml version="1.0" encoding="utf-8"?>
<svg version="1.1" id="Layer_1" xmlns="http://www.w3.org/2000/svg" viewBox="0 0 160 145" enable-background="new 0 0 160 145" xml:space="preserve">
<g fill='#242729'>
<path fill-rule="evenodd" clip-rule="evenodd" fill="#FFFFFF" d="M113.31,21.598c0.64,0,1.28,0,1.92,0
    c-0.39,1.66,0.896,2.027,0,2.881C113.861,24.246,113.852,22.656,113.31,21.598z"/>
<path fill-rule="evenodd" clip-rule="evenodd" d="M6.279,29.277c1.381,3.788-1.788,9.541,0.959,13.919
    C4.319,42.166,5.393,33.281,6.279,29.277z"/>
<path fill-rule="evenodd" clip-rule="evenodd" d="M53.794,30.237c2.148,1.167,2.245,3.845-1.439,3.36
    C52.28,31.922,53.519,31.562,53.794,30.237z"/>
<path fill-rule="evenodd" clip-rule="evenodd" d="M8.678,30.717c1.047-0.086,1.527,0.394,1.44,1.44c-0.48,0-0.96,0-1.44,0
    C8.678,31.678,8.678,31.197,8.678,30.717z"/>
<path fill-rule="evenodd" clip-rule="evenodd" d="M9.158,32.637c0.48,0,0.96,0,1.44,0c0.034,1.85,2.073,3.181-0.96,3.36
    c-0.078-0.558,0.106-0.854,0.48-0.96c-0.077-0.562-0.875-0.404-1.44-0.48C8.617,33.696,9.266,33.545,9.158,32.637z"/>
<path fill-rule="evenodd" clip-rule="evenodd" fill="#FFFFFF" d="M48.515,32.637c1.356,1.203,1.824,3.296,1.92,5.76
    C48.47,37.086,47.776,34.295,48.515,32.637z"/>
<path fill-rule="evenodd" clip-rule="evenodd" d="M54.754,34.077c1.819,0.394,0.738,3.17-0.96,2.88
    C53.521,35.404,53.94,34.543,54.754,34.077z"/>
<path fill-rule="evenodd" clip-rule="evenodd" d="M54.754,37.917c0.64,0,1.28,0,1.92,0c0.063,1.183,0.073,2.312-0.48,2.88
    C55.162,40.39,54.497,39.615,54.754,37.917z"/>
<path fill-rule="evenodd" clip-rule="evenodd" fill="#FFFFFF" d="M117.629,37.917c0.641,0,1.28,0,1.92,0c0,0.64,0,1.28,0,1.92
    C118.047,40.06,117.406,39.42,117.629,37.917z"/>
<path fill-rule="evenodd" clip-rule="evenodd" d="M17.318,42.717c0,0.64,0,1.279,0,1.92c-1.553,0.593-0.367-1.553-1.92-0.961
    C15.513,42.832,16.224,42.582,17.318,42.717z"/>
<path fill-rule="evenodd" clip-rule="evenodd" d="M109.95,51.355c0.734,1.475-3.135,1.475-2.4,0
    C107.842,51.079,109.827,50.232,109.95,51.355z"/>
<path fill-rule="evenodd" clip-rule="evenodd" d="M109.47,54.235c-1.361,1.149-0.474,1.768-0.479,3.84
    c-2.149,0.069-1.142-3.019-2.4-3.84C107.594,53.189,107.96,54.476,109.47,54.235z"/>
<path fill-rule="evenodd" clip-rule="evenodd" fill="#FFFFFF" d="M127.229,56.635c0.591,0.21,0.985,0.615,0.96,1.44
    c-1.553-0.593-0.367,1.554-1.92,0.96C125.574,57.221,127.588,58.114,127.229,56.635z"/>
<path fill-rule="evenodd" clip-rule="evenodd" d="M97.951,57.596c2.191,0.059,0.261,2.723,0,3.359
    C96.516,60.219,97.453,58.822,97.951,57.596z"/>
<path fill-rule="evenodd" clip-rule="evenodd" d="M104.19,58.555c2.08,1.169,1.92,5.315,1.439,7.68
    C104.288,64.557,105.295,61.343,104.19,58.555z"/>
<path fill-rule="evenodd" clip-rule="evenodd" d="M99.871,59.516c1.475-0.734,1.475,3.134,0,2.399
    C99.871,61.115,99.871,60.314,99.871,59.516z"/>
<path fill-rule="evenodd" clip-rule="evenodd" d="M102.271,61.915c1.553-0.593,0.367,1.553,1.92,0.96c0,1.279,0,2.56,0,3.84
    c-0.64,0-1.28,0-1.92,0c0.007-0.954,1.31-0.611,0.96-1.92c-0.153-1.02-1.485,0.686-1.92,0.959
    C99.734,64.455,102.625,63.582,102.271,61.915z"/>
<path fill-rule="evenodd" clip-rule="evenodd" d="M13.958,43.676c-1.362-0.081-0.937,1.623-2.88,0.961
    c-0.627-2.652-2.179-7.021,0.96-8.16c1.121,2.012,0.368,1.484,0,3.84c3.009-0.168,2.122,6.524,6.239,6.72
    c1.378-0.949-0.166-2.995,0-4.319c1.31-0.35,0.966,0.953,1.92,0.959c0.651-0.148,0.398-1.201,0.48-1.92
    c-0.207-1.072-2.365-0.193-3.359-0.479c-0.706-1.825,2.146-0.095,1.439-1.919c-2.091-1.904-1.591,2.867-4.319,1.919
    c0.312-7.511-3.125-11.272-6.24-15.358c4.365,0.159,8.021,5.064,9.12,10.079c4.629-2.931,10.605-1.631,15.358-3.36
    c4.753-1.729,7.239-6.195,11.039-8.158c6.712,0.334,9.698,0.592,15.359-0.961c3.417-2.822,7.541-4.938,9.119-9.599
    C76.056,6.041,99.201,0.033,108.99,9.6c3.884-2.209,3.215,3.223,7.68,1.92c0.693,0.746,1.009,1.869,1.439,2.879
    c0.557-0.402,1.287-0.633,2.399-0.479c-0.03,2.671,3.209,5.577,6.72,6.239c0.395,4.141,6.24,5.205,4.8,9.6
    c2.454,0.586,4.347,1.732,3.84,5.279c2.629-0.417,2.991,4.797,5.759,5.76c0.153,1.113-0.077,1.842-0.479,2.399
    c3.871,2.897,3.055,26.423,2.88,35.518c-0.104,5.407-1.301,6.148-3.36,9.599c-2.392,4.007-4.483,9.735-9.119,11.039
    c-0.06,1.201-0.916,1.503,0.48,1.92c0.081,1.041-1.702,0.218-2.4,0.48c-4.604,5.955-13.116,8.002-18.718,12.959
    c-7.731,1.708-14.582,4.297-19.679,8.639c-9.448,0.508-13.364,14.676-4.8,18.719c-11.591,8.496-15.646-17.881-6.719-22.078
    c0.061-0.861-0.588-1.013-0.48-1.92c7.326-3.148,9.585-8.799,18.238-10.079c0.645-0.315,0.895-1.026,0.96-1.92
    c11.36-2.398,19.277-8.24,26.398-14.879c-0.812-1.907-0.342-5.098-1.92-6.239c-6.78,1.21-13.729,0.554-19.198-1.92
    c-0.562,0.077-0.405,0.875-0.48,1.439c-0.851-0.589-2.529-0.35-2.88-1.439c-6.833,6.606-20.651,1.455-29.757,4.319
    c-1.312,2.269-3.609,2.753-6.239,1.92c-0.042,0.682-0.08,1.359,0.479,1.44c-0.048,0.915-1.788-0.383-2.399-0.48
    c-1.071,0.07,0.623,1.209,0,2.4c-1.879-0.476-2.787,1.06-3.84,0c-2.547,4.947-9.512,3.424-16.319,3.359
    c-1.292-1.248,0.587-1.447,0.48-2.88c-1.354,0.049-2.038,1.809-3.359,0.479c-0.747-1.706,1.63-0.289,1.44-1.439
    c-4.608-3.486-10.015-3.473-16.319-4.8c-1.391-4.528-6.489-5.351-9.119-8.639c3.959,0.52,5.641,3.317,9.599,3.839
    c-0.013,0.467-0.587,0.373-0.96,0.48c1.65,3.216,6.985-1.938,6.719,1.92c-2.499,0.034-3.558,0.77-5.759,0
    c2.122,2.409,2.883,1.43,5.759,1.92c-0.23-1.154,1.072-2.88,2.4-3.84c1.542-0.422,0.658,1.582,1.92,1.439
    c1.137-0.782,1.817-2.022,3.36-2.399c0,1.12,0,2.24,0,3.359c2.174,0.734-0.254-3.134,1.92-2.399c0.359-1.479-1.655-0.585-0.96-2.399
    c1.477,0.336,0.922,0.336,2.399,0c0,0.479,0,0.959,0,1.439c0.801-0.799,3.505,0.305,3.36-1.439c1.203-0.083,1.165,1.074,1.92,1.439
    c1.873-0.639,0.097-2.145,0.96-3.359c1.222,0.218-0.487,3.367,1.92,2.399c1.041,0.081,0.217-1.702,0.48-2.399
    c1.553-0.594,0.367,1.553,1.92,0.96c0.695-0.575,0.643-2.28,1.919-0.96c0.506-1.895,1.275-3.525,3.84-3.36
    c-1.379-2.393-4.071-0.597-5.279,0.96c-1.322-1.719-5.234-0.941-5.76,0.96c-2.104-1.151-7.555,1.387-9.599,3.36
    c-9.343,0.543-17.377-0.222-20.158-6.24c-2.934-0.266-5.642-0.757-7.2-2.399c-0.075-1.354,1.357-1.203,1.92-1.92
    c9.206,6.625,27.815,6.436,39.357,1.92c0.651-0.148,0.398-1.201,0.48-1.92c1.309-0.35,0.966,0.953,1.919,0.96
    c1.071-0.071-0.623-1.21,0-2.399c-3.565-0.206-5.125,1.594-8.639,1.439c1.473-2.367,5.942-1.736,7.68-3.84
    c-3.248-0.746-4.99,1.183-8.64,1.439c0.859-1.156,1.338-2.689,0.48-4.318c1.99-0.551,1.87,1.009,3.36,0.959
    c0.482-1.017,1.387-2.875,2.88-1.439c1.511-0.408,0.013-3.827,2.879-2.88c0.135-1.734-2.102-1.098-2.879-1.92
    c0.35-1.91,0.35-1.93,0-3.84c1.003,0.204,1.271-0.329,1.92-0.479c-0.822-0.459-0.967-1.594-1.92-1.92
    c-1.319,3-1.036,7.604-2.88,10.079c-2.626-0.066-4.78,0.339-6.72,0.96c-0.081,1.041,1.703,0.217,2.4,0.48
    c0.709,2.148-1.405,1.474-0.96,3.359c-0.95-0.136-2.329-3.197-2.399,0c-1.694-0.066-2.146-1.374-3.84-1.44
    c-1.006,0.985,0.808,3.754-0.48,5.28c-3.109-1.41-3.517,1.627-5.28,2.879c-2.882,0.163-2.667-2.771-5.279-2.879
    c0.347-1.467-0.491-1.75-0.48-2.881c2.024-0.607,2.095-6.956,0.48-8.158c-0.418,2.142-1.233,3.886-1.44,6.238
    c-1.221-0.059-1.861-0.697-1.92-1.919c-1.192,0.728-2.21,1.63-2.88,2.88c-2.611-0.219,1.338-1.868-0.48-2.88
    c-2.676,0.044-3.224,2.215-5.759,2.399c0.56,0.881,1.254,1.625,1.92,2.4c0.866-0.894,0.177-3.343,2.4-2.881
    c0.459,2.221-1.284,2.237-1.92,3.36c-0.344,1.304,2.263-0.343,1.92,0.96c-1.421,1.316-6.743-1.5-9.12-2.4
    c-3.098,4.539,4.252,6.077,5.28,9.6c-2.034,0.265-3.871-3.801-6.72-4.319c0.536-2.538-2.36-7.958,0.96-8.64
    c0.264,1.064-0.917,0.684-0.96,1.439c0.692,1.981,4.178,0.568,5.28,0c-0.842-1.715-0.996-1.131-2.4-0.479
    c-0.517-1.403-1.326-2.513-3.359-2.399c-0.089-3.77,1.759-5.6,1.439-9.6c1.024-0.225,0.915,0.686,0.96,1.439
    c1.5,0.221,1.535-1.025,1.44-2.399c-0.488,0.312-0.496,1.104-1.44,0.96c1.39-4.684-2.671-6.158-1.44-9.119
    c0.374,2.025,2.965,1.835,2.4,4.8c1.174-0.426,0.52-2.681,2.4-2.399c-0.575,2.621-1.396,2.852-1.44,5.279
    c0.148,0.651,1.202,0.398,1.92,0.479c1.604-1.667-0.038-4.427,2.88-5.279C14.722,46.111,14.129,45.105,13.958,43.676z
     M15.398,53.756c-1.543,0.856-1.293,3.506-1.92,5.279c2.155,0.404,2.891,2.229,4.32,3.359c0.688-1.777,4.19,1.744,4.319-0.959
    c-3.275-0.404-6.126-1.234-6.719-4.32c0.648-1.832,1.531-3.223,0-4.8c1.938,0.659,1.699-0.86,2.4-1.439
    c1.669,1.37,6.643-0.563,7.679,1.439c-0.593-1.553,1.553-0.366,0.96-1.919c-0.469-0.492-0.949-0.972-1.44-1.44
    c-0.054,1.226-1.607,0.952-2.88,0.96c0.006-1.164-2.769-1.98-0.96-3.359c1.11,0.649,1.59,1.93,3.84,1.439
    c0.041-2.281-2.381-2.099-3.36-3.359c-0.116,0.844-0.826,1.094-1.92,0.959c0,0.801,0,1.601,0,2.4
    c-4.564,1.354-6.511,5.328-10.079,7.68c-0.182,3.381-0.071,6.471,3.36,6.239C9.596,60.062,11.279,51.942,15.398,53.756z
     M92.672,13.919c1.255,0.136,2.064-0.175,1.919-1.44c-2.413,0.156-4.263-2.209-3.839-3.359c-1.375-0.094-2.62-0.06-2.4,1.439
    c2.173-0.893,0.835,1.727,1.92,1.92c0.102-0.538,0.533-0.746,0.96-0.959C91.154,12.876,92.673,12.637,92.672,13.919z
     M101.311,13.439c-0.293-0.027-0.568-0.072-0.479-0.48c0.206-0.914,1.033-1.206,0.96-2.4c-0.862,0.062-1.124-0.477-0.96-1.439
    c-2.066,0.013-1.877,2.295-3.36,0.48c-0.222,3.373,2.85,0.557,2.4,3.84C100.696,13.25,101.102,14.151,101.311,13.439z M82.112,11.52
    c0.32,0,0.64,0,0.96,0c0.075,0.564-0.083,1.361,0.479,1.439C84.161,11.048,82.68,9.566,82.112,11.52z M103.23,14.398
    c-0.29-0.989,0.774-3.334-0.96-2.879C102.562,12.508,101.496,14.854,103.23,14.398z M76.832,15.359c0-0.801,0-1.601,0-2.4
    c-0.906,0.107-1.059-0.541-1.919-0.48C75.209,13.783,75.865,14.727,76.832,15.359z M80.192,12.479c-0.8,0-1.6,0-2.399,0
    C77.278,15.091,80.201,13.574,80.192,12.479z M85.472,14.879c0.355-1.064-1.769-1.978-1.92-0.96
    C84.306,14.125,83.962,15.429,85.472,14.879z M81.152,16.318c0.479-0.641,1.297-0.942,1.439-1.92
    c-0.557-0.402-1.286-0.633-2.399-0.479C80.122,15.109,80.104,16.248,81.152,16.318z M92.191,17.279
    c1.582-0.818,3.256-1.545,4.319-2.881C94.745,15.033,92.092,14.779,92.191,17.279z M83.072,18.238
    c2.262,0.182,4.121-0.039,3.84-2.399c-1.756,0.104-1.842,0.659-3.36,0C83.749,16.995,82.676,16.882,83.072,18.238z M104.19,18.238
    c1.564,0.125,2.31-0.569,2.399-1.92c-0.66,0.021-1.054-0.226-1.439-0.479C105.562,17.37,104.395,17.323,104.19,18.238z
     M94.591,19.198c0.847,0.419,1.486,1.606,1.92,0c-2.428-0.242,0.705-1.365,0.48-2.399C95.1,16.507,94.865,17.873,94.591,19.198z
     M102.271,20.158c-0.358-1.479,1.655-0.585,0.96-2.4c-0.479,0-0.96,0-1.439,0C101.645,18.878,100.767,19.826,102.271,20.158z
     M75.393,20.158c1.848,0.379,1.848-2.298,0-1.92C75.436,19.548,74.594,19.205,75.393,20.158z M84.512,21.598
    c2.262,0.481,4.23-1.82,2.88-3.359C87.098,20.023,83.977,18.982,84.512,21.598z M104.19,28.318c0.605-2.073-2.238-3.164-0.479-4.801
    c1.324,0.115,1.095,1.785,1.919,2.4c1.432-2.286-1.295-2.277-1.439-4.32c1.241,0.432,2.354-2.711,0.48-2.399
    C103.708,22.641,100.176,26.332,104.19,28.318z M70.113,21.118c0,0.479,0,0.96,0,1.44c1.593,0.152,1.813-1.066,2.88-1.44
    C71.2,21.074,71.625,20.58,70.113,21.118z M96.511,25.918c2.283,0.043,1.562-2.917,2.88-3.84c-1.942,0.663-1.518-1.041-2.88-0.96
    C95.583,23.215,98.414,23.517,96.511,25.918z M78.752,23.518c1.531,0.412,1.484-0.755,2.4-0.959
    c-0.144,0.943,0.648,0.951,0.96,1.439c0.285,0.994-0.593,3.152,0.479,3.359c0.106-0.373,0.402-0.558,0.96-0.479
    c-0.292-2.194-0.4-3.5-1.919-5.28C79.841,21.406,78.816,21.982,78.752,23.518z M86.432,24.479c1.863,0.104,3.011-0.51,3.36-1.92
    C87.751,22.277,86.741,23.027,86.432,24.479z M89.312,27.357c0.106-0.373,0.402-0.558,0.96-0.479
    c-0.082-0.718,0.172-1.771-0.479-1.92C90.159,26.034,87.575,26.488,89.312,27.357z M55.714,44.637
    c-0.071-1.638-2.038-2.778,0.48-3.36c0.873,0.567,0.377,2.503,0.96,3.36c-0.513,1.094-3.129,1.529-1.92,2.879
    c2.545-1.225,1.749-2.2,4.32-0.479c-2.331-6.628,0.751-18.67-6.719-20.158C50.182,32.42,51.408,41.797,55.714,44.637z
     M75.393,29.277c0.072-1.191-0.248-1.992-0.959-2.399C74.646,27.785,73.78,29.771,75.393,29.277z M95.551,33.598
    c0-1.12,0-2.24,0-3.36c-1.202,0.083-1.165-1.075-1.92-1.439c1.444,0.745,1.444-2.665,0-1.92
    C93.014,28.342,93.268,32.51,95.551,33.598z M99.871,28.798c0.66-0.021,1.054,0.226,1.439,0.479c0.253-1.227,0.637-1.68-0.479-2.399
    C100.824,27.832,99.521,27.488,99.871,28.798z M112.83,27.838c-0.278,1.559,0.326,2.232,0.479,3.359
    c-0.685-0.115-0.81-0.79-1.439-0.96c0,0.64,0,1.28,0,1.92c3.211,0.172,2.198-3.881,3.84-5.279
    C113.767,26.215,114.191,27.92,112.83,27.838z M85.472,31.197c0.064-1.824-0.686-2.834-1.92-3.359
    C83.835,29.314,83.675,31.234,85.472,31.197z M104.671,32.637c-0.533-2.452,1.097-2.742,1.919-3.839
    c-0.685-0.115-0.81-0.79-1.439-0.96C104.803,29.207,101.856,32.482,104.671,32.637z M122.909,31.678
    c0.049,0.538-0.698,0.747,0,0.959c0.053-0.906,1.587-0.332,1.439-1.439c-1.654-2.633-3.418-3.867-5.76-1.92
    c0.586,0.055,1.137,0.144,0.96,0.96c1.479,0.358,0.585-1.655,2.4-0.96C121.539,30.808,122.367,31.1,122.909,31.678z M68.673,29.277
    c0,0.32,0,0.641,0,0.96c0.293,0.027,0.568,0.071,0.48,0.479c0.32,0,0.64,0,0.96,0c0.027-0.292,0.072-0.567,0.48-0.479
    c0-0.319,0-0.64,0-0.96c-0.293-0.027-0.568-0.071-0.48-0.479c-0.32,0-0.64,0-0.96,0C69.126,29.09,69.082,29.365,68.673,29.277z
     M64.833,32.637c1.669,0.004,1.571-1.928,0.48-2.399C64.911,30.795,64.681,31.524,64.833,32.637z M76.832,32.157
    c1.892,0.589,2.584-1.683,0.961-1.92C78.386,31.791,76.24,30.604,76.832,32.157z M97.951,31.678c0.71,0.25,1.21,0.71,1.92,0.959
    c0.094-1.373,0.06-2.619-1.44-2.399C98.452,30.898,98.205,31.291,97.951,31.678z M74.913,35.037c1.278-1.873-1.081-3.52-2.399-4.32
    C72.223,33.248,73.358,34.352,74.913,35.037z M40.356,33.598c0.48,0,0.959,0,1.439,0c0-0.48,0-0.961,0-1.44c-0.48,0-0.959,0-1.439,0
    C40.356,32.637,40.356,33.117,40.356,33.598z M42.755,34.077c0.8,0,1.6,0,2.4,0c0.069-1.509-1.231-1.649-2.4-1.92
    C42.755,32.797,42.755,33.438,42.755,34.077z M66.753,35.037c0.907,0.213,2.893-0.652,2.4,0.96c1.201,0.081,1.502-0.737,1.92-1.44
    c-2.2,0.281-2.238-1.602-3.36-2.399C67.437,33.16,66.523,33.527,66.753,35.037z M95.071,38.396c1.343-1.688-1.171-3.61-1.44-5.279
    c-0.479,0-0.959,0-1.439,0C93.071,34.957,93.641,37.107,95.071,38.396z M120.989,37.917c-0.365-1.806,2.549-0.331,1.92-2.399
    c-2.388,0.467-1.9-1.94-3.36-2.4c-0.315,1.438-1.025-0.459-1.92,0c-0.656,0.613-0.656,2.266,0,2.88
    c1.729,0.288,1.415-1.466,2.88-1.44C120.795,35.551,119.916,37.71,120.989,37.917z M115.229,39.837c1.31,0.35,0.966-0.954,1.92-0.96
    c-0.482-2.248-2.103-5.883-4.319-4.8C114.171,35.456,114.787,37.559,115.229,39.837z M45.155,38.877
    c0.293,0.027,0.568,0.072,0.48,0.48c0.48,0,0.96,0,1.44,0c-0.46-1.461,1.028-4.868-0.96-4.801
    C46.493,36.695,45.787,37.748,45.155,38.877z M79.713,37.917c0.104-1.864-0.51-3.011-1.92-3.36
    C78.022,36.088,78.387,37.482,79.713,37.917z M104.19,39.837c0.496-2.256-1.672-1.849-0.96-4.319
    c-0.907-0.107-1.059,0.541-1.92,0.479c1.003,1.818-0.422,4.052-1.439,3.36c0.025-1.21,2.482-4.176,0-4.801
    c-0.218,3.258-1.518,4.475,0,7.199c2.685,0.285,1.255-3.543,3.359-3.839C103.34,38.768,102.747,40.32,104.19,39.837z M108.51,35.997
    c0.686,0.114,0.81,0.79,1.44,0.96c-0.484-1.443,1.069-0.851,1.92-0.96C112.059,33.571,108.749,34.744,108.51,35.997z M88.832,38.396
    c0.125-2.045-1.926-1.914-2.4-3.359c0.276,0.844-0.58,2.82,0.48,2.88C87.179,35.44,88.038,38.449,88.832,38.396z M117.149,43.676
    c-0.438-0.841-0.165-2.395-0.96-2.879c-1.126,0.793-1.039,2.8-0.96,4.799c-3.793-0.592-3.298,3.103-6.239,3.36
    c-0.219-2.618,3.184-1.616,2.88-4.319c-0.8,0-1.601,0-2.4,0c-0.715,2.004-0.473,4.967-2.88,5.279c0.722-2.799,1.709-5.332,2.88-7.68
    c0.914,0.206,1.206,1.034,2.4,0.96c-2.055-4.761-5.923,0.112-6.72,2.399c-0.211-4.53,3.688-4.951,2.399-10.559
    c-1.557,2.147-1.364,5.469-4.319,8.159c1.554,0.734,0.493,4.823,2.399,3.84c-0.065,0.894-0.315,1.604-0.959,1.92
    c-1.15,0.19,0.266-2.187-1.44-1.44c-0.263,0.697,0.561,2.48-0.479,2.4c-1.322-1.379,0.272-2.548,0.479-3.84
    c-1.032-0.407-1.112-1.768-0.96-3.359c-2.961-0.346-0.396,4.388-1.439,4.799c-1.105-0.175-0.459-2.101-1.92-1.92
    c0.144,0.944-0.648,0.952-0.96,1.44c0.685,0.171,1.639,2.446,0.479,2.88c-0.319,0-0.64,0-0.96,0c0-1.12,0-2.24,0-3.359
    c-2.255,0.731-2.348,2.368-1.92,4.799c-2.647-0.248-4.106,0.693-4.319,2.88c1.698,0.423,2.473-1.233,2.88,0.479
    c-0.381,1.22-2.94,0.26-2.88,1.92c1.554,0.273,2.414-0.145,2.88-0.959c1.004,0.596,1.804,1.396,2.399,2.399
    c-0.66-0.021-1.054,0.226-1.439,0.479c-0.754-0.206-0.41-1.51-1.92-0.959c-1.098,0.213-2.173,2.903-0.96,3.84
    c0.562-0.719,0.597-1.964,1.439-2.4c0.493,3.133-4.031,7.042,0.96,7.68c0.153-1.928-0.775-4.936,1.92-4.32
    c-1.263,4.497-2.427,5.83-0.96,10.56c1.49,0.63,1.37-0.13,3.36,0c0.125-1.972-1.952-3.144,0-4.319
    c-0.144,0.943,0.647,0.951,0.96,1.439c0,1.12,0,2.24,0,3.359c1.861,0.082,1.344-4.707,3.359-2.879
    c-0.935,0.564-1.641,2.621-0.96,3.359c1.553,0.593,0.367-1.553,1.92-0.96c0.202,1.961-1.58,1.939-0.96,4.319
    c2.444-0.115,1.789-3.33,3.359-4.319c0.169,2.568-0.852,3.947-1.439,5.76c0.8,0,1.6,0,2.399,0c-2.23-2.718,2.952-5.085,0-8.159
    c-1.664-0.385-1.845,0.715-3.359,0.479c0.263-0.697-0.561-2.481,0.48-2.399c1.884,1.23,1.408-0.107,1.919-0.961
    c2.858,0.848,3.006,3.467,2.4,6.72c0.64,0,1.279,0,1.92,0c0.799-1.507-1.785-1.961-0.48-2.399c0.726,0.804,3.315,3.19,3.36,0.48
    c-3.533-0.627-2.983-5.336-6.24-6.24c1.211-4.736-2.101-7.488-1.92-9.6c2.1,1.748,4.948,6.211,3.36,8.64
    c0.173,1.268,1.153,1.728,2.88,1.44c-0.43-2.526-2.271-5.541-1.92-8.16c1.825-0.705,0.094,2.146,1.92,1.44
    c-1.459-2.271-0.003-3.522,0.96-5.76c-0.719-0.081-1.771,0.171-1.92-0.479c0.075-0.564-0.083-1.363,0.479-1.44
    c1.386,1.911,3.139-2.515,3.84-4.319c-2.138-0.058-1.826,2.334-2.88,3.359c-0.567-0.232-1.088-0.512-1.439-0.959
    C111.903,47.069,114.915,45.762,117.149,43.676z M64.833,38.396c1.375,0.095,2.62,0.061,2.4-1.439c-0.697-0.263-2.48,0.561-2.4-0.48
    c-0.107-0.372-0.013-0.946-0.479-0.959C64.291,36.7,64.281,37.83,64.833,38.396z M80.192,36.957c0.661-0.021,1.054,0.227,1.44,0.48
    C83.032,35.7,80.537,34.994,80.192,36.957z M72.033,38.396c0.082,0.719-0.171,1.771,0.48,1.92c0.014-1.934-0.139-3.701-1.44-4.319
    c0.593,1.554-1.553,0.366-0.96,1.92C70.832,37.998,71.885,37.746,72.033,38.396z M108.99,40.316c1.764-0.447,6.663-2.435,3.84-4.319
    C112.345,38.231,109.698,38.305,108.99,40.316z M96.991,39.357c0.204-0.916,1.371-0.869,0.96-2.4
    C96.524,36.386,95.89,38.98,96.991,39.357z M130.588,39.357c0.095-1.375,0.061-2.62-1.439-2.4
    C129.309,38.076,129.641,39.025,130.588,39.357z M28.357,43.676c0.907-0.213,2.893,0.653,2.399-0.959
    c-1.079-0.521-1.896-1.303-1.919-2.88c0.294-0.665,1.848-0.072,1.919-0.96c-1.479,0.359-0.585-1.654-2.399-0.96
    C28.357,39.837,28.357,41.756,28.357,43.676z M129.148,42.717c0.428-0.305-1.117-2.695-0.48-4.8c-0.479,0-0.959,0-1.439,0
    C126.962,40.302,127.774,43.496,129.148,42.717z M81.152,38.877c-0.641,0-1.279,0-1.92,0C78.471,41.108,81.713,40.543,81.152,38.877
    z M82.112,40.316c0.479,0,0.96,0,1.439,0c0-0.479,0-0.959,0-1.439c-0.479,0-0.96,0-1.439,0
    C82.112,39.357,82.112,39.837,82.112,40.316z M87.872,41.276c-0.213-0.907,0.652-2.893-0.96-2.399
    C86.841,40.067,86.822,41.206,87.872,41.276z M124.349,40.316c0.64,0,1.28,0,1.92,0c0-0.479,0-0.959,0-1.439
    c-0.479,0-0.96,0-1.439,0C124.85,39.537,124.603,39.931,124.349,40.316z M75.393,40.316c0.844-0.275,2.82,0.58,2.88-0.479
    C77.205,39.629,75.67,38.734,75.393,40.316z M112.83,41.756c0.907,0.108,1.059-0.54,1.92-0.479c-0.066-0.894-0.316-1.604-0.96-1.919
    C113.585,40.271,112.418,40.225,112.83,41.756z M68.193,45.116c0.616,0.66,2.87,0.835,2.88-0.479c-0.639-0.48-1.449-0.791-1.92-1.44
    c2.348-0.047-1.782-2.622,0.96-3.359c-0.906,1.003-3.907-0.437-2.88,0.479C68.061,41.408,68.26,43.13,68.193,45.116z M68.193,66.715
    c0,0.8,0,1.6,0,2.399c1.131,0.011,1.413-0.827,2.88-0.479c-0.107,0.907,0.541,1.059,0.48,1.92c-1.694,1.832-3.592,5.997-3.36,8.159
    c1.583-1.208,0.103,0.382,0,1.439c2.291-0.239,3.22-3.198,0.96-2.88C71.191,74.698,75.656,66.67,68.193,66.715z M73.953,76.794
    c4.029-7.024-2.194-11.681-1.439-16.799c2.474,0.415,1.914,6.392,4.318,5.279c-2.021,0.083-0.328-1.075,0-1.439
    c-1.079-1.175-3.107-3.912-2.398-5.28c2.099,0.141,0.594,3.887,3.359,3.36c0.03-2.91-2.574-3.186-2.4-6.239
    c1.631,0.609,1.818,2.662,3.84,2.879c0.399-2.494-3.394-3.304-1.92-5.279c1.127,0.153,1.074,1.486,1.92,1.92
    c0.354-3.873-2.636-4.403-3.359-7.199c0.907-0.107,1.059,0.541,1.92,0.48c-0.036-0.836,0.107-1.493,0.479-1.92
    c-1.114-2.245-3.657-3.062-3.839-6.24c-1.195-0.074-1.486,0.754-2.4,0.96c0.826,2.214,3.164,2.915,3.84,5.28
    c-3.803,0.649,1.778,5.516-0.48,7.679c-1.559-1.739-3.635-11.231-6.719-5.279c1.593,0.737,1.813-2.271,2.88-0.479
    c-0.435,1.484-2.562,1.277-2.88,2.879c-1.709,0.109-2.509-0.689-2.4-2.399c-0.836,0.036-1.493-0.107-1.919-0.479
    c-2.1,3.382,4.226,7.128,1.439,9.599c0.061-2.46-1.242-3.558-2.399-4.8c-0.352,2.752,1.263,3.537,1.439,5.76c0.96,0,1.92,0,2.88,0
    c0.471-2.095-1.747-3.98-0.48-5.279c1.84,2.207,1.338,5.617,1.44,8.159c0.499,1.101,3.427-0.228,3.84,0.96
    c-0.868,1.486-1.471,0.256-3.36,0.48c0,0.799,0,1.6,0,2.398c1.938,0.658,1.699-0.859,2.4-1.439c0.38,2.5,1.212,4.547,2.88,5.76
    C74.062,72.095,73.715,74.222,73.953,76.794z M89.792,46.557c-0.567-2.808,1.201-3.278,0.96-5.76
    c-0.614-0.026-0.665-0.615-1.44-0.48C88.884,41.957,87.134,46.066,89.792,46.557z M117.629,42.717c0.641,0,1.28,0,1.92,0
    c-0.086-1.564,1.129-2.311-0.96-2.4C118.663,41.511,117.835,41.803,117.629,42.717z M132.988,43.676
    c-0.286-0.994,0.593-3.152-0.48-3.359C132.731,42.207,131.502,42.809,132.988,43.676z M61.474,42.236c0.48,0,0.96,0,1.44,0
    c0.087-1.047-0.393-1.527-1.44-1.439C61.474,41.276,61.474,41.756,61.474,42.236z M83.072,41.276c0,0.8,0,1.601,0,2.399
    c1.947,0.188,2.774-0.744,2.399-2.879C84.315,40.6,84.429,41.674,83.072,41.276z M95.551,41.756c0.211,1.65-0.189,2.691-0.479,3.84
    c2.131,0.035,3.606-3.091,2.399-4.799C97.412,42.574,96.772,42.004,95.551,41.756z M37.476,42.236c1.522,1.814-3.66,4.451-0.96,5.76
    c0.591-2.299,4.029-4.277,2.88-6.72C39.879,42.721,38.327,42.127,37.476,42.236z M48.035,43.676c2.343,0.377,2.586,2.854,4.8,3.36
    c-0.584-2.937-2.552-4.487-4.8-5.76C48.088,42.471,48.935,42.762,48.035,43.676z M33.156,43.676c0.32,0,0.64,0,0.96,0
    c0.026-0.613,0.615-0.664,0.48-1.439c-0.48,0-0.96,0-1.44,0C33.156,42.717,33.156,43.196,33.156,43.676z M98.911,44.637
    c0.141-0.568,1.933-1.813,0.479-2.4C99.25,42.805,97.458,44.05,98.911,44.637z M123.389,44.637c-0.411-1.531,0.756-1.484,0.96-2.4
    c-0.64,0-1.279,0-1.92,0C122.357,43.428,122.677,44.229,123.389,44.637z M126.749,45.596c-1.9,0.621-0.98-1.579-2.88-0.959
    c1.005,1.48-1.022,4.922,0.479,6.719c0-0.479,0-0.959,0-1.439c0.64,0,1.28,0,1.92,0c0.411-1.531-0.755-1.484-0.96-2.4
    c1.538,0.099,0.783-2.096,2.4-1.92c0.306-1.617-0.871-4.205-1.92-2.879C126.344,43.166,128.248,44.676,126.749,45.596z
     M134.908,45.596c2.064,0.465,1.329-1.87,2.399-2.399c-0.293-0.026-0.568-0.071-0.479-0.479c-0.32,0-0.641,0-0.96,0
    C136.1,44.229,134.395,43.803,134.908,45.596z M62.914,46.557c-1.475-0.896,1.561-1.274,0.96-2.881
    c-2.019-0.578-2.105,0.775-3.36,0.961C60.323,45.985,62.557,47.342,62.914,46.557z M45.155,46.557c1.122,0.147,1.983,0.939,2.88,0
    c-0.166-1.275-1.26-1.621-2.4-1.92C45.743,45.544,45.094,45.695,45.155,46.557z M65.313,45.596c-0.282,0.443,2.867,0.363,2.4-0.959
    C66.807,44.85,64.821,43.983,65.313,45.596z M71.553,46.557c0.206-0.754,1.509-0.41,0.96-1.92
    C71.449,44.281,70.536,46.404,71.553,46.557z M92.191,48.956c0.321-2.241-0.771-3.067-1.439-4.319
    C90.653,46.654,90.579,48.648,92.191,48.956z M27.397,47.516c1.113-0.152,1.843,0.078,2.399,0.48c0-0.8,0-1.6,0-2.4
    C28.261,45.5,27.721,46.4,27.397,47.516z M38.916,47.996c0.839-0.166,2.967-1.451,1.44-2.4
    C40.308,46.554,38.018,47.677,38.916,47.996z M122.429,48.956c1.453-1.024-0.19-2.971-0.96-3.36
    C121.066,46.764,120.725,48.711,122.429,48.956z M38.436,52.315c2.527-0.845,4.638-2.974,7.199-2.399
    c-1.29-0.79-1.755-2.404-2.88-3.359C43.563,50.725,38.853,49.373,38.436,52.315z M84.032,52.315
    c-0.987,2.222-1.587,7.362-0.48,10.079c0.278-1.801,1.238-2.921,2.88-3.359c0.293,1.147-0.603,3.482,0.48,3.84
    c-0.133-3.133,2.052,0.855,1.92-1.439c-0.008-0.793-1.332-0.27-1.44-0.961c0.255-1.057,2.627-2.449,0.96-3.84
    c-0.665,0.295-0.072,1.848-0.96,1.92c-0.714-1.439,1.143-3.799,1.44-5.76c-3.36-0.17,0.981-5.357-1.92-6.238
    c-3.314,3.199,0.909,9.008-1.44,11.998c-0.294-0.665-1.848-0.072-1.92-0.959c0.933-0.828,1.738-1.783,1.92-3.36
    C83.583,55.004,85.305,52.162,84.032,52.315z M130.588,49.436c-0.062-1.183-0.072-2.312,0.48-2.879c-0.64,0-1.28,0-1.92,0
    C128.64,47.83,128.789,49.287,130.588,49.436z M80.192,48.477c-0.907-0.054-0.333-1.588-1.44-1.44
    C78.094,48.403,79.613,49.922,80.192,48.477z M55.234,49.916c-0.066-1.854-1.874-1.967-3.839-1.92
    C51.266,49.977,54.226,50.574,55.234,49.916z M58.114,49.916c1.064,0.355,1.978-1.77,0.96-1.92
    C58.868,48.75,57.564,48.406,58.114,49.916z M62.914,49.916c-0.56-0.081-0.521-0.759-0.48-1.439
    c-0.565,0.074-1.363-0.083-1.44,0.479C61.409,49.25,62.049,51.647,62.914,49.916z M90.271,55.195
    c-0.023-1.773,1.231-5.811-1.439-6.719C89.181,50.848,89.81,52.938,90.271,55.195z M128.668,53.275
    c0.291-1.149,0.69-2.189,0.48-3.84c-0.954-0.006-0.61-1.309-1.92-0.959C127.896,49.889,128.079,51.785,128.668,53.275z
     M35.076,50.876c1.515-0.085,2.863-0.337,2.88-1.92C36.515,49.115,35.49,49.689,35.076,50.876z M47.075,51.355c0.8,0,1.6,0,2.4,0
    c-0.194-1.245-1.495-1.385-2.4-1.92C47.075,50.076,47.075,50.716,47.075,51.355z M116.189,51.355c0.8,0,1.6,0,2.399,0
    c0-0.32,0-0.64,0-0.959C118.208,49.29,116.333,50.645,116.189,51.355z M136.348,52.315c0.115-0.685,0.79-0.81,0.96-1.439
    c-0.293-0.027-0.568-0.071-0.479-0.479c-0.32,0-0.641,0-0.96,0C135.949,51.113,135.696,52.167,136.348,52.315z M59.554,53.756
    c0.173-2.094-1.831-2.009-2.88-2.88C56.598,52.871,57.558,53.832,59.554,53.756z M53.794,52.315c1.553-0.593,0.367,1.554,1.92,0.96
    c0-0.64,0-1.279,0-1.92C54.621,51.222,53.91,51.471,53.794,52.315z M28.357,52.315c-0.593,1.554,1.553,0.367,0.96,1.92
    c-1.507,0.228-1.268-1.292-2.4-1.44c0.55,1.51-0.754,1.167-0.96,1.92c3.032,0.762,0.25,4.478,1.44,7.2
    c0.661-0.021,1.054,0.226,1.44,0.479c1.237-1.896,0.197-3.238,1.919-4.799c-1.507-0.799-1.961,1.785-2.399,0.479
    c0.036-0.836-0.107-1.493-0.48-1.92c0.954-0.007,0.61-1.31,1.919-0.96c-0.285-0.994,0.593-3.152-0.479-3.359
    C29.211,52.21,28.915,52.394,28.357,52.315z M119.549,53.756c0.232,2.152-3.29,0.549-2.879,2.879
    c1.255-0.184,1.34-1.539,3.359-0.959c0.723-0.717,0.144-2.736,1.92-2.4c0.021,0.661-0.227,1.055-0.48,1.439
    c1.256,0.136,2.064-0.175,1.92-1.439c-1.878,0.758-0.993-1.246-1.92-1.439c-1.183,2.029-1.686,0.818-3.84,0.479
    c0,0.32,0,0.64,0,0.96C117.761,54.96,119.417,52.071,119.549,53.756z M125.309,54.235c0.64,0,1.28,0,1.92,0
    c0.228-1.507-0.599-1.961-1.439-2.399C125.386,52.393,125.155,53.123,125.309,54.235z M17.798,58.075
    c1.465-0.996-0.187-2.325,1.439-3.36c2.981-0.9,2.344,1.816,4.32,1.92c0.365-0.754,1.522-0.717,1.44-1.92
    C23.03,50.746,14.841,52.266,17.798,58.075z M48.035,59.995c1.611-7.582-5.073-9.306-8.639-5.28c0.491,1.576,1.456,2.117,0,3.36
    c2.354,1.552,2.142-1.042,2.879-2.399c2.401-0.002,3.167,1.633,4.8,2.399c-1.107-0.147-0.533,1.387-1.44,1.44
    c-1.172-0.268-1.022-1.857-2.88-1.44C43.634,59.597,45.444,60.186,48.035,59.995z M113.31,58.075c1.241-1.638,2.698-3.062,2.88-5.76
    C115.18,53.877,111.874,55.664,113.31,58.075z M34.116,54.235c-0.994,0.286-3.153-0.593-3.36,0.479
    C31.986,55.152,33.478,55.493,34.116,54.235z M62.914,59.035c-0.441-1.959-1.146-3.654-2.4-4.8
    C60.379,56.771,60.654,58.895,62.914,59.035z M131.548,55.676c1.377,0.521,3.572-0.514,1.92-1.44
    c-0.196,0.604-0.618,0.981-1.439,0.96c-0.107-0.372-0.014-0.947-0.48-0.96C131.548,54.715,131.548,55.195,131.548,55.676z
     M22.117,59.035c0.125-1.564-0.57-2.311-1.92-2.4C20.627,57.646,20.212,59.5,22.117,59.035z M58.114,61.436
    c-0.179-2.542-1.293-4.146-3.36-4.801C55.438,58.672,55.645,61.184,58.114,61.436z M60.514,60.955c0.11-2.03-0.756-3.084-1.44-4.32
    c0,0.801,0,1.601,0,2.4C60.963,58.266,59.241,61.107,60.514,60.955z M120.989,61.915c0.026-0.614,0.615-0.665,0.479-1.44
    c-0.971-0.629-2.677-0.521-1.92-2.879c-2.869-0.471-3.959,0.84-5.759,1.439c0.09,1.35,0.835,2.045,2.399,1.92
    c-0.417-1.856,0.803-2.076,1.439-2.88c-0.099,1.38,0.122,2.438,0.96,2.88C118.863,58.549,120.297,61.709,120.989,61.915z
     M120.989,59.035c0.64,0,1.279,0,1.92,0c0-0.48,0-0.96,0-1.439c-0.48,0-0.96,0-1.44,0C121.49,58.256,121.243,58.648,120.989,59.035z
     M135.868,59.995c0.223-1.503-0.418-2.143-1.92-1.92C134.007,59.297,134.646,59.937,135.868,59.995z M127.709,63.355
    c0.438-1.433,0.899-3.107-0.48-3.84C127.521,60.662,126.626,62.998,127.709,63.355z M121.949,64.314
    c2.3,0.121,3.559-3.346,1.92-4.319C123.246,61.453,122.056,62.342,121.949,64.314z M130.588,63.835c-0.34-1.78,0.82-2.06,0.48-3.84
    C129.535,60.042,127.979,63.913,130.588,63.835z M67.713,60.955c-0.8,0-1.6,0-2.4,0C64.845,62.888,68.182,62.888,67.713,60.955z
     M116.67,66.234c1.245-0.834,0.972-3.188,0.959-5.279c-2.362-0.283-0.657,3.502-1.919,4.319c-0.963-1.757-1.765-3.675-3.84-4.319
    C112.473,63.711,114.209,65.336,116.67,66.234z M120.509,69.594c-0.511-2.461-0.956-2.338-0.96-4.799
    c-0.918,0.201-2.065,0.174-1.92,1.439C119.144,66.801,119.03,68.994,120.509,69.594z M27.397,63.835
    c-0.22,1.499,1.025,1.534,2.399,1.439C30.334,63.333,28.323,62.901,27.397,63.835z M126.269,66.234c0-0.96,0-1.92,0-2.879
    c-0.479,0-0.96,0-1.439,0C125.81,64.807,123.946,66.125,126.269,66.234z M64.833,64.795c0.746,0.579,1.871,1.533,2.88,0.479
    C68.241,63.4,64.854,63.352,64.833,64.795z M78.272,67.674c0.655-0.646,0.915-3.35-0.479-3.359
    C78.078,65.309,77.199,67.468,78.272,67.674z M89.792,75.354c0.156-2.396-1.613-2.867-0.96-5.76c1.54,0.422,0.995-1.244,1.92-1.439
    c-0.291-1.469-1.02-2.5-1.44-3.84c-2.753-0.513-2.925,1.555-4.8,1.92c-0.489,3.361,1.862,3.969,0,6.24
    c0.908,0.107,1.06-0.541,1.92-0.48c0.535-2.295-1.494-2.025-0.96-4.32c0.8,0,1.601,0,2.4,0c0.046-0.754-0.064-1.664,0.96-1.439
    c0.242,2.803-1.641,3.479-0.96,6.72c-1.225,0.056-2.47,0.09-2.4,1.439c1.115,0.806,0.625,3.215,1.44,4.32
    c1.364-1.152,0.785-2.079,0-3.36c0.986-0.453,0.406-2.473,1.92-2.399C89.045,73.861,88.179,75.847,89.792,75.354z M28.357,68.635
    c0.48,0,0.96,0,1.439,0c-0.414-1.187-1.438-1.762-2.879-1.92C26.211,68.54,29.062,66.809,28.357,68.635z M64.833,70.074
    c0.64,0,1.28,0,1.92,0c0.685-0.641,0.685-2.719,0-3.359c-0.64,0-1.28,0-1.92,0C64.601,67.807,63.881,69.166,64.833,70.074z
     M126.269,67.674c0.907-0.213,2.893,0.653,2.399-0.959C127.478,66.645,126.339,66.625,126.269,67.674z M117.629,71.994
    c-0.301-1.459,0.615-4.135-0.479-4.8C115.714,67.623,115.617,72.135,117.629,71.994z M58.114,69.594c1.832,0.429,3.063-0.783,3.84,0
    c-0.758-1.321-2.565-1.594-4.32-1.92C57.527,68.582,58.175,68.733,58.114,69.594z M120.989,71.034
    c-0.914-0.206-1.206-1.034-2.4-0.96c0.751,1.648,2.017,2.783,4.32,2.88c0.367-1.076-2.217-1.53-0.48-2.399
    c2.03,0.049,1.365,2.794,2.88,3.359c0.187-3.227-1.858-4.221-3.359-5.76C121.002,68.487,122.067,70.832,120.989,71.034z
     M114.27,71.034c0.449-1.606-1.536-3.212-2.399-1.92C112.956,69.469,112.92,70.943,114.27,71.034z M126.749,71.034
    c0.37-0.328,1.249-2.859-0.48-2.399C126.017,69.86,125.632,70.314,126.749,71.034z M130.588,72.954
    c1.751,0.283,1.901-3.502,0.96-4.319C131.572,70.418,129.929,70.535,130.588,72.954z M67.713,71.994c2.25,0.152,1.285-2.221,0-2.4
    C66.814,70.508,67.661,70.801,67.713,71.994z M57.154,71.994c0-0.641,0-1.279,0-1.92C55.26,69.742,55.583,72.096,57.154,71.994z
     M59.554,71.994c0-0.48,0-0.96,0-1.439c-0.48,0-0.96,0-1.44,0C58.027,71.602,58.507,72.081,59.554,71.994z M66.753,71.034
    c-1.12,0-2.24,0-3.359,0C63.536,72.385,67.311,73.092,66.753,71.034z M93.151,74.394c0.442,0.283,0.362-2.866-0.96-2.399
    C92.404,72.901,91.539,74.887,93.151,74.394z M81.152,74.874c1.265,0.145,1.575-0.665,1.439-1.92c-0.479,0-0.959,0-1.439,0
    C81.152,73.594,81.152,74.233,81.152,74.874z M114.27,76.313c0.661-0.021,1.054,0.227,1.44,0.48c0.822-0.938,0.833-2.687,1.439-3.84
    C115.695,73.579,114.028,73.993,114.27,76.313z M129.148,74.874c0.082,0.718-0.172,1.771,0.479,1.92
    c-0.024-0.88,2.46-1.625,0.96-2.4C130.508,74.953,129.83,74.915,129.148,74.874z M101.791,78.714c1.077-0.802,0.646-4.134-0.96-3.84
    C101.227,76.078,99.897,79.007,101.791,78.714z M108.51,78.714c2.146,0.225,1.05-2.791,2.4-3.36
    C108.481,74.846,108.416,76.699,108.51,78.714z M24.997,78.714c1.041,0.08,0.217-1.703,0.48-2.4c-0.48,0-0.96,0-1.44,0
    C24.25,77.221,23.384,79.206,24.997,78.714z M26.437,78.233c1.519-0.659,1.604-0.104,3.359,0c0-0.64,0-1.279,0-1.92
    c-1.12,0-2.24,0-3.359,0C26.437,76.954,26.437,77.594,26.437,78.233z M30.756,78.233c1.36-0.5,2-0.5,3.36,0
    c-0.082-0.718,0.171-1.771-0.48-1.92c-0.74,2.127-0.795-0.782-2.88,0C30.756,76.954,30.756,77.594,30.756,78.233z M35.076,77.754
    c0.685,0.114,0.81,0.79,1.44,0.96c0.146-1.12,1.024-2.068-0.48-2.4C35.921,76.999,35.246,77.123,35.076,77.754z M93.631,79.674
    c0.054-1.613,0.96-2.539-0.479-3.36C93.437,77.308,92.559,79.467,93.631,79.674z M117.149,78.714
    c1.113,0.152,1.843-0.077,2.399-0.48c-0.208-1.071-0.849-1.711-1.92-1.92C117.826,77.47,116.753,77.357,117.149,78.714z
     M71.553,79.674c1.553-0.594,0.367,1.553,1.919,0.96c0.06-1.66-0.938-2.263-1.439-3.36C72.229,78.43,71.157,78.316,71.553,79.674z
     M94.591,81.113c1.954,0.034,2.066-1.773,1.92-3.84C95.029,77.712,94.917,79.52,94.591,81.113z M87.872,81.113
    c0.105-0.374,0.401-0.558,0.96-0.479c-0.263-0.698,0.561-2.481-0.48-2.4C88.008,78.744,86.478,80.444,87.872,81.113z M110.43,80.634
    c1.609,0.329,1.755-0.806,1.92-1.92C111.129,78.772,110.488,79.412,110.43,80.634z M60.514,81.593
    c-0.359-1.479,1.655-0.585,0.96-2.399C60.047,78.622,59.412,81.217,60.514,81.593z M82.112,82.073
    c1.456,0.016,1.196-1.684,1.439-2.88c-0.479,0-0.96,0-1.439,0C82.112,80.153,82.112,81.113,82.112,82.073z M104.671,80.634
    c0.571-1.427-2.023-2.062-2.4-0.96C103.186,79.878,103.139,81.045,104.671,80.634z M58.114,84.953
    c0.913-0.022,1.308-0.192,3.36,0.479c-0.245-2.499,3.141-3.879,1.92-5.759C62.271,82.07,59.922,83.241,58.114,84.953z
     M63.874,84.953c0.464-1.311,3.743-4.335,1.439-5.279C65.278,81.576,62.426,83.16,63.874,84.953z M108.03,81.593
    c-1.594,0.738-1.813-2.271-2.88-0.479C105.84,81.321,108.841,82.915,108.03,81.593z M67.713,83.033c0.48,0,0.96,0,1.44,0
    c0-0.48,0-0.96,0-1.44c-0.32,0-0.64,0-0.96,0C68.167,82.207,67.578,82.258,67.713,83.033z M88.832,83.513
    c0.006-0.953,1.31-0.61,0.96-1.92C88.578,81.088,87.664,83.212,88.832,83.513z M55.714,84.473c1.672,0.672,3.641-2.255,1.44-2.399
    C57.231,83.43,55.712,83.191,55.714,84.473z M84.512,83.993c0.641,0,1.28,0,1.92,0c0-0.64,0-1.28,0-1.92
    C84.93,81.851,84.289,82.49,84.512,83.993z M90.271,83.993c0.64,0,1.28,0,1.92,0c-0.075-0.564,0.083-1.362-0.479-1.44
    C91.901,83.703,89.525,82.287,90.271,83.993z M131.548,94.552c0.136-1.255-0.175-2.064-1.439-1.919
    C129.973,93.888,130.283,94.697,131.548,94.552z M127.229,95.032c0.48,0,0.96,0,1.439,0c0-0.48,0-0.96,0-1.44
    c-0.479,0-0.959,0-1.439,0C127.229,94.072,127.229,94.552,127.229,95.032z M120.029,99.352c-0.578-0.542-0.87-1.37-2.4-0.96
    C117.162,99.714,120.312,99.794,120.029,99.352z M80.192,122.87c-0.021,0.66,0.226,1.054,0.479,1.439
    c1.265,0.145,1.576-0.664,1.44-1.92C81.276,122.354,80.619,122.497,80.192,122.87z M77.793,138.709c0.479,0,0.959,0,1.439,0
    c-0.082-0.719,0.172-1.771-0.48-1.92C79.346,138.342,77.199,137.155,77.793,138.709z"/>
</g>
</svg>