<?xml version="1.0" encoding="utf-8"?>
<!-- Original Courtesy of the University of Texas Libraries, The University of Texas at Austin. -->
<svg version="1.1"
	 xmlns="http://www.w3.org/2000/svg" viewBox="0 0 425 425">
<path fill-rule="evenodd" clip-rule="evenodd" d="M86,316.5c-0.32,12.396,8.722,20.51,9,29c-15.42-5.738-20.566,4.702-33,7
	C71.914,342.413,79.817,330.316,86,316.5z"/>
<path fill-rule="evenodd" clip-rule="evenodd" d="M205,6.5c-6.778-0.778-10.635,1.365-17,1c-6.946,15.529-12.109,31.999-18,49
	c-22.428,64.72-44.457,134.208-67,201c-14.583,43.206-29.852,78.498-61,106c-9.868,8.713-19.186,15.096-31,22
	c24.347-1.652,39.176-12.824,53-25c9.277-0.39,17.426-1.908,21-8c5.875,1.72,17.631,3.892,23,0c-2.253-9.487-10.496-18.189-12-30
	c-0.445-3.498-0.244-7.795,0-11c1.978-25.945,20.115-51.768,23-75c16.8,9.2,31.443,20.557,47,31c15.468-10.532,32.294-19.706,47-31
	c7.909,15.22,13.242,38.431,20,58c2.181,6.314,6.198,12.522,7,18c2.347,16.037-3.613,30.816-12,41c15.396,0.062,27.26-3.407,38-8
	c9.605,7.059,32.895,9.521,46,4c20.016,14.984,42.631,27.369,73,32c-4.243-5.491-14.49-9.089-20-15
	c-15.532-16.664-24.16-45.454-34-71c-32.134-83.423-65.691-175.943-98-261c12.355,26.233,22.165,55.261,33,85
	c20.63,56.622,42.364,112.136,65,171c5.056,13.148,10.182,28.692,16,43c5.439,13.376,13.509,28.573,22,36
	c7.487,6.549,17.514,9.09,25,15c7.717,6.093,13.198,12.949,21,19c-39.91,1.909-65.964-18.702-90-36c-17.098,4.177-37.989,1.739-47-8
	c-8.77,4.409-22.099,12.302-35,9c-7.638-1.954-10.089-11.186-16-14c6.798-10.503,12.248-22.625,12-36
	c-0.353-18.998-13.928-36.656-16-53c-7.577,2.875-14.548,7.697-21,12c-6.588,4.394-13.247,8.618-19,14
	c-13.747-7.587-25.644-17.022-39-25c-3.991,7.364-7.411,16.979-11,27c-4.92,13.737-11.728,24.741-11,44
	c0.466,12.35,4.625,22.238,8,34c-5.778,1.902-14.456,6.192-22,3c-5.125,4.977-14.21,10.984-24,8c-13.196,11.137-27.517,21.149-48,25
	c3.638,3.226,14.03,4.367,11,11c-5.389,0.157-0.586-4.083-3-6c-4.947-2.053-10.835-3.165-17-4c5.172-3.684,11.5-2.557,17-4
	c15.039-3.947,28.075-13.917,39-23c11.193,0.859,18.59-2.076,23-8c8.969,2.179,14.306-0.152,22-3c-4.207-15.364-8.895-28.933-7-46
	c1.162-10.467,7.411-19.927,11-30c3.84-10.778,6.626-20.917,10-30c14.804,6.863,26.175,17.158,40,25
	c9.914-6.424,21.235-13.616,32-21c2.626-1.801,8.689-3.531,7-8c-7.651,0.272-14.335,6.738-21,11c-6.873,4.395-13.805,8.67-20,13
	c-14.338-8.662-27.918-18.082-42-27c-5.133,20.701-21.961,43.833-22,69c-0.02,12.834,4.647,24.689,7,38
	c-6.427,6.576-15.562,1.409-22,3c-6.595,1.63-10.169,11.782-19,9c-9.066,6.974-24.396,17.992-40,23c-5.693,1.827-13.489,4.547-17,4
	c-8.607-1.341-11.216-11.733-19-16c3.204-5.52,9.094-6.188,14-9c28.559-16.366,48.927-42.438,63-72
	c14.362-30.168,23.171-65.625,35-100c23.464-68.186,46.953-138.208,68-201c7,0,14,0,21,0c6,7,11.799,14.201,19,20
	c17.481,49.756,36.661,101.953,58,154c15.788,38.508,28.006,77.901,43,116c7.757,19.708,13.068,39.723,24,56
	c3.678,5.476,5.002,9.578,12,13c-2.158,0.904-5.523-1.902-8-4c-10.884-9.216-21.639-21.246-29-34c-7.621-13.204-11.891-28.845-18-45
	C274.708,193.465,236.613,89.843,205,6.5z"/>
<path fill-rule="evenodd" clip-rule="evenodd" d="M124,225.5c12.465-43.201,28.886-82.447,41-126c5.138,3.103,5.348,10.24,7,15
	c12.31,35.461,25.613,73.699,38,111c-14.642,9.692-29.595,19.072-44,29C152.22,244.613,136.651,236.516,124,225.5z M178,139.5
	c-11.818,32.515-23.356,65.311-34,99c7.887,4.113,13.603,10.396,22,14c14.09-9.91,31.199-16.802,42-30
	C197.453,195.38,189.979,165.188,178,139.5z"/>
<path fill-rule="evenodd" clip-rule="evenodd" d="M181,162.5c-0.81-0.19-0.997-1.003-2-1c-8.572,27.095-18.975,52.358-27,80
	c-0.376-11.198,6.392-21.404,10-32c2.486-7.302,3.522-14.723,6-22c3.521-10.341,8.205-18.823,11-31c3.052,9.746,10.332,21.322,10,33
	c-0.155,5.454-4.69,9.686-2,15c-2.565-0.102-1.607-3.727-3-5c-3.587,2.413-6.329,5.671-6,12c1.712,3.538,2.015-3.264,4,0
	c0.825,5.851-5.784,2.066-6,0c0.563-8.103,6.788-10.545,9-17c-2.538-0.723-8.226,2.021-11-2c-1.417-5.117,3.994-10.527,6-6
	c0.895,3.492-3.262,1.708-4,1c-2.35,9.944,12.361,6.393,11,0c-0.247-1.258-1.988-1.009-2,0
	C186.283,180.71,183.389,170.979,181,162.5z"/>
<path fill-rule="evenodd" clip-rule="evenodd" d="M413,412.5c-0.676,1.897-8.764,5.106-3,7
	C403.72,425.293,406.655,411.183,413,412.5z"/>
<path fill-rule="evenodd" clip-rule="evenodd" d="M202,14.5c20.938,57.929,42.668,119.349,65,179c11.173,29.846,20.677,60.799,32,90
	c11.031,28.447,23.554,55.63,45,76c-10.322-5.678-22.388-9.612-30-18c-14.752,5.475-36.624,4.333-49-3
	c-6.041,2.959-11.722,6.278-21,6c8.239-33-4.293-62.496-15-91c-17.636-46.951-31.803-91.2-49-141c-3.426-9.921-9.863-20.779-10-28
	c-0.173-9.102,7.092-22.234,11-34c4.573-13.768,7.915-26.935,13-36C196.667,14.5,199.333,14.5,202,14.5z M195,62.5
	c1.772-0.228,5.008,1.008,4-2c-1.333,0-2.667,0-4,0C195,61.167,195,61.833,195,62.5z M193,68.5c2.667,0,5.333,0,8,0
	c0.826-2.826-1.409-2.591-1-5C195.348,62.848,192.351,63.851,193,68.5z M202,71.5c0-0.667,0-1.333,0-2c-3.333,0-6.667,0-10,0
	C191.858,73.642,198.958,70.542,202,71.5z M190,77.5c4.226-1.107,13.021,2.354,14-2C203.583,70.975,187.721,70.143,190,77.5z
	 M205,78.5c-5.017,0.65-12.644-1.311-16,1C193.884,79.855,199.938,81.083,205,78.5z M190,85.5c3.791,1.606,9.787-1.629,12,2
	c-3.333,0-6.667,0-10,0c1.518,3.474,15.4,3.009,17,0c-1.453-0.547-5.168,1.168-5-1c3.124,0.458,3.197-2.137,3-5
	c-5.667,0-11.333,0-17,0C190,82.833,190,84.167,190,85.5z M194,95.5c5.825-2.29,13.742,2.489,16-3c-2.218-4.116-11.61-1.057-17-2
	C192.681,92.819,193.161,94.339,194,95.5z M211,96.5c-5.017,0.65-12.644-1.311-16,1C201.731,98.871,207.905,98.778,211,96.5z
	 M197,105.5c5.667,0,11.333,0,17,0c0.726-3.059-1.726-2.941-1-6c-5.667,0-11.333,0-17,0C195.275,102.559,197.725,102.441,197,105.5z
	 M199,108.5c4.849-1.151,14.415,2.416,16-2C210.15,107.651,200.584,104.084,199,108.5z M201,115.5c7.766,0.117,10.261-0.618,17,0
	c0.261-2.928-2.261-3.072-2-6c-5.667,0-11.333,0-17,0C199.329,111.837,200.202,113.631,201,115.5z M219,116.5
	c-5.667,0-11.333,0-17,0C203.518,119.974,217.4,119.509,219,116.5z M203,123.5c4.209,2.125,12.182,0.485,18,1
	c0.725-8.392-11.453-3.88-18-5C203,120.833,203,122.167,203,123.5z M205,127.5c5.667,0,11.333,0,17,0
	C220.674,124.217,206.326,124.217,205,127.5z M207,133.5c5.667,0,11.333,0,17,0c1.029-8.696-11.659-3.675-18-5
	C205.174,131.326,207.409,131.091,207,133.5z M208,136.5c4.85-1.151,14.415,2.416,16-2C219.15,135.651,209.585,132.084,208,136.5z
	 M210,143.5c6.629-0.371,15.623,1.624,17-4c-2.677-3.99-12.184-1.15-18-2C208.274,140.559,210.726,140.441,210,143.5z M212,146.5
	c4,0,8,0,12,0c0-0.667,0-1.333,0-2C220.38,145.547,212.398,142.231,212,146.5z M214,153.5c6.864-1.009,12.13,0.508,17-1
	c-1.489-6.178-10.524-4.809-18-5C212.277,150.556,214.022,151.144,214,153.5z M216,156.5c4.85-1.151,14.415,2.416,16-2
	C227.15,155.651,217.584,152.084,216,156.5z M216,158.5c-0.164,3.164,2.657,3.342,2,7c4.532,1.801,11.957,0.709,18,1
	c1.602-3.936-4.318-0.348-4-3c3.409-1.128,2.378-1.183,2-5C230.005,156.885,219.995,156.885,216,158.5z M221,173.5
	c5.667,0,11.333,0,17,0c0.723-3.056-1.022-3.644-1-6c-5.667,0-11.333,0-17,0C219.277,170.556,221.022,171.144,221,173.5z M222,176.5
	c5.681-0.653,13.981,1.315,18-1C236.355,174.536,223.981,172.562,222,176.5z M223,179.5c1.486,0.847,1.447,3.22,2,5
	c5.793,0.49,14.187-0.729,17,0C244.686,174.75,226.798,176.252,223,179.5z M226,187.5c5.667,0,11.333,0,17,0
	C241.674,184.217,227.326,184.217,226,187.5z M229,194.5c6.483-1.365,12.058,0.757,17-2c-1.165-0.168-1.086-1.581-1-3
	c-4.209-2.125-12.182-0.485-18-1C226.521,191.646,228.424,192.409,229,194.5z M247,195.5c-5.681,0.653-13.981-1.315-18,1
	C234.354,197.354,242.452,198.602,247,195.5z M231,203.5c5.349,0.651,13.313-1.313,17,1c-4.717,1.634-8.664-0.015-15,0
	c1.894,4.439,11.835,0.832,17,2c-1.045-2.288-0.635-6.032-2-8c-6,0-12,0-18,0C229.591,200.909,231.826,200.674,231,203.5z
	 M236,213.5c5.667,0,11.333,0,17,0c0.409-2.409-1.826-2.174-1-5c-3.052-2.006-11.703,1.542-18-1
	C233.521,210.646,235.424,211.409,236,213.5z M236,216.5c5.484-1.183,15.794,2.46,18-2C248.516,215.683,238.206,212.04,236,216.5z
	 M237,218.5c0.329,2.338,1.202,4.132,2,6c5.681-0.653,13.981,1.315,18-1c-1.486-0.847-1.447-3.22-2-5
	C249.152,217.392,244.888,218.324,237,218.5z M240,227.5c4.209,2.124,12.182,0.485,18,1C257.542,223.396,241.986,224.632,240,227.5z
	 M243,235.5c6,0,12,0,18,0c0.261-2.928-2.261-3.072-2-6c-6,0-12,0-18,0C240.521,232.646,242.424,233.409,243,235.5z M244,238.5
	c6,0,12,0,18,0C260.19,235.035,245.885,235.466,244,238.5z M247,246.5c6,0,12,0,18,0c-0.208-10.146-13.902-4.97-20-7
	C244.899,242.601,246.223,244.277,247,246.5z M266,247.5c-6.333,0-12.667,0-19,0C247.753,251.744,264.86,252.273,266,247.5z
	 M252,258.5c6.732,0.678,11.283-1.34,16,0c1.941-1.926-1.052-4.023-1-7c-6,0-12,0-18,0C249.261,254.573,251.17,255.997,252,258.5z
	 M252,261.5c5.484-1.183,15.794,2.46,18-2C264.517,260.683,254.206,257.04,252,261.5z M254,268.5c6,0,12,0,18,0
	c0.595-10.958-13.171-2.905-19-6C252.277,265.556,254.022,266.145,254,268.5z M274,270.5c-4.523-2.144-12.861-0.472-19-1
	C255.712,274.645,271.749,273.356,274,270.5z M258,278.5c6,0,12,0,18,0c0.252-8.252-12.056-3.944-19-5
	C256.174,276.326,258.409,276.091,258,278.5z M258,281.5c6.981-2.127,17.406,4.24,19-2C271.004,280.504,260.795,277.295,258,281.5z
	 M261,288.5c5.379-0.821,10.543,0.424,18,0c0.889-8.889-12.444-3.556-19-5C259.174,286.326,261.409,286.091,261,288.5z M280,290.5
	c-4.019-2.315-12.319-0.347-18-1C262.293,294.439,278.247,293.602,280,290.5z M265,299.5c6,0,12,0,18,0c0.726-3.059-1.726-2.941-1-6
	c-6.013,0.654-14.65-1.316-19,1C265.077,294.757,263.273,298.894,265,299.5z M265,302.5c6.345-0.655,15.318,1.318,20-1
	C280.737,300.53,267.599,298.552,265,302.5z M266,309.5c6.013,0.654,14.65-1.316,19,1c-8.01,1.545-15.645-2.577-19,3c8,0,16,0,24,0
	c1.053-3.72-3.372-1.961-4-4c4.285,0.157-1.047-4.084-1-6c-6.333,0-12.667,0-19,0C266,305.5,266,307.5,266,309.5z M266,318.5
	c2.545-0.122,3.878-1.455,4-4C266.869,314.036,265.536,315.369,266,318.5z M282,320.5c3.203-0.463,3.526-3.808,7-4
	c2.197,1.136,3.322,3.345,6,4c-0.816-8.517-13.168-5.498-22-6C274.375,318.125,277.863,319.637,282,320.5z"/>
<path d="M411.668,409.415c-9.102-0.517-25.58-3.4-37.168-7.915c-12.493-4.868-28.295-14.943-40.502-23.316
	c-2.688-2.138-4.383-5.946-8.998-6.684c-2.285-0.365-5.326,1.771-8,2c-14.577,1.244-29.244-3.104-38-10
	c-5.253,4.747-12.839,7.161-21,9c-3.695,0.638-9.962-1.295-12,1c4.667,0,9.333,0,14,0c7.405-2.262,15.055-4.278,20-9
	c7.356,6.698,19.091,11.256,33,11c4.326-0.079,9.392-2.632,13-2c3.316,0.58,4.86,3.787,6.859,4.987
	c6.678,5.173,30.263,19.521,41.031,24.18c11.378,4.922,27.255,6.773,35.061,7.784c0.018,0.017,0.029,0.031,0.049,0.049
	c0.056-0.01,0.108-0.014,0.163-0.021c0.054,0.007,0.117,0.015,0.17,0.021c1.295,0.169,2.289,0.251,3.058,0.272
	c3.027,0.938,4.914,3.055,6.609-1.272C417.561,409.697,414.172,409.421,411.668,409.415z"/>
</svg>
